<svg xmlns="http://www.w3.org/2000/svg" xmlns:svg="http://www.w3.org/2000/svg" style="clip-rule:evenodd;fill-rule:evenodd;stroke-linecap:round;stroke-linejoin:round;stroke-miterlimit:1" id="svg4136" width="50" height="50" version="1.1" xml:space="preserve"><metadata id="metadata4190"/><g id="g3" transform="matrix(0.86964819,0,0,0.88268338,3.4825827,2.9804651)"><g id="g5"><path style="fill:#f95b26" id="path7" d="M 31.9,40.8 H 11.8 c -1,0 -1.9,-0.8 -1.9,-1.9 v -9.7 c 0,-1 0.8,-1.9 1.9,-1.9 h 20.1 c 1,0 1.9,0.8 1.9,1.9 V 39 c -0.1,1 -0.9,1.8 -1.9,1.8 z"/><path style="fill:#f95b26" id="path9" d="M 24,22.6 H 11.6 C 10.7,22.6 10,21.9 10,21 V 10.8 C 10,9.9 10.7,9.2 11.6,9.2 H 24 c 0.9,0 1.6,0.7 1.6,1.6 V 21 c 0,0.9 -0.7,1.6 -1.6,1.6 z"/></g><g id="g11"><path style="fill:#f95b26" id="path13" d="M 43.2,50 H 6.8 C 3.1,50 0,46.9 0,43.2 V 6.8 C 0,3.1 3.1,0 6.8,0 H 43.2 C 46.9,0 50,3.1 50,6.8 v 1.5 c 0,1 -0.8,1.8 -1.8,1.8 -1,0 -1.8,-0.8 -1.8,-1.8 V 6.8 C 46.4,5.1 45,3.7 43.3,3.7 H 6.8 C 5.1,3.7 3.7,5.1 3.7,6.8 v 36.4 c 0,1.7 1.4,3.1 3.1,3.1 h 36.4 c 1.7,0 3.1,-1.4 3.1,-3.1 V 25.5 c 0,-1.7 -1.4,-3.1 -3.1,-3.1 h -7.5 c -1,0 -1.8,-0.8 -1.8,-1.8 0,-1 0.8,-1.8 1.8,-1.8 h 7.5 c 3.8,0 6.8,3.1 6.8,6.8 v 17.7 c 0,3.6 -3.1,6.7 -6.8,6.7 z"/></g></g></svg>