<?xml version="1.0" encoding="UTF-8" standalone="no"?>
<!-- Generator: Adobe Illustrator 21.0.0, SVG Export Plug-In . SVG Version: 6.00 Build 0)  -->

<svg
   xmlns:dc="http://purl.org/dc/elements/1.1/"
   xmlns:cc="http://creativecommons.org/ns#"
   xmlns:rdf="http://www.w3.org/1999/02/22-rdf-syntax-ns#"
   xmlns:svg="http://www.w3.org/2000/svg"
   xmlns="http://www.w3.org/2000/svg"
   xmlns:sodipodi="http://sodipodi.sourceforge.net/DTD/sodipodi-0.dtd"
   xmlns:inkscape="http://www.inkscape.org/namespaces/inkscape"
   version="1.1"
   id="Layer_1"
   x="0px"
   y="0px"
   width="254"
   height="62.592049"
   viewBox="0 0 254 62.592049"
   xml:space="preserve"
   sodipodi:docname="crio-logo-2.svg"
   inkscape:version="0.92.3 (2405546, 2018-03-11)"><metadata
   id="metadata311"><rdf:RDF><cc:Work
       rdf:about=""><dc:format>image/svg+xml</dc:format><dc:type
         rdf:resource="http://purl.org/dc/dcmitype/StillImage" /></cc:Work></rdf:RDF></metadata><defs
   id="defs309" /><sodipodi:namedview
   pagecolor="#ffffff"
   bordercolor="#666666"
   borderopacity="1"
   objecttolerance="10"
   gridtolerance="10"
   guidetolerance="10"
   inkscape:pageopacity="0"
   inkscape:pageshadow="2"
   inkscape:window-width="1299"
   inkscape:window-height="723"
   id="namedview307"
   showgrid="false"
   inkscape:zoom="3.0604651"
   inkscape:cx="118.94826"
   inkscape:cy="30.550154"
   inkscape:window-x="67"
   inkscape:window-y="17"
   inkscape:window-maximized="1"
   inkscape:current-layer="g304" />
<style
   type="text/css"
   id="style2">
	.st0{fill:#FFFFFF;}
	.st1{fill:#121212;}
	.st2{fill:#F95B26;}
</style>
<g
   id="g304"
   transform="translate(0,29.592047)">
	<rect
   x="62.56966"
   y="-29.592047"
   class="st0"
   width="191.43034"
   height="62.592049"
   id="rect4"
   style="fill:#ffffff;stroke-width:1.41244757" />
	<rect
   y="-29.592047"
   class="st1"
   width="62.56966"
   height="62.592049"
   id="rect6"
   x="0"
   style="fill:#121212;stroke-width:1.89638937" />
	<g
   id="g18"
   transform="matrix(1.8960501,0,0,1.8967284,0,-29.592045)">
		<g
   id="g12">
			<path
   class="st2"
   d="m 18.6,21.4 h -6.2 c -0.3,0 -0.6,-0.3 -0.6,-0.6 v -3 c 0,-0.3 0.3,-0.6 0.6,-0.6 h 6.2 c 0.3,0 0.6,0.3 0.6,0.6 v 3 c 0,0.3 -0.3,0.6 -0.6,0.6 z"
   id="path8"
   inkscape:connector-curvature="0"
   style="fill:#f95b26" />
			<path
   class="st2"
   d="m 16.2,15.8 h -3.8 c -0.3,0 -0.5,-0.2 -0.5,-0.5 v -3.1 c 0,-0.3 0.2,-0.5 0.5,-0.5 h 3.8 c 0.3,0 0.5,0.2 0.5,0.5 v 3.1 c 0,0.2 -0.2,0.5 -0.5,0.5 z"
   id="path10"
   inkscape:connector-curvature="0"
   style="fill:#f95b26" />
		</g>
		<g
   id="g16">
			<path
   class="st2"
   d="M 22.1,24.2 H 10.9 C 9.7,24.2 8.8,23.3 8.8,22.1 V 10.9 c 0,-1.2 0.9,-2.1 2.1,-2.1 h 11.2 c 1.2,0 2.1,0.9 2.1,2.1 v 0.5 C 24.2,11.7 23.9,12 23.6,12 23.3,12 23,11.7 23,11.4 v -0.5 c 0,-0.5 -0.4,-1 -1,-1 H 10.9 c -0.5,0 -1,0.4 -1,1 v 11.2 c 0,0.5 0.4,1 1,1 h 11.2 c 0.5,0 1,-0.4 1,-1 v -5.4 c 0,-0.5 -0.4,-1 -1,-1 h -2.3 c -0.3,0 -0.6,-0.3 -0.6,-0.6 0,-0.3 0.3,-0.6 0.6,-0.6 h 2.3 c 1.2,0 2.1,0.9 2.1,2.1 V 22 c 0,1.2 -1,2.2 -2.1,2.2 z"
   id="path14"
   inkscape:connector-curvature="0"
   style="fill:#f95b26" />
		</g>
	</g>
	<g
   id="g302"
   transform="matrix(1.305871,0,0,1.3063383,1.621906,-20.394515)">
		<g
   id="g24">
			<path
   class="st1"
   d="m 130.7,22.9 c -0.2,0.4 -0.5,0.8 -0.8,1.1 -0.3,0.3 -0.7,0.6 -1,0.9 -0.4,0.2 -0.7,0.4 -1.1,0.5 -0.4,0.1 -0.8,0.2 -1.1,0.2 -0.7,0 -1.2,-0.1 -1.7,-0.3 -0.5,-0.2 -0.8,-0.5 -1.1,-0.8 -0.3,-0.4 -0.5,-0.8 -0.6,-1.2 -0.1,-0.5 -0.2,-1 -0.2,-1.5 0,-0.4 0,-0.8 0.1,-1.3 0.1,-0.4 0.2,-0.9 0.3,-1.3 0,-0.1 0,-0.1 0.1,-0.2 0,-0.1 0,-0.2 0,-0.2 0,-0.1 0,-0.1 -0.1,-0.1 -0.2,-0.1 -0.4,-0.1 -0.6,-0.2 -0.2,-0.1 -0.4,-0.1 -0.6,-0.2 -0.2,-0.1 -0.4,-0.2 -0.6,-0.2 -0.2,-0.1 -0.4,-0.2 -0.5,-0.4 0,0.6 -0.1,1.3 -0.3,1.9 -0.2,0.6 -0.5,1.3 -0.9,1.8 -0.4,0.6 -0.8,1.1 -1.3,1.6 -0.5,0.5 -1,1 -1.5,1.3 L 117,24.1 c 0.3,-0.3 0.6,-0.7 0.9,-1.2 0.3,-0.5 0.5,-0.9 0.7,-1.4 0.2,-0.5 0.3,-1 0.5,-1.5 0.1,-0.5 0.2,-1 0.2,-1.4 0,-0.2 0,-0.4 -0.1,-0.6 0,-0.2 -0.1,-0.4 -0.1,-0.6 C 119,17.2 119,17 119,16.9 c 0,-0.2 -0.1,-0.3 -0.1,-0.5 0,-0.3 0.1,-0.5 0.3,-0.7 0.2,-0.2 0.5,-0.2 0.8,-0.2 0.2,0 0.3,0 0.4,0.1 0.1,0.1 0.2,0.2 0.2,0.3 0.1,0.1 0.1,0.3 0.2,0.4 0.1,0.1 0.2,0.2 0.4,0.3 0.2,0.1 0.5,0.2 0.8,0.2 0.3,0.1 0.7,0.1 1,0.1 0.4,0 0.7,0.1 1.1,0.1 0.4,0 0.7,0.1 1,0.2 0.3,0.1 0.5,0.2 0.7,0.4 0.2,0.2 0.3,0.4 0.3,0.7 0,0.1 0,0.3 0,0.4 0,0.1 -0.1,0.3 -0.1,0.4 -0.1,0.4 -0.3,0.9 -0.4,1.3 -0.1,0.5 -0.1,0.9 -0.1,1.3 0,0.4 0,0.7 0.1,1.1 0.1,0.3 0.2,0.6 0.4,0.8 0.2,0.2 0.4,0.4 0.7,0.5 0.3,0.1 0.6,0.2 1.1,0.2 0.6,0 1.2,-0.1 1.7,-0.4 0.5,-0.3 0.9,-0.7 1.3,-1.1 z"
   id="path20"
   inkscape:connector-curvature="0"
   style="fill:#121212" />
			<path
   class="st1"
   d="m 138.6,22.9 c -0.3,0.4 -0.6,0.8 -0.9,1.1 -0.4,0.3 -0.8,0.6 -1.2,0.9 -0.4,0.2 -0.9,0.4 -1.4,0.6 -0.5,0.1 -1,0.2 -1.5,0.2 -0.6,0 -1.2,-0.1 -1.7,-0.3 -0.5,-0.2 -0.9,-0.5 -1.2,-0.8 -0.3,-0.3 -0.6,-0.8 -0.8,-1.2 -0.2,-0.5 -0.3,-1 -0.3,-1.6 0,-0.6 0.1,-1.2 0.3,-1.7 0.2,-0.5 0.5,-1 0.8,-1.5 0.3,-0.5 0.7,-0.9 1.2,-1.3 0.5,-0.4 1,-0.7 1.5,-1.1 l 0.2,0.1 c -0.6,0.6 -1,1.3 -1.4,2 -0.3,0.7 -0.5,1.5 -0.5,2.3 0,0.5 0.1,0.9 0.2,1.3 0.1,0.4 0.3,0.8 0.6,1.1 0.3,0.3 0.6,0.6 1,0.8 0.4,0.2 0.9,0.3 1.5,0.3 0.7,0 1.3,-0.1 1.9,-0.4 0.6,-0.3 1.2,-0.6 1.6,-1 z m -4.8,-10.3 c 0,0.2 -0.1,0.4 -0.2,0.6 -0.1,0.2 -0.2,0.4 -0.4,0.6 -0.2,0.2 -0.4,0.3 -0.6,0.4 -0.2,0.1 -0.4,0.2 -0.7,0.2 -0.3,0 -0.5,-0.1 -0.7,-0.3 -0.2,-0.2 -0.3,-0.4 -0.3,-0.7 0,-0.2 0.1,-0.4 0.2,-0.6 0.1,-0.2 0.2,-0.4 0.4,-0.5 0.2,-0.2 0.4,-0.3 0.6,-0.4 0.2,-0.1 0.4,-0.1 0.7,-0.1 0.3,0 0.5,0.1 0.7,0.2 0.2,0.1 0.3,0.3 0.3,0.6 z"
   id="path22"
   inkscape:connector-curvature="0"
   style="fill:#121212" />
		</g>
		<g
   id="g280">
			<path
   class="st1"
   d="m 119.2,8.3 c 0.1,-0.5 0.2,-0.9 0.2,-1.4 0,-0.6 -0.1,-1.1 -0.3,-1.5 -0.2,-0.5 -0.4,-0.8 -0.8,-1.2 -0.4,-0.3 -0.8,-0.6 -1.3,-0.8 -0.5,-0.2 -1.1,-0.3 -1.8,-0.3 -1.4,0 -2.7,0.3 -3.8,0.8 -1.1,0.5 -2.2,1.2 -3,2 -0.9,0.8 -1.7,1.8 -2.3,2.9 -0.6,1.1 -1.2,2.2 -1.6,3.4 -0.4,1.2 -0.7,2.3 -0.9,3.5 -0.2,1.2 -0.3,2.3 -0.3,3.3 0,0.8 0.1,1.6 0.2,2.4 0.1,0.8 0.3,1.6 0.6,2.4 0.3,0.8 0.6,1.5 1.1,2.1 0.4,0.7 1,1.2 1.6,1.7 0.6,0.5 1.3,0.9 2.1,1.2 0.8,0.3 1.7,0.4 2.8,0.4 0.7,0 1.4,-0.1 2.1,-0.3 0.7,-0.2 1.3,-0.5 1.9,-0.9 0.6,-0.4 1.1,-0.8 1.6,-1.2 0.5,-0.5 0.9,-0.9 1.2,-1.4 l 0.2,0.1 c -0.2,0.7 -0.6,1.4 -1.2,2 -0.5,0.7 -1.2,1.2 -1.9,1.8 -0.7,0.5 -1.6,0.9 -2.4,1.2 -0.9,0.3 -1.8,0.5 -2.7,0.5 -1.2,0 -2.2,-0.2 -3.2,-0.5 -1,-0.3 -1.8,-0.7 -2.6,-1.3 -0.7,-0.5 -1.4,-1.2 -1.9,-1.9 -0.5,-0.7 -1,-1.5 -1.4,-2.3 -0.4,-0.8 -0.6,-1.7 -0.8,-2.6 -0.2,-0.9 -0.3,-1.8 -0.3,-2.8 0,-1.2 0.2,-2.5 0.5,-3.8 0.3,-1.3 0.8,-2.6 1.4,-3.9 0.6,-1.3 1.3,-2.5 2.2,-3.6 0.9,-1.1 1.9,-2.2 3,-3 1.1,-0.9 2.4,-1.6 3.7,-2.1 1.4,-0.5 2.8,-0.8 4.4,-0.8 1,0 1.9,0.1 2.7,0.4 0.8,0.2 1.5,0.6 2.1,1 0.6,0.5 1,1 1.4,1.7 0.3,0.7 0.5,1.4 0.5,2.3 0,0.3 0,0.6 -0.1,1 0,0 -0.3,3.4 -4.8,3.4 v -0.4 c -0.2,-0.2 1.4,-0.3 1.9,-3.5 z"
   id="path26"
   inkscape:connector-curvature="0"
   style="fill:#121212" />
			<g
   id="g278">
				<path
   class="st1"
   d="m 119.2,8.3 c 0.1,-0.5 0.2,-0.9 0.2,-1.4 0,-0.6 -0.1,-1.1 -0.3,-1.5 -0.2,-0.5 -0.4,-0.8 -0.8,-1.2 -0.4,-0.3 -0.8,-0.6 -1.3,-0.8 -0.5,-0.2 -1.1,-0.3 -1.8,-0.3 -1.4,0 -2.7,0.3 -3.8,0.8 -1.1,0.5 -2.2,1.2 -3,2 -0.9,0.8 -1.7,1.8 -2.3,2.9 -0.6,1.1 -1.2,2.2 -1.6,3.4 -0.4,1.2 -0.7,2.3 -0.9,3.5 -0.2,1.2 -0.3,2.3 -0.3,3.3 0,0.8 0.1,1.6 0.2,2.4 0.1,0.8 0.3,1.6 0.6,2.4 0.3,0.8 0.6,1.5 1.1,2.1 0.4,0.7 1,1.2 1.6,1.7 0.6,0.5 1.3,0.9 2.1,1.2 0.8,0.3 1.7,0.4 2.8,0.4 0.7,0 1.4,-0.1 2.1,-0.3 0.7,-0.2 1.3,-0.5 1.9,-0.9 0.6,-0.4 1.1,-0.8 1.6,-1.2 0.5,-0.5 0.9,-0.9 1.2,-1.4 l 0.2,0.1 c -0.2,0.7 -0.6,1.4 -1.2,2 -0.5,0.7 -1.2,1.2 -1.9,1.8 -0.7,0.5 -1.6,0.9 -2.4,1.2 -0.9,0.3 -1.8,0.5 -2.7,0.5 -1.2,0 -2.2,-0.2 -3.2,-0.5 -1,-0.3 -1.8,-0.7 -2.6,-1.3 -0.7,-0.5 -1.4,-1.2 -1.9,-1.9 -0.5,-0.7 -1,-1.5 -1.4,-2.3 -0.4,-0.8 -0.6,-1.7 -0.8,-2.6 -0.2,-0.9 -0.3,-1.8 -0.3,-2.8 0,-1.2 0.2,-2.5 0.5,-3.8 0.3,-1.3 0.8,-2.6 1.4,-3.9 0.6,-1.3 1.3,-2.5 2.2,-3.6 0.9,-1.1 1.9,-2.2 3,-3 1.1,-0.9 2.4,-1.6 3.7,-2.1 1.4,-0.5 2.8,-0.8 4.4,-0.8 1,0 1.9,0.1 2.7,0.4 0.8,0.2 1.5,0.6 2.1,1 0.6,0.5 1,1 1.4,1.7 0.3,0.7 0.5,1.4 0.5,2.3 0,0.3 0,0.6 -0.1,1 0,0 -0.3,3.4 -4.8,3.4 v -0.4 c -0.2,-0.2 1.4,-0.3 1.9,-3.5 z"
   id="path28"
   inkscape:connector-curvature="0"
   style="fill:#121212" />
				<g
   id="g276">
					<path
   class="st1"
   d="m 117.8,11 c 0,0 0.1,-0.1 0.1,-0.1 0,0 0.1,-0.1 0.1,-0.1 0.1,-0.1 0.1,-0.1 0.1,0 0.1,-0.2 0.2,-0.4 0.2,-0.4 0,-0.1 0,-0.1 0,-0.1 0.1,-0.2 0.1,-0.3 0.2,-0.4 0,0 0,-0.1 0,0 0,0 0,0.1 0,0.2 0,-0.1 0.1,-0.2 0.1,-0.2 l 0.1,-0.2 c 0,-0.2 0.1,-0.3 0.1,-0.5 l -0.1,0.3 c 0,0.1 -0.1,0.2 -0.1,0.3 0,-0.1 0.1,-0.3 0.1,-0.6 0.1,-0.2 0.1,-0.5 0.1,-0.6 l -0.1,0.6 c -0.1,0.2 -0.1,0.4 -0.2,0.5 V 9.6 c 0,0.1 -0.1,0.3 -0.2,0.5 -0.1,0.2 -0.1,0.3 -0.2,0.4 0,0 0,0 0.1,-0.2 -0.1,0.2 -0.1,0.3 -0.2,0.3 0,0.1 -0.1,0.1 -0.1,0.2 0,0.1 -0.1,0.1 -0.1,0.2 0,0 0,0.1 0,0.1 0.1,-0.3 0.1,-0.2 0,-0.1 0,0 -0.1,0.1 -0.2,0.2 0.1,-0.1 0.1,-0.2 0.2,-0.2 z"
   id="path30"
   inkscape:connector-curvature="0"
   style="fill:#121212" />
					<path
   class="st1"
   d="M 116.7,11.8 V 12 l 0.1,0.4 0.3,-0.1 0.3,-0.1 c 0.3,0 0.6,0 0.9,-0.1 0,0 0.6,-0.2 0.2,-0.1 -0.1,0 -0.2,0.1 -0.4,0.1 0,0 0.1,0 0.2,-0.1 0.1,0 0.2,-0.1 0.4,-0.1 0.2,-0.1 0.4,-0.1 0.3,-0.1 -0.3,0.1 -0.5,0.1 -0.7,0.2 -0.2,0 -0.3,0.1 -0.5,0.1 -0.3,0 -0.5,0 -0.7,0 h -0.3 v -0.2 c 0,-0.2 0,-0.3 0,-0.4 v -0.2 h 0.2 c 0,0 0.1,0 0.1,0 0,0 0.1,0 0.1,0 0.1,0 0.1,-0.1 0.1,-0.1 0,0 0,0 0.1,-0.1 0,0 0.1,0 0.1,-0.1 0,0 -0.1,0.1 -0.1,0.1 L 117.3,11 c 0,0 -0.1,0 -0.1,0.1 h -0.1 c 0,0 -0.1,0 -0.1,0 0,0 -0.1,0 -0.1,0 l -0.3,0.3 c 0,0 0,0 0,0.1 v -0.1 l 0.3,-0.3 c 0,0 0,0 0,0 v 0 c 0,0 0,0 0.1,0 0,0 0,0 0.1,0 0,0 0,0 0.1,0 l 0.1,-0.1 0.1,-0.1 c 0,0 0.1,-0.1 0.1,-0.1 0,0 -0.1,0 -0.1,0.1 0,0 -0.1,0.1 -0.1,0.1 0,0 -0.1,0 -0.1,0 0,0 -0.1,0 -0.1,0 0,0 -0.1,0 -0.1,0 0,0 -0.1,0 0,0 l -0.5,0.5 c 0,0.1 0,0.3 0,0.4 v 0.5 h 0.5 c 0.1,0 0.3,0 0.3,0 -0.5,-0.1 0.2,0 -0.3,-0.1 h -0.5 v -0.4 c 0.2,0.1 0.2,0 0.2,-0.1 z"
   id="path32"
   inkscape:connector-curvature="0"
   style="fill:#121212" />
					<path
   class="st1"
   d="m 117.6,11.1 c 0,0 0,0 0,0 0,0 0,0 0,0 z"
   id="path34"
   inkscape:connector-curvature="0"
   style="fill:#121212" />
					<path
   class="st1"
   d="m 117.5,26.6 c -0.1,0.2 -0.2,0.2 -0.2,0.2 0.4,-0.4 0.8,-0.9 1.2,-1.4 l -0.3,0.1 0.2,0.1 -0.2,-0.4 c 0,0.1 -0.1,0.2 -0.1,0.3 0,0 0.1,-0.2 0.1,-0.3 l 0.1,0.3 c -0.1,-0.1 -0.2,-0.1 0,0 l -0.1,-0.3 c 0,0 0,0 0,0 0,0 0,0 0,0 l 0.1,0.3 c -0.1,0 -0.1,-0.1 -0.2,-0.1 l 0.2,-0.1 c -0.1,0.2 -0.3,0.5 -0.3,0.5 l 0.1,-0.2 c -0.3,0.5 -0.6,0.7 -0.4,0.4 v 0 c -0.3,0.4 -0.6,0.8 -1,1.2 0.2,-0.2 0.3,-0.3 0.4,-0.4 0.1,0.2 0.2,0.1 0.4,-0.2 z"
   id="path36"
   inkscape:connector-curvature="0"
   style="fill:#121212" />
					<path
   class="st1"
   d="m 119.1,4.9 c -0.2,-0.3 -0.2,-0.3 -0.2,-0.3 0.1,0.2 0.2,0.2 0.2,0.3 z"
   id="path38"
   inkscape:connector-curvature="0"
   style="fill:#121212" />
					<path
   class="st1"
   d="m 116.5,27.7 c -0.1,0.1 -0.2,0.2 -0.4,0.3 0.2,-0.1 0.3,-0.2 0.4,-0.3 z"
   id="path40"
   inkscape:connector-curvature="0"
   style="fill:#121212" />
					<path
   class="st1"
   d="m 118.9,25.7 c 0,0 0,0 0,0 v 0 L 119,25.1 118.6,25 h -0.1 c 0,0 0,0 0,0 0,0 0.1,0 0.1,0 l 0.4,0.1 -0.1,0.6 c 0,-0.1 0,-0.1 0,0 z"
   id="path42"
   inkscape:connector-curvature="0"
   style="fill:#121212" />
					<path
   class="st1"
   d="m 106.2,27.9 c 0,0 -0.1,-0.1 -0.1,-0.1 0,0.1 0,0.1 0.1,0.1 z"
   id="path44"
   inkscape:connector-curvature="0"
   style="fill:#121212" />
					<path
   class="st1"
   d="m 114.5,30.6 c 0.3,-0.2 0.6,-0.4 0.9,-0.6 -0.1,0.1 0.3,-0.2 0.2,0 0.1,0 0.4,-0.3 0.3,-0.2 l -0.2,0.1 c 0.2,-0.2 0.3,-0.3 0.3,-0.3 0.1,-0.1 0.2,-0.2 0.5,-0.5 -0.5,0.3 -0.7,0.5 -0.9,0.7 -0.1,0.1 -0.2,0.1 -0.2,0.2 -0.2,0.2 -0.5,0.4 -0.7,0.5 z"
   id="path46"
   inkscape:connector-curvature="0"
   style="fill:#121212" />
					<path
   class="st1"
   d="m 106.9,7.9 v 0 c 0,0 0,0 0,0 z"
   id="path48"
   inkscape:connector-curvature="0"
   style="fill:#121212" />
					<path
   class="st1"
   d="m 106.9,7.9 v 0 c 0,0 -0.1,0.2 0,0 z"
   id="path50"
   inkscape:connector-curvature="0"
   style="fill:#121212" />
					<path
   class="st1"
   d="m 116.6,27.6 c 0,0 0,0.1 -0.1,0.1 0.1,-0.1 0.2,-0.2 0.3,-0.3 -0.1,0.1 -0.1,0.1 -0.2,0.2 z"
   id="path52"
   inkscape:connector-curvature="0"
   style="fill:#121212" />
					<path
   class="st1"
   d="m 117.1,26.9 c 0.2,-0.2 0.4,-0.4 0.6,-0.6 0.1,-0.1 0.1,-0.2 0.2,-0.3 -0.2,0.2 -0.5,0.5 -0.8,0.9 z"
   id="path54"
   inkscape:connector-curvature="0"
   style="fill:#121212" />
					<path
   class="st1"
   d="m 107.4,28.8 c -0.4,-0.2 -0.6,-0.4 -0.6,-0.4 0,0 0,0 0.2,0.1 0.2,0.1 0.6,0.3 0.2,0 -0.5,-0.3 -0.6,-0.4 -0.9,-0.6 0.3,0.2 0.5,0.3 0.5,0.4 0.1,0.1 0,0.1 0,0.1 0,0 -0.1,0 0,0.1 0.1,0.1 0.2,0.2 0.6,0.4 -0.1,0 -0.4,-0.2 -0.6,-0.3 -0.3,-0.2 -0.6,-0.4 -0.7,-0.6 -0.2,-0.2 -0.1,-0.2 0.1,0 0.2,0.1 0.4,0.3 0.5,0.3 -0.3,-0.2 -0.4,-0.3 -0.4,-0.3 -0.1,0 -0.1,-0.1 -0.2,-0.1 -0.4,-0.3 -0.7,-0.7 -1,-1.1 -0.3,-0.4 -0.5,-0.7 -0.6,-1 -0.2,-0.3 -0.3,-0.4 -0.3,-0.5 -0.1,-0.1 -0.1,-0.2 -0.2,-0.4 -0.1,0 0,0.2 0.2,0.5 0.1,0.3 0.3,0.6 0.3,0.7 0,0 -0.1,-0.1 0,-0.1 0.1,0.2 0.2,0.4 0.3,0.5 -0.3,-0.5 0.1,0 0.3,0.3 0.1,0.2 0.4,0.5 0.4,0.5 -0.1,-0.1 -0.2,-0.2 -0.2,-0.3 0.3,0.4 0.7,0.7 1,1.1 0,0 -0.1,-0.1 -0.2,-0.1 0.4,0.3 0.8,0.7 1.5,1 -0.1,-0.1 -0.3,-0.1 -0.4,-0.2 0.3,0.1 0.8,0.4 1.3,0.6 0.3,0.1 0.5,0.2 0.8,0.3 0.3,0.1 0.5,0.2 0.8,0.2 -0.1,0 -0.3,-0.1 -0.2,-0.1 0.6,0.1 1,0.2 0.7,0.2 0.3,0 0.8,0.1 1.4,0.1 0.6,0 1.2,-0.1 1.6,-0.2 0.3,-0.1 0.6,-0.2 0.8,-0.3 0.3,-0.1 0.5,-0.3 0.8,-0.4 0.5,-0.3 1,-0.6 1.4,-1 -0.1,0.1 -0.2,0.2 -0.3,0.2 -0.3,0.1 -0.4,0.2 0,-0.1 -0.2,0.2 -0.3,0.2 -0.4,0.3 -0.1,0.1 -0.2,0.2 -0.6,0.3 0.1,-0.1 0.2,-0.2 0.2,-0.2 0,0 -0.2,0.1 -0.5,0.2 -0.4,0.2 -0.8,0.4 -1.2,0.5 -0.4,0.1 -0.8,0.2 -1.2,0.3 -0.2,0 -0.4,0.1 -0.6,0.1 -0.2,0 -0.4,0 -0.6,0 -0.4,0 -0.8,0 -1.3,-0.1 0,0 -0.4,-0.1 -0.8,-0.3 -0.4,-0.1 -0.9,-0.4 -1.2,-0.5 0.3,0.1 0.7,0.3 1.2,0.4 -0.3,-0.1 -0.9,-0.3 -1.2,-0.5 -0.6,0 -0.7,0 -0.7,0 z"
   id="path56"
   inkscape:connector-curvature="0"
   style="fill:#121212" />
					<path
   class="st1"
   d="m 111.7,29.6 c 0,0 -0.1,0 -0.2,0 0.1,0 0.2,0 0.2,0 z"
   id="path58"
   inkscape:connector-curvature="0"
   style="fill:#121212" />
					<path
   class="st1"
   d="m 109,29.3 c 0,0 0,0 0,0 0,0 -0.1,0 -0.2,0 0.1,0 0.1,0 0.2,0 z"
   id="path60"
   inkscape:connector-curvature="0"
   style="fill:#121212" />
					<path
   class="st1"
   d="m 116.2,27.7 c 0.1,-0.1 0.1,-0.1 0.2,-0.2 0,0.1 -0.1,0.1 -0.2,0.2 0,0 -0.1,0.1 0,0 z"
   id="path62"
   inkscape:connector-curvature="0"
   style="fill:#121212" />
					<path
   class="st1"
   d="m 116.5,27.6 v 0 c 0,0 0.1,0 0,0 0.1,-0.1 0.1,-0.1 0,0 z"
   id="path64"
   inkscape:connector-curvature="0"
   style="fill:#121212" />
					<path
   class="st1"
   d="m 103.6,22.9 -0.1,-0.2 c 0,0.1 0.1,0.1 0.1,0.2 z"
   id="path66"
   inkscape:connector-curvature="0"
   style="fill:#121212" />
					<path
   class="st1"
   d="m 105.7,27.4 c 0.2,0.2 0.3,0.2 0.3,0.3 0.1,0 0.1,0.1 0.5,0.4 -0.1,-0.1 -0.1,-0.1 -0.2,-0.2 0.3,0.2 0.7,0.5 1.1,0.7 0.4,0.2 0.9,0.4 1.2,0.6 0,0 0.1,0 0.2,0.1 0.1,0 0.2,0.1 0.2,0.1 0.5,0.1 1.1,0.2 1.4,0.2 0.3,0.1 0.8,0 1.3,0.1 -0.1,0 0.1,0 0.1,-0.1 0,0 0,0 -0.5,0 0.1,0 0,0 0.1,0 -0.3,0 -0.6,0 -0.8,0 -0.2,0 -0.4,0 -0.7,-0.1 -0.2,0 0,0 0.1,0 0.1,0 0.3,0 0.1,0 -0.4,0 -0.9,-0.2 -1.4,-0.3 -0.4,-0.2 -0.8,-0.3 -0.8,-0.2 -0.5,-0.2 -0.5,-0.3 -0.7,-0.4 -0.2,-0.1 -0.5,-0.2 -0.7,-0.4 -0.3,-0.2 -0.5,-0.4 -0.8,-0.7 -0.5,-0.5 -0.8,-0.9 -0.8,-0.9 0.2,0.1 0.5,0.5 0.8,0.8 z"
   id="path68"
   inkscape:connector-curvature="0"
   style="fill:#121212" />
					<path
   class="st1"
   d="m 115.3,28.3 c 0,0 -0.1,0 -0.1,0.1 0,0 0.1,-0.1 0.1,-0.1 z"
   id="path70"
   inkscape:connector-curvature="0"
   style="fill:#121212" />
					<path
   class="st1"
   d="m 116.1,27.8 c 0,-0.1 0.1,-0.2 0.1,-0.2 0.5,-0.5 0.7,-0.8 1,-1.2 0.2,-0.4 0.4,-0.7 0.6,-1.2 l 0.4,0.9 c 0,0 -0.1,0 -0.1,-0.1 -0.1,0 0.1,0 0.1,0 l -0.4,-0.9 c 0,0 0,0 0,0 v 0 l 0.4,0.9 c -0.1,0 -0.2,-0.1 -0.2,-0.1 l 0.8,-0.2 c -0.3,0.4 -0.6,0.8 -1,1.2 -0.3,0.4 -0.7,0.7 -1,0.9 -0.1,0.1 -0.4,0.3 -0.5,0.4 -0.2,0.1 -0.3,0.2 -0.2,0.1 -0.1,0.1 -0.3,0.2 -0.4,0.3 -0.1,0 0.3,-0.2 0.3,-0.2 -0.1,0.1 -0.2,0.1 -0.2,0.1 0.1,-0.1 0,-0.1 0,-0.1 0,0 0.1,-0.1 0.6,-0.5 0.2,-0.1 0,0 -0.1,0.1 -0.2,0.1 -0.4,0.3 -0.2,0.2 0.3,-0.2 0.2,-0.2 0.3,-0.2 0.4,-0.3 0.4,-0.3 0.4,-0.2 0.1,-0.1 0.6,-0.5 0.7,-0.7 0.6,-0.6 0,0.1 0.4,-0.3 0.1,-0.1 0.1,-0.2 0.2,-0.3 0.2,-0.2 0.4,-0.5 0.6,-0.8 0,0 0,0 0,-0.1 l -0.7,0.2 c 0.1,0 0.2,0.1 0.2,0.1 l -0.3,-0.7 c -0.1,0.3 0,0.2 0,0.2 0,0 0,0 0,0.1 0,0.1 -0.1,0.3 -0.2,0.5 0,-0.2 -0.3,0.3 -0.7,0.8 0.1,-0.2 0.3,-0.4 0.4,-0.6 0.1,-0.3 0.3,-0.5 0.4,-0.7 -0.2,0.4 0,0 0.1,-0.3 l 0.3,0.7 c -0.1,0 -0.2,-0.1 -0.2,-0.1 l 0.7,-0.2 c -0.1,0.1 -0.1,0.1 0,0.1 0,0 0,0 0,0 l -0.8,0.2 c 0.1,0 0.2,0 0.2,0.1 l -0.4,-0.8 c -0.1,0.3 -0.3,0.7 -0.4,1 0,0 0,-0.1 0.1,-0.1 -0.1,0.2 -0.2,0.4 -0.3,0.6 -0.1,0.2 -0.3,0.4 -0.5,0.7 -0.2,0.2 -0.2,0.2 -0.2,0.1 -0.1,0.1 -0.3,0.3 -0.3,0.3 z m 0.5,-0.5 c 0.1,-0.1 0.2,-0.2 0.3,-0.3 -0.1,0 -0.2,0.2 -0.3,0.3 z"
   id="path72"
   inkscape:connector-curvature="0"
   style="fill:#121212" />
					<path
   class="st1"
   d="m 122.4,8.7 c 0,0.1 0,0.1 0,0.2 -0.1,-0.1 0,-0.1 0,-0.2 z"
   id="path74"
   inkscape:connector-curvature="0"
   style="fill:#121212" />
					<path
   class="st1"
   d="m 101.3,26.1 -0.1,-0.3 c 0,0.1 0.1,0.2 0.1,0.3 z"
   id="path76"
   inkscape:connector-curvature="0"
   style="fill:#121212" />
					<path
   class="st1"
   d="m 99.5,19.9 c 0,-0.1 0,-0.3 0,-0.4 0,0.1 0,0.3 0,0.4 z"
   id="path78"
   inkscape:connector-curvature="0"
   style="fill:#121212" />
					<path
   class="st1"
   d="m 122,5.3 v 0 c -0.1,-0.1 -0.1,-0.1 0,0 z"
   id="path80"
   inkscape:connector-curvature="0"
   style="fill:#121212" />
					<path
   class="st1"
   d="m 103.8,8 c 0,0 0.1,-0.1 0.2,-0.2 -0.1,0 -0.1,0.1 -0.2,0.2 z"
   id="path82"
   inkscape:connector-curvature="0"
   style="fill:#121212" />
					<path
   class="st1"
   d="m 99.5,20 c 0,0 0,-0.1 0,0 0,-0.1 0,-0.1 0,0 z"
   id="path84"
   inkscape:connector-curvature="0"
   style="fill:#121212" />
					<path
   class="st1"
   d="m 102.8,28.6 c 0,0 0.1,0.1 0.1,0.1 -0.1,-0.1 -0.1,-0.1 -0.1,-0.1 z"
   id="path86"
   inkscape:connector-curvature="0"
   style="fill:#121212" />
					<path
   class="st1"
   d="m 102.7,28.1 c 0,0 0.1,0.1 0.1,0.1 z"
   id="path88"
   inkscape:connector-curvature="0"
   style="fill:#121212" />
					<path
   class="st1"
   d="m 111.8,31.4 c 0.1,0 0.3,-0.1 0.4,-0.1 -0.2,0 -0.3,0.1 -0.4,0.1 z"
   id="path90"
   inkscape:connector-curvature="0"
   style="fill:#121212" />
					<path
   class="st1"
   d="m 103.4,28.9 c 0,0 0,0 0,0 0,0 -0.1,-0.1 0,0 z"
   id="path92"
   inkscape:connector-curvature="0"
   style="fill:#121212" />
					<path
   class="st1"
   d="m 121,10.8 c 0,0 0,0 0,0 z"
   id="path94"
   inkscape:connector-curvature="0"
   style="fill:#121212" />
					<path
   class="st1"
   d="m 120.3,11.5 c 0,0 -0.1,0.1 -0.1,0.1 l -0.2,0.1 c 0.1,-0.1 0.3,-0.1 0.3,-0.2 z"
   id="path96"
   inkscape:connector-curvature="0"
   style="fill:#121212" />
					<path
   class="st1"
   d="m 107.9,4.3 c 0.1,0 0.3,-0.2 0.2,-0.1 0.2,-0.1 0.1,-0.2 -0.2,0.1 z"
   id="path98"
   inkscape:connector-curvature="0"
   style="fill:#121212" />
					<path
   class="st1"
   d="m 121.4,9.1 c 0,0.1 0,0.1 0,0.2 0,-0.2 0.1,-0.3 0,-0.2 z"
   id="path100"
   inkscape:connector-curvature="0"
   style="fill:#121212" />
					<path
   class="st1"
   d="m 121.4,9.3 c 0,0.1 0,0.1 -0.1,0.2 0.1,-0.1 0.1,-0.2 0.1,-0.2 z"
   id="path102"
   inkscape:connector-curvature="0"
   style="fill:#121212" />
					<path
   class="st1"
   d="m 106.4,6.4 c 0,0 -0.1,0 0,0 -0.1,0.1 -0.1,0 0,0 z"
   id="path104"
   inkscape:connector-curvature="0"
   style="fill:#121212" />
					<path
   class="st1"
   d="m 119.8,11.8 c 0,0 -0.4,0.2 -0.6,0.3 -0.1,0 -0.2,0.1 -0.1,0.1 0,0 0.1,0 0.1,0 0.1,0 0.2,0 0.3,-0.1 0,0 -0.1,0 -0.1,0.1 -0.1,0 -0.2,0.1 -0.3,0.1 -0.1,0 -0.2,0.1 -0.4,0.1 -0.1,0 -0.2,0 -0.3,0.1 0.2,0 -0.1,0.1 0,0.1 0.2,0 0.4,-0.1 0.6,-0.2 0.1,0 -0.3,0.1 -0.6,0.2 0.2,0 0.1,0 0,0 -0.1,0 -0.2,0.1 0.1,0 1.2,-0.2 2.1,-0.7 2.7,-1.4 -0.3,0.3 -0.6,0.5 -0.9,0.7 -0.3,0.2 -0.6,0.3 -0.9,0.4 0.1,0 0.1,-0.1 0.2,-0.1 0.3,-0.1 0.6,-0.2 0.8,-0.3 0.2,-0.1 0.4,-0.3 0.7,-0.5 -0.4,0.1 -0.9,0.3 -1.3,0.4 -0.3,0.2 -0.4,0.2 -0.3,0.2 0.1,0 0.3,-0.1 0.5,-0.3 -0.1,0.1 -0.2,0.1 -0.2,0.1 z"
   id="path106"
   inkscape:connector-curvature="0"
   style="fill:#121212" />
					<path
   class="st1"
   d="m 120.3,10.9 v 0 c 0,0 0,0.1 0,0 z"
   id="path108"
   inkscape:connector-curvature="0"
   style="fill:#121212" />
					<path
   class="st1"
   d="m 111.5,30.3 h 0.1 c -0.1,-0.1 -0.1,0 -0.1,0 z"
   id="path110"
   inkscape:connector-curvature="0"
   style="fill:#121212" />
					<path
   class="st1"
   d="m 121.1,10.6 v 0 c 0,0 0,0 0,0 z"
   id="path112"
   inkscape:connector-curvature="0"
   style="fill:#121212" />
					<path
   class="st1"
   d="m 108.8,30.3 c 0,0 0,0 0,0 0,0 0,0 0,0 z"
   id="path114"
   inkscape:connector-curvature="0"
   style="fill:#121212" />
					<path
   class="st1"
   d="m 107.8,31.3 c 0,0 0,0.1 0,0 0.1,0.1 0.1,0.1 0,0 z"
   id="path116"
   inkscape:connector-curvature="0"
   style="fill:#121212" />
					<path
   class="st1"
   d="m 108.8,30.3 c 0,0 0,0 0,0 0,0 0,0 0,0 z"
   id="path118"
   inkscape:connector-curvature="0"
   style="fill:#121212" />
					<path
   class="st1"
   d="m 100.6,21 c 0,0 0,0 0,0.1 0,0 0,0 0,-0.1 z"
   id="path120"
   inkscape:connector-curvature="0"
   style="fill:#121212" />
					<path
   class="st1"
   d="m 101,23.7 c 0.1,0 0.1,0 0,0 z"
   id="path122"
   inkscape:connector-curvature="0"
   style="fill:#121212" />
					<path
   class="st1"
   d="m 107.2,4.4 c -0.1,0.1 -0.2,0.1 -0.3,0.2 0.1,0 0.2,-0.1 0.3,-0.2 z"
   id="path124"
   inkscape:connector-curvature="0"
   style="fill:#121212" />
					<path
   class="st1"
   d="m 108.8,30.3 c 0,0 0.1,0 0.1,0 0,0 -0.1,0 -0.1,0 z"
   id="path126"
   inkscape:connector-curvature="0"
   style="fill:#121212" />
					<path
   class="st1"
   d="m 100.5,16.8 c 0,0.1 0,0.1 0,0 z"
   id="path128"
   inkscape:connector-curvature="0"
   style="fill:#121212" />
					<path
   class="st1"
   d="m 100.8,15.4 c 0,0 0,0.1 0,0.1 0,-0.3 0.1,-0.6 0.2,-0.9 0.1,-0.3 0.2,-0.6 0.2,-0.6 0,0.1 -0.1,0.3 -0.2,0.6 -0.1,0.2 -0.1,0.4 -0.1,0.3 -0.1,0.3 -0.3,0.9 -0.3,1 0.2,-0.6 0.1,-0.1 0,0.3 -0.1,0.4 0,-0.1 -0.1,0.2 -0.1,0.3 -0.1,0.6 -0.1,0.8 0,-0.2 0.1,-0.5 0.1,-0.7 v 0.2 c 0,0 0,0 0,-0.1 0.1,-0.6 0.1,-0.6 0.2,-0.7 0,0.2 0,0.1 0.1,-0.5 z"
   id="path130"
   inkscape:connector-curvature="0"
   style="fill:#121212" />
					<path
   class="st1"
   d="m 100.8,15.5 c 0,0.1 0,0.1 0,0.2 0,-0.1 0,-0.1 0,-0.2 z"
   id="path132"
   inkscape:connector-curvature="0"
   style="fill:#121212" />
					<path
   class="st1"
   d="m 102.7,10.9 c 0,-0.1 0.1,-0.1 0.1,-0.2 0,0 0,0.1 -0.1,0.2 z"
   id="path134"
   inkscape:connector-curvature="0"
   style="fill:#121212" />
					<path
   class="st1"
   d="m 118.3,25.5 c 0,0 0,-0.1 0,0 v 0 c 0,0 0.1,0 0.2,0.1 l -0.2,-0.1 c 0,0.1 0,0.2 0,0.2 0,-0.1 0.1,-0.2 0.1,-0.3 l 0.1,0.1 z"
   id="path136"
   inkscape:connector-curvature="0"
   style="fill:#121212" />
					<path
   class="st1"
   d="m 113,2.5 c -0.1,0 -0.2,0 -0.2,0 0,0 0,0 0,0 0,0.1 0.1,0 0.2,0 z"
   id="path138"
   inkscape:connector-curvature="0"
   style="fill:#121212" />
					<path
   class="st1"
   d="m 100.9,14.6 c 0,0.1 0,0.2 0,0.2 0,0 0,-0.1 0,-0.2 z"
   id="path140"
   inkscape:connector-curvature="0"
   style="fill:#121212" />
					<path
   class="st1"
   d="m 113.1,2.6 c 0.1,0 0.3,0 0.3,0 0.2,0 0.3,-0.1 0.6,-0.1 -0.3,0 -0.6,0.1 -0.9,0.1 z"
   id="path142"
   inkscape:connector-curvature="0"
   style="fill:#121212" />
					<path
   class="st1"
   d="m 113.9,2.5 c 0,0 0,0 0,0 0,0 0,0 0,0 z"
   id="path144"
   inkscape:connector-curvature="0"
   style="fill:#121212" />
					<path
   class="st1"
   d="m 118,25.8 c 0,0.1 -0.1,0.1 -0.1,0.2 l 0.1,-0.2 c -0.2,0.2 -0.3,0.3 -0.4,0.4 0,0 -0.1,0.1 -0.1,0.2 0,0 0,0 0,-0.1 0,0 -0.1,0.1 -0.1,0.1 -0.1,0.2 -0.3,0.4 -0.6,0.7 -0.2,0.2 -0.5,0.4 -0.6,0.5 -0.3,0.2 -0.7,0.5 -0.9,0.6 0.2,-0.1 0.5,-0.3 0.4,-0.3 -0.2,0.1 -0.4,0.2 -0.7,0.3 -0.2,0.1 -0.5,0.2 -0.9,0.5 0.2,-0.1 0.3,-0.1 0.5,-0.2 -0.4,0.2 -0.7,0.4 -1.1,0.5 -0.2,0 -0.1,0 0.2,-0.1 0.2,-0.1 0.5,-0.2 0.6,-0.3 -0.4,0.2 -0.9,0.3 -1.3,0.4 -0.4,0.1 -0.7,0.1 -0.9,0.2 -0.1,-0.1 -0.2,-0.1 -0.8,-0.1 0.5,0.1 -0.4,0 0,0.1 -0.2,0 -0.7,-0.1 -0.7,0 h 0.1 c -0.5,-0.1 -0.9,-0.2 -1.2,-0.2 -0.3,0 -0.5,-0.1 -0.7,-0.1 -0.6,-0.2 -1.1,-0.4 -1.4,-0.7 -0.4,-0.2 -0.7,-0.5 -1.1,-0.9 0,-0.1 -0.2,-0.3 -0.4,-0.6 -0.1,-0.1 -0.3,-0.3 -0.5,-0.5 -0.2,-0.2 -0.3,-0.4 -0.4,-0.5 0.2,0.3 0.3,0.4 0.4,0.5 0.1,0.1 0.2,0.1 0.3,0.3 0.2,0.3 0,0.1 0.3,0.5 -0.1,-0.2 -0.5,-0.5 -0.8,-0.9 -0.3,-0.4 -0.5,-0.8 -0.6,-1 l 0.1,0.1 c -0.2,-0.3 -0.2,-0.5 -0.3,-0.8 -0.1,-0.3 -0.2,-0.6 -0.4,-1.1 -0.1,-0.2 -0.1,-0.4 -0.2,-0.5 0,0 0,0 0,0 -0.1,-0.5 -0.1,-0.6 -0.2,-0.8 0,-0.2 -0.1,-0.4 -0.2,-0.9 0,0.1 0,0 0,0.1 -0.1,-0.6 -0.2,-1.2 -0.2,-1.6 0,-0.3 0.1,0.1 0.1,0.2 0,-0.5 0,-1.1 -0.1,-1.6 0,-0.5 0,-0.9 0,-1.3 0,-0.2 0.1,-0.4 0.1,-0.7 0,0.4 0,0.9 0,0.8 0,-0.4 0,-0.3 0.1,-0.8 0,0.1 0,0.3 0,0.6 0.1,-0.5 0.1,-0.6 0.1,-0.6 0,0 0,0 0.1,-0.4 0.1,-0.3 0,-0.5 0,-0.6 0.1,-0.2 0.1,-0.4 0.2,-0.6 0,-0.1 0.1,-0.8 0.3,-1.3 0,-0.1 -0.2,0.4 -0.2,0.6 0,0 0.1,-0.6 0.2,-0.9 0.1,0 0.2,-0.6 0.4,-1 0.2,-0.5 0.3,-0.9 0.3,-0.6 0.3,-0.7 0.7,-1.6 1.1,-2.3 0.4,-0.8 0.9,-1.4 1.2,-1.8 0.2,-0.3 0.7,-0.8 0.4,-0.4 0.4,-0.5 0.7,-0.8 1,-1.2 0.3,-0.3 0.7,-0.6 1.2,-1 0.1,-0.1 -0.5,0.3 -0.4,0.3 0.3,-0.3 0.6,-0.5 1,-0.7 0.4,-0.2 0.8,-0.4 1.4,-0.7 -0.2,0.1 -0.2,0.1 -0.3,0.1 0,0 0.5,-0.2 0.8,-0.4 0.2,-0.1 -0.2,0.1 -0.1,0.1 1.1,-0.4 2.2,-0.5 3.3,-0.6 0.5,0 1.1,0 1.6,0.1 0.5,0.1 1.1,0.3 1.6,0.7 -0.3,-0.2 -0.5,-0.3 -0.7,-0.4 -0.1,-0.1 -0.2,-0.1 -0.2,0 0.2,0.1 0.4,0.2 0.6,0.3 0.1,0.1 0.3,0.2 0.4,0.3 0.2,0.1 0.3,0.3 0.5,0.5 0,0.1 0.1,0.2 0,0.1 0.2,0.3 0.3,0.6 0.4,0.8 0.1,0.3 0.2,0.5 0.2,0.8 0,0.3 0.1,0.6 0.1,0.9 0,0.3 -0.1,0.7 -0.2,1.1 0,-0.3 0.1,-0.7 0.1,-1 0,-0.3 0,-0.7 -0.1,-1 0,0.2 0,0.3 0,0.5 0,-0.3 -0.1,-0.6 -0.1,-0.8 0.1,0.5 0.1,0.9 0.1,1 0,-0.1 0,-0.4 0,-0.4 0,0.2 0,0.4 0,0.5 0,0.1 0,0.2 0,0.4 0,-0.5 0,-1.2 -0.2,-1.9 -0.1,-0.3 -0.3,-0.6 -0.5,-0.9 -0.2,-0.3 -0.4,-0.5 -0.6,-0.6 -0.1,-0.1 0.1,0.1 0.1,0.1 -0.2,-0.1 -0.3,-0.2 -0.4,-0.3 -0.1,-0.1 -0.3,-0.2 -0.6,-0.3 -0.3,-0.1 0.2,0.1 0.4,0.2 0,0 -0.2,0 -0.4,-0.1 0,0 -0.4,-0.2 -0.8,-0.3 -0.4,-0.1 -0.9,-0.1 -1.1,-0.2 -0.4,0 -0.6,0 -0.6,0 -0.1,0 0,0 0,0 0,0 0.1,0 0,0 -0.1,0 -0.2,0 -0.6,0 -0.1,0 -0.3,0 -0.4,0 -0.4,0.1 -0.9,0.2 -1.4,0.4 -0.5,0.2 -0.9,0.4 -1.4,0.6 0.1,0 0.1,-0.1 0.2,-0.1 0.1,-0.1 -0.1,0 -0.2,0 -0.7,0.3 -1.2,0.7 -1.6,0.9 -0.3,0.3 -0.7,0.6 -1.1,1.1 -0.4,0.4 -0.8,0.9 -1,1.3 -0.1,0.1 0.1,-0.2 0.3,-0.5 0.2,-0.3 0.6,-0.7 0.7,-0.8 -0.2,0.2 -0.4,0.4 -0.6,0.6 0.4,-0.4 0.5,-0.6 0.7,-0.8 -0.3,0.3 -0.4,0.5 -0.6,0.7 -0.2,0.2 -0.3,0.4 -0.5,0.7 0,-0.1 -0.1,0 -0.3,0.3 v 0.1 c 0,0 0,0 -0.1,0.1 -0.2,0.4 -0.5,0.7 -0.7,1.1 0.2,-0.2 0.2,-0.2 0.4,-0.5 -0.1,0.1 0.1,-0.2 0.2,-0.4 -0.1,0.3 0.2,-0.2 0.2,-0.2 -0.2,0.3 -0.4,0.6 -0.6,0.9 -0.2,0.3 -0.3,0.6 -0.4,0.8 l -0.1,0.1 c -0.3,0.6 -0.6,1.2 -0.8,1.6 v -0.1 c -0.3,0.7 -0.5,1.4 -0.8,2.1 -0.2,0.7 -0.3,1.5 -0.4,2.1 0,0.2 -0.1,0.6 -0.2,1.2 -0.1,0.6 -0.2,1.2 -0.1,1.5 0,0.1 0,-0.5 0,-0.8 -0.1,0.5 0,0.9 -0.1,1.1 0.1,-1.1 -0.1,0.1 0,-0.5 0,0.5 0,1.1 0,1.4 0,-0.9 0.1,0.3 0.1,-0.6 0,0.7 0.1,1.6 0.2,2.4 0,0 0,0.1 0,0.4 l 0.1,0.2 c 0.1,0.4 -0.2,-0.7 -0.1,0 0.1,0.4 0.2,0.9 0.4,1.5 0.2,0.5 0.3,0.9 0.5,1.1 0.1,0.3 0,0 -0.1,-0.2 -0.1,-0.2 -0.2,-0.4 -0.1,0 -0.2,-0.5 -0.4,-1.2 -0.5,-1.3 0.2,0.5 0,0.2 0.1,0.5 0.1,0.2 0.1,0.4 0.2,0.5 v -0.1 c 0.2,0.4 0.4,1 0.8,1.6 0.3,0.6 0.7,1.1 1.1,1.5 0.4,0.3 0.7,0.6 1.1,0.8 0.4,0.2 0.8,0.4 1.4,0.7 -0.2,-0.1 0.1,0.1 0.2,0.1 0.2,0.1 0.3,0.1 0,0 0.5,0.2 1.1,0.3 1.1,0.3 -0.2,-0.1 -0.3,-0.1 -0.3,-0.1 0,0 -0.1,0 -0.3,-0.1 0.1,0 0.4,0.1 0.6,0.1 0.2,0 0.4,0.1 0.6,0.1 -0.1,0 -0.1,0 -0.1,0 0.3,0 0.4,0 0.4,0 0.1,0 0.1,0 0.3,0 0.1,0 0.3,0 0.6,0 0.3,0 0.6,0 0.7,-0.1 0.2,0 0.4,-0.1 0.5,-0.2 -0.1,0.1 0,0 0.2,0 0.2,0 0.4,-0.1 0.4,-0.1 0.4,-0.2 0.7,-0.3 1.2,-0.6 -0.1,0.1 0,0 0.2,-0.1 0.2,-0.1 0.3,-0.2 0.4,-0.2 0.5,-0.3 0.8,-0.6 1.1,-0.9 0.3,-0.3 0.6,-0.6 0.9,-1 0,0 -0.1,0.2 0.1,0 0.1,-0.2 0.3,-0.4 0.4,-0.6 l 0.2,-0.3 0.4,0.1 c 0,0 0.1,0 0.1,0 v 0 c 0,0 0,0 0,0 0,0 0.1,0 0.1,0 l 0.4,0.1 -0.1,0.4 c 0,0.1 0,0.1 0,0.1 -0.1,0.2 -0.1,0.4 -0.2,0.6 -0.1,0.2 -0.2,0.5 -0.5,0.9 0,0 0.2,-0.2 0.3,-0.4 0.1,-0.2 0.3,-0.5 0.3,-0.7 0,-0.1 0,-0.2 0.1,-0.3 0,-0.1 0.1,-0.1 0.1,-0.2 l 0.2,-0.5 -0.5,-0.2 c -0.1,0 -0.2,-0.1 -0.2,-0.1 l -0.5,-0.2 -0.2,0.4 c -0.1,0.2 -0.2,0.3 -0.3,0.4 0.1,-0.1 0.1,-0.2 0.2,-0.4 l 0.2,-0.4 0.5,0.2 c 0.1,0 0.2,0.1 0.2,0.1 l 0.5,0.2 -0.2,0.6 c -0.1,0.4 -0.3,0.8 -0.5,1.1 -0.2,0.4 -0.4,0.7 -0.6,1 0.2,-0.2 0.4,-0.4 0.6,-0.8 0.2,-0.4 0.5,-0.8 0.6,-1.3 l 0.2,-0.7 -0.7,-0.3 c -0.1,0 -0.2,-0.1 -0.2,-0.1 l -0.6,-0.2 -0.4,0.5 c -0.1,0.1 -0.1,0.2 -0.2,0.3 0.1,-0.1 0.1,-0.2 0.2,-0.3 l 0.4,-0.5 0.5,0.2 h 0.1 -0.1 l -0.6,-0.2 -0.3,0.5 c -0.1,0.1 -0.2,0.2 -0.2,0.3 0.1,-0.1 0.2,-0.2 0.3,-0.3 l 0.4,-0.5 0.4,0.2 h 0.1 c 0,0 -0.1,0 -0.1,0 l -0.5,-0.2 -0.3,0.5 c -0.3,0.4 -0.5,0.7 -0.8,1 0.3,-0.4 0.5,-0.5 0.3,-0.3 -0.2,0.2 -0.3,0.3 -0.4,0.4 -0.1,0.1 -0.2,0.2 -0.3,0.4 0.2,-0.2 0.4,-0.4 0.3,-0.2 -0.3,0.3 -0.5,0.5 -0.7,0.6 -0.2,0.2 -0.4,0.3 -0.8,0.5 0.1,0 -0.1,0.1 -0.4,0.3 -0.2,0.1 -0.5,0.3 -0.5,0.3 0.1,-0.1 0.2,-0.1 0.3,-0.2 -0.2,0.1 -0.4,0.3 -0.7,0.4 -0.7,0.2 0.6,-0.3 -0.5,0.1 -0.5,0.2 -0.7,0.2 -0.9,0.3 -0.2,0.1 -0.4,0.1 -0.8,0.1 0.3,-0.1 0.8,-0.2 1.4,-0.4 -0.1,0 -0.2,0.1 -0.4,0.1 0.1,0 0.3,-0.1 0.6,-0.2 0.3,-0.1 0.6,-0.2 0.8,-0.3 -0.3,0.2 -0.2,0.1 0,0.1 0.2,-0.1 0.5,-0.3 0.6,-0.3 0,-0.1 -0.4,0.2 0.1,-0.1 -0.2,0.1 -0.3,0.2 -0.5,0.3 -0.1,0.1 -0.3,0.2 -0.6,0.3 0.6,-0.3 0.9,-0.5 1.1,-0.7 0.2,-0.2 0.4,-0.4 0.9,-0.7 -0.4,0.4 0.2,-0.1 0.3,-0.1 0.2,-0.2 0.6,-0.6 0.7,-0.7 l -0.2,0.1 c 0.3,-0.4 0.6,-0.6 0.8,-0.9 l 0.4,-0.5 0.6,0.2 c 0.1,0 0.2,0.1 0.2,0.1 l 0.7,0.3 -0.2,0.7 c 0,0.1 -0.1,0.2 -0.1,0.3 0,0.1 0.1,-0.1 0.1,-0.3 l 0.2,-0.7 -0.7,-0.3 c -0.1,0 -0.2,-0.1 -0.2,-0.1 l -0.6,-0.3 -0.4,0.6 c 0,0.1 -0.1,0.1 0,0.1 0,0 0,0 0,-0.1 l 0.4,-0.6 0.7,0.3 c 0.1,0 0.2,0.1 0.2,0.1 l 0.7,0.3 -0.2,0.8 c -0.2,0.5 -0.4,0.9 -0.6,1.2 -0.2,0.3 -0.5,0.6 -0.8,1 0,0.1 0,0.1 -0.2,0.4 0.1,-0.1 -0.2,0.1 0.1,-0.3 -0.3,0.3 -0.6,0.6 -0.8,0.9 0.3,-0.3 0.3,-0.2 0.1,0 -0.1,0.2 -0.4,0.4 -0.4,0.4 -0.3,0.3 0.1,-0.1 0.3,-0.3 -0.3,0.2 -0.6,0.4 -0.7,0.6 0,0 0.2,-0.2 0.4,-0.4 0.2,-0.2 0.5,-0.5 0.7,-0.7 -0.1,0.1 -0.2,0.2 -0.3,0.3 0.2,-0.2 0.2,-0.2 0.5,-0.5 -0.3,0.3 -0.3,0.2 -0.3,0.1 0,0 0,0 0,0 0.2,-0.2 0.4,-0.4 0.3,-0.4 0.1,-0.1 0,-0.1 -0.1,0.1 -0.1,0.1 -0.3,0.3 -0.4,0.4 -0.1,0.1 -0.2,0.2 -0.4,0.3 -0.4,0.4 -0.8,0.8 -1.3,1.2 -0.3,0.2 -0.5,0.3 -0.8,0.4 -0.2,0.1 -0.4,0.2 -0.7,0.3 l -0.1,0.1 c -0.6,0.2 -1.2,0.4 -0.8,0.2 0,0 0.1,0 0.2,-0.1 0,0 0,0 0.1,0 0,0 0,0 0,0 -0.6,0.3 -1.1,0.4 -1.1,0.4 0.6,-0.2 0.6,-0.2 0.4,-0.2 -0.1,0 -0.3,0 -0.3,0 -0.4,0.1 -0.7,0.2 -1.1,0.3 0.7,-0.1 0,0.1 -0.2,0.1 0,0 -0.3,0 -0.6,0 -0.3,0 -0.6,0 -0.8,0 v 0 c -0.4,0 -1,-0.1 -1.5,-0.1 0,0 -0.6,0 -0.9,0 0.8,0.2 0.3,0.1 0.4,0.2 -0.1,0 -0.2,-0.1 -0.3,-0.1 -0.1,0 0.2,0.1 0.2,0.1 0.9,0.2 1.8,0.2 2.1,0.1 -0.3,0 -0.5,0 -0.7,0 0.2,0 0.5,0 0.7,0 0.1,0 0.3,0 0.4,0 0.2,0 0.3,0 0.5,0 h 0.2 c 0.2,0 0.5,-0.1 0.7,-0.1 -0.1,0 -0.2,0.1 -0.3,0.1 -0.1,0 -0.2,0.1 -0.6,0.1 0.1,0 0.2,0 0.5,0 0.2,0 0.5,-0.1 0.8,-0.1 0.1,0 0.1,-0.1 0.2,-0.1 -0.1,0.1 0.9,-0.2 0.2,0 -0.4,0.1 -0.8,0.2 -1.2,0.3 0.1,0 0.2,0 0.3,0 -0.3,0.1 -0.7,0.1 -1,0.1 0.1,0 0.2,0 0.2,0 -0.4,0 -0.6,0 -0.8,0 -0.1,0 -0.2,0 -0.3,0 -0.1,0 -0.1,0 -0.3,0 -0.1,0 -0.4,0 -0.8,0 -0.2,0 -0.5,0 -0.8,-0.1 -0.3,0 -0.7,-0.1 -1.2,-0.3 0.7,0.2 0.1,0 0.4,0 -0.3,-0.1 -0.6,-0.2 -0.8,-0.2 -0.2,-0.1 -0.3,-0.1 -0.5,-0.1 -0.1,-0.1 -0.1,-0.1 -0.1,-0.1 0,0 0.1,0 0.4,0.2 0.1,0 -0.1,-0.1 -0.4,-0.2 -0.2,-0.1 -0.4,-0.2 -0.4,-0.2 -0.5,-0.2 -0.8,-0.4 -1.1,-0.6 -0.3,-0.1 -0.5,-0.3 -0.7,-0.4 -0.2,-0.1 -0.4,-0.3 -0.7,-0.5 -0.3,-0.2 -0.6,-0.5 -1,-1.1 l 0.1,0.1 c -0.5,-0.6 -0.8,-1.1 -1.1,-1.7 -0.3,-0.5 -0.5,-1.1 -0.8,-1.7 -0.1,-0.4 -0.2,-0.7 -0.3,-1.1 0.1,0.2 0.3,0.9 0.3,0.6 0.1,0.5 0.3,1.1 0.5,1.6 0,0 0,-0.2 -0.1,-0.3 0.1,0.3 0.2,0.5 0.4,0.9 0,0 -0.2,-0.5 0,-0.2 0.1,0.2 0.2,0.4 0.3,0.6 0.2,0.4 0.3,0.4 0.4,0.5 0.1,0.1 0.2,0.2 0.5,0.6 -0.2,-0.1 -0.4,-0.4 -0.7,-0.7 0.1,0.2 0,0.1 -0.1,-0.1 -0.1,-0.1 -0.2,-0.3 -0.1,-0.1 0.2,0.3 0.4,0.5 0.5,0.7 0.2,0.2 0.4,0.5 0.7,0.8 -0.1,-0.1 -0.1,-0.1 -0.3,-0.2 0.3,0.3 0.6,0.7 0.9,0.9 -0.1,-0.1 0.1,0.1 0.3,0.2 0.2,0.2 0.5,0.3 0.5,0.3 -0.3,-0.2 -0.5,-0.4 -0.6,-0.5 -0.1,-0.1 -0.2,-0.2 -0.3,-0.3 -0.1,-0.1 -0.2,-0.2 -0.3,-0.3 -0.1,-0.1 -0.3,-0.3 -0.6,-0.7 0.3,0.3 0.7,0.7 1,0.8 0,0 0,0 0.1,0.1 0.2,0.1 0,-0.1 0.1,-0.1 -0.3,-0.2 -0.5,-0.4 -0.7,-0.6 -0.2,-0.2 -0.4,-0.5 -0.7,-0.8 -0.1,0 0,0.1 0.1,0.2 0.1,0.2 0.3,0.4 0.4,0.5 -0.2,-0.2 -0.3,-0.4 -0.5,-0.6 l 0.1,0.1 c -0.4,-0.5 -0.7,-1 -1,-1.6 0.2,0.3 0.3,0.4 0.4,0.5 -0.1,-0.2 -0.2,-0.4 -0.3,-0.6 0,0.1 -0.1,0.1 -0.2,-0.1 -0.3,-0.5 -0.4,-1 -0.5,-1.3 -0.1,-0.4 -0.2,-0.6 -0.2,-0.8 0,0 0,-0.1 0,-0.1 0,0.1 -0.1,-0.1 -0.2,-0.4 -0.1,-0.3 -0.2,-0.6 -0.2,-0.8 0.1,0 -0.1,-0.6 -0.1,-0.9 -0.1,-0.2 -0.1,0.1 -0.1,0.5 0.2,0.8 0.1,0.4 0.3,0.8 0.1,0.4 0.2,0.8 0.4,1.2 l -0.1,-0.3 c 0.2,0.6 0.5,1.2 0.4,1.2 -0.2,-0.3 -0.3,-0.8 -0.5,-1.2 0,0.1 0.1,0.3 0.1,0.4 -0.1,-0.4 -0.2,-0.5 -0.2,-0.6 0,-0.1 0,-0.3 -0.2,-0.7 0,0.3 0,-0.1 -0.1,-0.5 0,0.2 0.1,0.6 0.2,0.9 0.1,0.3 0.1,0.6 0.1,0.5 -0.1,-0.2 -0.2,-0.6 -0.2,-1 C 99,22.1 99,21.7 98.9,21.3 v 0 c -0.1,-0.9 -0.1,-1.2 -0.2,-1.6 0,-0.4 0,-0.9 0,-1.4 v 0 c 0,-0.2 0,-0.4 0,-0.6 0,0.3 -0.1,0.7 -0.1,1.2 l 0.1,-0.1 c -0.1,0.6 0,1 0.1,1.5 0,-0.3 -0.1,-0.8 -0.1,-1.2 0,-0.4 0,-0.8 0,-0.8 0,-0.1 0.1,-0.3 0.1,-0.4 v -0.2 c 0.1,-0.3 0.1,0 0.1,0.6 0,0.1 0,0.2 0,0.1 0,0.3 0,0.5 0,1.2 0,-0.1 0,-0.2 0,-0.4 0,0.8 0.1,1.6 0.2,1.9 C 99,19.9 99,18.7 99.1,17.6 99,17.3 99,16.9 98.9,16.7 99,15.9 99.2,14.9 99.4,14.3 v 0.1 c 0.1,-0.3 0.2,-0.6 0.3,-0.8 0.1,-0.3 0,0.2 0.1,0 0.1,-0.3 0.2,-0.7 0.3,-1 0,0 -0.1,0.3 -0.2,0.5 -0.1,0.3 -0.2,0.6 -0.3,0.8 0,-0.1 0.1,-0.2 0,-0.2 -0.1,0.2 -0.2,0.6 -0.3,0.9 -0.1,0.3 -0.1,0.6 -0.2,0.7 0,0.2 0.1,-0.5 -0.1,0.3 -0.1,0.5 -0.1,0.7 -0.1,0.8 0,0 0.2,-0.9 0.2,-0.5 0.1,-0.4 0.1,-0.6 0.3,-1.1 -0.1,0.4 -0.2,1 -0.3,1.2 -0.1,0.4 0,0.6 0,0.6 0,0 0.1,-0.1 0.1,-0.3 0,0 0,-0.3 0.1,-0.6 0,-0.3 0.1,-0.4 -0.1,0.1 0,-0.5 0.3,-1.4 0.4,-2 v 0 c 0.1,-0.3 0.2,-0.5 0.3,-0.8 0,0.1 -0.1,0.3 -0.1,0.4 0.1,-0.4 0.2,-0.7 0.3,-1.1 -0.2,0.6 0.2,-0.4 0.3,-0.6 0,-0.1 0.2,-0.5 0,-0.2 -0.2,0.4 -0.1,0.3 -0.3,0.7 0.1,-0.2 0.1,-0.4 0.2,-0.6 v 0 l 0.1,-0.4 c 0.4,-0.8 -0.1,0.4 0.4,-0.6 l -0.1,0.1 c 0.3,-0.6 0.7,-1.2 1,-1.7 0.4,-0.6 0.7,-1 1,-1.4 -0.1,0.2 -0.1,0.3 0.1,0.1 -0.2,0.3 -0.7,0.9 -0.9,1.4 -0.1,0.1 0.3,-0.6 0.6,-1.1 -0.1,0.1 -0.3,0.4 -0.5,0.7 -0.2,0.3 -0.3,0.6 -0.4,0.6 -0.4,0.6 -0.5,0.9 -0.6,1.1 -0.1,0.2 -0.2,0.4 -0.5,1 0,0 -0.1,0.3 -0.1,0.4 0.1,-0.2 0.3,-0.5 0.5,-1 0.2,-0.4 0.5,-0.9 0.7,-1.2 0,0.1 -0.1,0.2 -0.1,0.2 0.3,-0.5 0.4,-0.7 0.6,-1.1 v 0 c 0.4,-0.6 0.3,-0.3 0.5,-0.7 0.1,-0.1 0.5,-0.6 0.4,-0.5 0.2,-0.2 0.3,-0.4 0.5,-0.6 h -0.1 c 0.3,-0.3 0.4,-0.4 0.6,-0.7 V 6.1 c -0.2,0.3 -0.5,0.5 -0.7,0.8 0.3,-0.4 0.1,-0.2 0.4,-0.6 -0.2,0.3 -0.1,0.2 0,0 0.1,-0.2 0.4,-0.4 0.4,-0.4 0.1,-0.1 0.2,-0.2 0.3,-0.3 l -0.1,0.1 c 0.3,-0.2 0.3,-0.3 0.6,-0.6 -0.4,0.3 -0.6,0.5 -1,1 0.3,-0.3 0.9,-1 1.1,-1.1 0.3,-0.3 0.6,-0.5 1,-0.8 -0.3,0.3 -0.2,0.3 -0.2,0.3 0,0.1 -0.1,0.1 -0.7,0.7 0,0 0.1,-0.1 0.2,-0.1 -0.1,0 -0.3,0.2 -0.5,0.4 -0.2,0.2 -0.4,0.4 -0.5,0.6 0.1,0 -0.2,0.2 0.3,-0.2 -0.2,0.1 0.3,-0.4 0.8,-0.8 v 0.1 c 0.2,-0.2 0.4,-0.4 0.7,-0.6 L 106,4.7 c 0.3,-0.2 0.7,-0.6 1.3,-0.9 0.2,-0.1 0.6,-0.4 1,-0.6 0.3,-0.2 0.5,-0.3 0.2,-0.2 0.5,-0.2 0.9,-0.5 1.5,-0.7 -0.2,0.1 -0.5,0.2 -0.7,0.2 0.4,-0.2 0.5,-0.3 0.7,-0.3 0.1,-0.1 0.2,-0.1 0.6,-0.3 0.1,0 0.2,0 0.1,0 0.6,-0.2 1.3,-0.3 1.9,-0.4 0.7,-0.1 1.3,-0.1 1.6,-0.2 0.4,0 0.7,0 1,0.1 0.3,0 0.6,0.1 1.2,0.1 0.1,0 0.1,0 0.1,0 0,0 0.1,0 0.5,0.1 0.1,0 -0.8,-0.1 0.1,0.1 0.6,0.1 1.4,0.4 2.2,0.8 0.2,0.1 0.4,0.3 0.6,0.4 0.2,0.1 0.3,0.3 0.2,0.2 -0.3,-0.2 -0.6,-0.5 -0.9,-0.7 -0.3,-0.2 -0.6,-0.3 -0.6,-0.3 0.1,0 -0.4,-0.2 0,0 -0.5,-0.2 -0.6,-0.3 -0.8,-0.3 -0.2,0 -0.3,-0.1 -0.7,-0.2 -0.1,0 0.5,0.2 0.6,0.2 0,0 -0.4,-0.1 -0.8,-0.1 -0.3,-0.1 -0.6,-0.1 -0.2,0 0.5,0.1 0.8,0.1 1.1,0.2 0.3,0.1 0.6,0.1 1,0.4 -0.3,-0.1 -0.8,-0.3 -1.3,-0.4 0.2,0.1 0.4,0.2 0.7,0.2 0.2,0 0.3,0.1 0.5,0.1 v 0 c 0.5,0.3 0.8,0.4 1,0.6 0.2,0.1 0.5,0.3 0.9,0.7 -0.2,-0.3 -0.2,-0.3 -0.1,-0.2 0.1,0 0.1,0.1 0,-0.1 0.6,0.6 0.9,1.1 0.8,1.1 -0.2,-0.3 -0.3,-0.4 -0.4,-0.5 -0.1,-0.1 -0.1,-0.1 -0.1,-0.1 0,0 0,0 -0.1,0 -0.1,-0.1 -0.2,-0.2 -0.4,-0.4 0.1,0.1 0,0 0,0.1 0,0 0,0.1 0.3,0.4 0.3,0.3 0.3,0.3 0.2,0.2 0,-0.1 -0.1,-0.1 0.2,0.2 0,0 0,0.1 0,0.1 0.1,0.2 0.2,0.3 0.2,0.4 0.1,0.1 0.1,0.2 0.2,0.5 l 0.6,0.2 c 0.1,0.3 0.2,0.4 0.2,0.6 0.1,0.1 0.1,0.3 0.1,0.5 0,-0.1 0,0 0.1,0.1 0,0.2 0.1,0.4 0.1,0.5 0,-0.3 0,-0.5 0,-0.7 0,-0.3 -0.1,-0.6 -0.3,-1.1 0,-0.1 -0.1,-0.1 -0.1,-0.1 0,0 -0.1,-0.1 -0.2,-0.3 0.1,0.2 0.2,0.4 0.3,0.6 -0.1,-0.1 -0.1,-0.2 -0.2,-0.4 -0.1,-0.2 -0.2,-0.4 -0.3,-0.6 0.2,0.3 0.3,0.4 0.3,0.5 0,0 0.1,0 0.2,0.2 0.1,0.4 0.2,0.5 0.2,0.6 0,0.1 0.1,0.2 0.1,0.4 0,0 0,0.3 0,0.8 0,0.2 0,0.5 0,0.7 0,0.3 -0.1,0.5 -0.1,0.7 0,0 0,0 0,0 0,0 0,0 0,0 0,0 0,0 0,0 v 0 0 c 0,0 0,0 0,0 0,-0.1 0,-0.3 0.1,-0.3 0,-0.5 0,0.1 -0.1,0.3 0,0 0,0 0,0 0,0 0,0 0,0 0,0 0,0.1 0,0.1 0,0.2 0,0.3 -0.1,0.5 0,-0.1 0,-0.2 0,0 -0.1,0.3 -0.1,0.4 -0.2,0.6 0,0.1 -0.1,0.3 -0.3,0.6 0,0 0,-0.1 0,-0.2 0,-0.1 0,-0.1 -0.1,0 0,0 -0.1,0.2 -0.3,0.3 -0.2,0.2 -0.4,0.4 -0.7,0.7 0,0 -0.2,0.2 -0.4,0.3 0,0 0.1,0 0.1,-0.1 l -0.2,0.1 -0.2,0.1 c 0.2,-0.1 0.4,-0.2 0.6,-0.4 0.2,-0.1 0.4,-0.3 0.5,-0.5 v -0.1 c 0.1,-0.1 0.3,-0.3 0.4,-0.4 0.1,-0.2 0.2,-0.3 0.2,-0.4 -0.1,0.2 -0.2,0.4 -0.3,0.5 -0.1,0.1 -0.2,0.3 -0.4,0.5 -0.1,0 0.2,-0.3 0.2,-0.3 v 0.1 c 0.3,-0.2 0.4,-0.5 0.5,-0.7 0.1,-0.3 0.2,-0.5 0.4,-1 0,-0.1 0,0 0,0 0,-0.1 0,-0.2 0,-0.3 v 0 c 0,0 0,0 0,0 0.1,-0.6 0.1,-1.1 0,-1.7 0,0.1 0,0.1 0.1,0.2 0,-0.2 -0.1,-0.6 -0.2,-0.9 -0.1,-0.4 -0.3,-0.8 -0.6,-1.1 v 0 c 0,0.1 -0.1,-0.2 -0.2,-0.3 v 0 c -0.3,-0.3 -0.6,-0.6 -0.9,-0.8 0.1,0.1 0.2,0.2 0.3,0.3 0.1,0 0.2,0.2 0.4,0.3 0.1,0.1 0.2,0.3 0.2,0.2 0.1,0.2 0.2,0.4 0.3,0.6 0.1,0.2 0.2,0.4 0.2,0.5 -0.1,-0.2 0,-0.2 0,0 0.1,0.1 0.1,0.4 0.2,0.4 0,0.1 0,0.3 0.1,0.4 0,0.2 0,0.3 0,0.3 0,0.1 0,-0.2 -0.1,-0.5 -0.1,-0.2 0,0 0,0.2 0,0.2 0,0.4 0,0.1 0.1,0.3 0.1,0.5 0.1,0.9 0,0.3 0,0.6 -0.1,0.9 v 0 0 c 0,0.3 -0.1,0.6 -0.2,0.9 0.1,-0.1 0.1,-0.3 0.2,-0.4 -0.1,0.2 -0.2,0.5 -0.3,0.7 -0.1,0.2 -0.3,0.4 -0.3,0.5 0.2,-0.2 0.3,-0.5 0.5,-0.8 0,0 -0.1,0.2 -0.2,0.4 -0.1,0.2 -0.2,0.4 -0.3,0.4 -0.2,0.3 -0.4,0.6 -0.7,0.8 0.1,-0.1 0.2,-0.2 0.3,-0.3 -0.1,0.1 -0.3,0.3 -0.6,0.5 -0.3,0.2 -0.7,0.4 -1,0.5 0.2,-0.1 0.4,-0.2 0.7,-0.3 0.3,-0.1 0.6,-0.3 0.8,-0.6 0.2,-0.2 0.1,-0.2 0,-0.1 0,0 -0.1,0 -0.1,0 0,0 0,0 0.1,-0.1 -0.1,0.1 -0.3,0.3 -0.5,0.4 l -0.2,0.1 c 0.2,-0.1 0.4,-0.4 0.7,-0.7 0.2,-0.3 0.4,-0.6 0.5,-0.9 0,0.1 0,0.1 0,0.1 0.2,-0.3 0.3,-0.6 0.3,-0.9 v 0 0 c 0,-0.2 0,-0.3 0.1,-0.4 0,0.2 -0.1,0.3 -0.1,0.4 0,0 0,0 0,0 0,0 0,0 0,0 0,0 0,0 0,0 0,0 0,0 0,0 0,0 0,0 0,0 0,0 0,0 0,0 0,-0.1 0,-0.4 0,-0.5 -0.1,0.4 0,0.1 -0.1,0.4 0,-0.3 0,-0.5 0,-0.9 0,-0.2 0,0.2 0.1,0.1 0,-0.2 0,-0.3 0,-0.5 0,-0.2 0,-0.3 -0.1,-0.6 0.1,0.4 0,0.3 0,0.2 0,-0.2 -0.1,-0.4 -0.2,-0.5 0,0 0,0.1 0,0.1 -0.1,-0.2 -0.2,-0.4 -0.2,-0.5 0.1,0.3 0.2,0.5 0.2,0.4 -0.1,-0.2 -0.1,-0.4 -0.2,-0.5 0,0.1 0.1,0.1 0.1,0.2 -0.1,-0.3 -0.3,-0.6 -0.5,-0.8 -0.1,-0.1 -0.3,-0.3 -0.4,-0.3 -0.1,-0.2 -0.4,-0.4 -0.6,-0.5 h 0.1 c -0.2,-0.1 -0.4,-0.3 -0.7,-0.5 -0.3,-0.1 -0.5,-0.2 -0.6,-0.2 -0.1,-0.1 0.4,0.1 0.7,0.2 0.1,0.1 0.2,0.1 0.2,0 -0.1,0 -0.3,-0.2 -0.8,-0.4 -0.4,-0.2 -0.5,-0.2 -0.6,-0.2 -0.1,0 -0.1,0 -0.4,0 0,0 0,0 0,0 C 117.3,3 117.3,3.1 117,3 c 0.2,0 0.5,0.1 0.6,0.1 -0.1,0 -0.2,0 -0.4,-0.1 -0.2,0 -0.4,-0.1 -0.6,-0.1 0.2,0 0,0 -0.2,-0.1 -0.2,0 -0.4,0 -0.2,0 -0.7,-0.1 -1.5,0 -1.9,0.1 -0.5,0 -0.9,0.1 -1.7,0.2 0.1,0 0.3,-0.1 0.5,-0.1 0.2,-0.1 0,0 -0.2,0 -0.2,0 -0.3,0.1 0,0 -0.1,0 0,0 0.1,0 0.3,-0.1 0.5,-0.1 0.5,-0.1 -0.2,0 -0.4,0 -0.7,0.1 L 113,2.9 c -0.3,0 -0.7,0.1 -1,0.2 0,0 0.1,0 0.1,0 -1.2,0.3 -2.4,0.9 -3.3,1.4 0,0.1 -0.6,0.4 -1.2,0.9 -0.6,0.4 -1.2,1 -1.4,1.3 0.1,-0.2 0.2,-0.3 0.1,-0.2 0.1,-0.1 0.4,-0.4 0.7,-0.7 0.1,0 0.5,-0.3 0.2,-0.1 0.9,-0.7 -0.2,0 0.1,-0.2 -0.5,0.4 -0.9,0.8 -1.2,1.1 -0.3,0.3 -0.6,0.6 -0.8,1 v 0 c -0.1,0.2 -0.3,0.3 -0.4,0.5 0.3,-0.4 0.4,-0.3 -0.1,0.2 V 8.2 c -0.3,0.3 -0.7,0.9 -1,1.4 l -0.2,0.4 c -0.3,0.5 -0.4,0.5 -0.5,0.6 -0.5,0.8 -0.6,1.3 -0.9,1.9 -0.1,0.1 -0.3,0.5 -0.4,0.8 -0.1,0.3 -0.2,0.4 -0.1,0.1 -0.1,0.4 -0.1,0.6 -0.2,0.8 0,0.2 -0.1,0.5 -0.4,1.2 l 0.1,-0.4 c -0.2,0.6 -0.4,1.5 -0.5,2.2 -0.1,0.7 -0.2,1.4 -0.2,1.7 0,-0.3 -0.1,0.2 -0.2,0.7 0,0.5 0,1.1 -0.1,1.3 0,-0.1 0.1,0.4 0.1,0.5 0,0.1 0,0.3 0.1,0.5 0,-0.3 0,-0.2 0.1,-0.1 0,0 0,0 0,-0.5 0.1,0.2 0.1,0.5 0.2,0.9 0.1,0.4 0.2,0.8 0.3,1.3 h -0.1 c -0.1,-0.3 -0.1,-0.6 -0.2,-0.9 0,0.1 -0.1,-0.4 -0.1,-0.5 0.1,0.8 0.1,0.8 0.1,0.7 0,0 0,0 0,0 0,0.1 0,0.3 0.2,0.7 0.1,0.1 0,0.1 0.2,0.5 -0.1,-0.2 -0.1,-0.2 0,0.1 0,0.1 0.1,0.2 0.1,0.3 0.1,0.3 0,0.1 -0.1,-0.2 C 101,24 100.9,23.7 101,24 c -0.1,-0.3 -0.2,-0.7 -0.3,-1.1 -0.1,-0.3 -0.1,-0.6 -0.2,-0.4 0.1,0.5 0.2,0.8 0.3,1 0.1,0.2 0.2,0.5 0.4,1 v 0.1 c 0.2,0.4 0.2,0.4 0.3,0.6 0,0 0,0.1 0.1,0.4 0.3,0.6 0.6,0.9 1,1.4 -0.5,-0.7 -0.6,-1 -0.7,-1.3 -0.1,-0.3 -0.3,-0.6 -0.6,-1.4 0.1,0.1 0.2,0.5 0.3,0.8 0.1,0.3 0.3,0.6 0.3,0.6 h -0.1 c 0.3,0.5 0.5,0.9 0.9,1.5 -0.1,-0.1 -0.2,-0.2 -0.3,-0.3 0.3,0.4 0.5,0.7 0.7,0.9 0.2,0.3 0.4,0.5 0.7,0.7 -0.2,-0.2 -0.3,-0.3 -0.4,-0.4 0.3,0.3 0.7,0.7 1.1,1 0.3,0.2 0.6,0.3 0.9,0.5 0,0 0.5,0.3 0.2,0.2 0.3,0.2 0.6,0.3 0.8,0.4 0.2,0.1 0.4,0.1 0.6,0.2 0.3,0.1 0.2,0.1 -0.1,0 -0.3,-0.1 -0.6,-0.2 -0.7,-0.2 0.5,0.2 1,0.4 1.5,0.5 0.5,0.1 0.9,0.1 1.2,0.1 -0.2,0 -0.3,-0.1 -0.3,-0.1 0,0 0.4,0.1 0.7,0.1 h 0.2 c 0.4,0 0.3,0.1 0,0.1 0.2,0 0.4,0 0.6,0 0.2,0 0.4,0 0.6,0 -0.2,0 -0.3,0 -0.5,0 -0.2,0 -0.3,0 -0.5,0 -0.3,0 -0.6,0 -0.8,0 0.7,0 1,0.1 1.4,0.1 0.4,0 0.8,0 1.6,-0.2 0,0 -0.2,0.1 0.1,0 0.7,-0.2 0.2,-0.1 0.4,-0.2 -0.5,0.2 -0.8,0.2 -1.1,0.2 l 0.1,-0.1 c 0,0 0.4,-0.1 0.5,-0.1 l 0.1,-0.1 c 0,0.1 0.5,0 1,-0.2 -0.5,0.1 -0.3,0.1 -0.5,0 0.3,-0.1 0.5,-0.2 0.6,-0.2 0.2,-0.1 0.4,-0.1 0.7,-0.3 0,0 -0.6,0.3 -0.1,0.1 0.4,-0.2 0.3,-0.2 0.6,-0.4 -0.3,0.2 -0.2,0.2 -0.5,0.4 -0.4,0.2 -0.4,0.2 -0.5,0.2 -0.1,0 -0.1,0.1 -0.5,0.2 0.2,-0.1 0.4,-0.1 0.6,-0.2 -0.3,0.1 -0.4,0.2 -0.5,0.2 0,0 0,0 0,0.1 0.6,-0.2 0.8,-0.3 0.9,-0.4 0.1,-0.1 0.2,-0.2 0.6,-0.4 0.1,-0.1 0,0 -0.1,0.1 -0.1,0.1 -0.2,0.1 0,0 0.3,-0.2 0.3,-0.2 0.4,-0.2 0,0 0.1,-0.1 0.4,-0.3 l -0.1,0.1 c 0.2,-0.1 0.4,-0.3 0.6,-0.4 0.1,-0.1 0,-0.1 0,-0.1 0,-0.1 0.1,-0.2 0.5,-0.6 0,0.1 0,0.1 0,0.1 -0.2,0.4 -0.4,0.8 -0.7,1.1 0.5,-0.4 1.1,-0.8 1.6,-1.4 0.5,-0.5 0.9,-1.2 1.2,-1.8 0.1,-0.1 0,0.1 -0.1,0.4 -0.1,0.3 -0.3,0.6 -0.3,0.5 -0.1,0.2 -0.3,0.4 -0.4,0.6 0,0 0.2,-0.3 0.4,-0.6 0.1,-0.2 0.2,-0.4 0,-0.2 -0.3,0.5 -0.6,0.9 -0.9,1.2 -0.3,0.3 -0.6,0.6 -1,1 0.2,-0.1 0.5,-0.3 0.8,-0.6 0.3,-0.3 0.6,-0.7 0.9,-1 -0.2,0.3 -0.4,0.5 -0.5,0.7 0.5,-0.5 1,-1.1 1.3,-1.9 0,-0.1 0,-0.1 0.1,-0.2 -0.2,0.5 -0.4,0.8 -0.5,0.9 0.3,-0.5 0.4,-0.9 0.5,-1.1 v 0 c -0.1,0 -0.1,0 -0.2,0 l 0.1,0.1 -0.2,-0.1 h 0.1 v 0 c -0.1,-0.4 -0.2,-0.2 -0.3,-0.1 z m 0,-22 c 0,0 -0.1,0 -0.1,0 0.1,0 0,0 0.1,0 z m -10.8,26.8 c 0.9,0.3 1.9,0.4 2.9,0.4 -0.9,-0.1 -1.6,-0.2 -1.7,-0.3 -0.1,0 0,0 0.2,0 0.3,0 0.7,0.1 1.4,0.1 h 0.2 c -0.4,0 -1,0 -1.6,-0.1 -0.2,0 -0.7,0 -1.2,-0.1 -0.2,0 -0.4,-0.1 -0.6,-0.1 -0.2,0 -0.2,-0.1 -0.2,0 0.2,0.1 0.4,0.1 0.7,0.2 z m -0.6,-0.4 c -0.5,-0.2 -0.4,-0.1 -0.5,-0.2 0.2,0.1 0.4,0.2 0.5,0.2 0,0 0,0 0,0 z m -0.4,-0.1 c 0.1,0 0.1,0 0.1,0.1 z m 10,-1.5 c 0,0 0,0 0,0 0.1,0 0.2,-0.1 0.3,-0.2 -0.1,0 -0.1,0.1 -0.3,0.2 z m -0.9,0.6 -0.1,0.1 c 0.1,-0.1 0.2,-0.1 0.3,-0.2 0,0 -0.1,0 -0.2,0.1 z m -3.3,1.3 c -0.1,0.1 -0.3,0.1 -0.5,0.2 -0.2,0.1 -0.4,0.1 -0.4,0.1 0,0 0.1,0 0.3,0 0.2,0 0.4,-0.1 0.6,-0.1 0,0 0,0 0.1,-0.1 -0.2,0 -0.4,0.1 -0.3,0 0.3,0 0.4,-0.1 0.5,-0.1 0.1,-0.1 0.2,-0.1 0.5,-0.2 0.1,-0.1 -0.1,0 -0.3,0.1 -0.2,0 -0.4,0.1 -0.5,0.1 z M 118.9,3 c 0,0 0.1,0 0.1,0.1 -0.1,0 -0.3,-0.1 -0.4,-0.1 -0.7,-0.3 -1.3,-0.5 -2,-0.5 -0.3,-0.1 -0.5,-0.1 -0.7,-0.2 0.2,0 0.3,0 0.4,0 0.5,0 0.8,0.1 1,0.1 0.2,0 0.3,0.1 0.4,0.1 0.1,0 0.2,0.1 0.3,0.1 0.3,0.3 0.5,0.3 0.9,0.4 z m -8.8,0.4 c 0.1,0 0.1,-0.1 0,0 -1.5,0.7 -2.6,1.6 -3.3,2.2 0.1,0 0.3,-0.2 0.5,-0.3 0.2,-0.2 0.5,-0.3 0.7,-0.4 -0.1,0.1 -0.2,0.2 -0.3,0.2 l -0.2,0.1 c -0.2,0.1 -0.3,0.3 -0.4,0.4 0.2,-0.1 0.5,-0.4 0.8,-0.5 0,0 0.2,-0.2 0.5,-0.4 0.2,-0.2 0.5,-0.4 0.6,-0.5 -0.3,0.1 -0.5,0.3 -0.7,0.4 0.1,-0.1 0.4,-0.2 0.7,-0.4 0.3,-0.2 0.7,-0.4 0.9,-0.5 0,0 -0.2,0.1 -0.4,0.1 -0.2,0.1 -0.4,0.2 -0.4,0.2 -0.1,0 0.7,-0.4 0.2,-0.2 0.3,-0.2 0.7,-0.4 1.1,-0.5 0.4,-0.2 0.7,-0.3 1,-0.3 h 0.1 c 0.3,-0.1 0.3,-0.1 0.4,-0.2 0.1,0 0.2,-0.1 0.5,-0.2 -0.8,0.2 0.1,0 -0.5,0.2 0.2,0 0,0.1 0.6,-0.1 0.5,-0.2 0.6,-0.1 1.1,-0.2 0.3,0 -0.3,0.1 0.3,0 0.7,-0.1 0.7,-0.1 0.7,-0.2 -0.3,0 -0.5,0.1 -0.7,0.1 -0.2,0 -0.3,0.1 -0.6,0.1 0.4,-0.1 0.7,-0.2 1.1,-0.2 -0.2,0 -0.4,0 -0.5,0 0.2,0 0.4,-0.1 0.6,-0.1 0.1,0 0.2,0 0.3,0 -0.6,0 -1.2,0.1 -1.3,0.1 h 0.1 c -0.2,0 -0.6,0.1 -0.8,0.1 -0.6,0.1 -1.1,0.3 -1.2,0.3 l 0.2,-0.1 C 111.4,2.9 111.2,3 111,3 c -0.2,0.1 -0.4,0.2 -0.9,0.4 z m -9.7,19.4 c 0,-0.2 0,-0.5 0,-0.9 0,-0.4 -0.1,-1 -0.1,-2 v 0.2 c 0,-0.5 0,-1 0,-1.5 0,-0.5 0.1,-1.1 0.2,-1.7 0,0.3 0,0.4 0,0.6 0,0.1 0,0.3 0,0.6 0,-0.2 0,-0.4 0,-0.6 0,0.2 0.1,-0.4 0.2,-0.9 0,0.1 0,0.3 0,0.4 -0.1,0.3 -0.2,1 -0.1,1 0,-0.1 0,0.2 -0.1,0.5 0,0.3 -0.1,0.8 -0.1,1.1 0,0 0,-0.4 0.1,-0.6 0,-0.3 0.1,-0.4 0.1,-0.1 0,-0.5 0.1,-0.6 0.1,-1.1 0,0.5 0.1,0.1 0.1,0.5 0,-0.3 0,-0.6 0.1,-0.8 0,0 0,0.3 0,0.5 0,0.2 0,0.4 0.1,0 0,-0.2 0,-0.5 0.1,-0.7 0,-0.3 0.1,-0.5 0.1,-0.5 v 0 c 0.1,-0.6 0,-0.3 0.2,-1 0,0 -0.1,0.1 -0.1,0.4 0,0.2 0,0.3 -0.1,0.8 -0.1,0.2 0.1,-0.6 0,-0.3 0,0.1 -0.1,0.4 -0.1,0.7 0,0.3 -0.1,0.4 -0.1,0.3 0,-0.2 0.1,-0.4 0.1,-0.6 -0.1,0 0,-0.5 0,-0.5 0.1,-0.4 0.2,-0.7 0.3,-1.1 0,-0.2 -0.1,0.1 0.1,-0.5 0.1,-0.2 0.3,-0.7 0.5,-1.2 0.2,-0.5 0.4,-1 0.5,-1.2 0.1,-0.2 0.1,-0.3 0.2,-0.5 -0.1,0 -0.4,0.9 -0.3,0.6 0.1,-0.2 0.2,-0.5 0.3,-0.7 v 0.1 c 0.1,-0.2 0.2,-0.5 0.3,-0.7 -0.1,0.2 -0.4,0.7 -0.2,0.7 0.2,-0.3 0.2,-0.4 0.4,-0.7 0,0.1 -0.1,0.1 0,0.1 0.4,-0.6 0.3,-0.7 0.4,-0.8 0.2,-0.3 0,-0.2 -0.1,0 -0.2,0.2 -0.3,0.5 -0.3,0.5 0.3,-0.6 0.7,-1.3 1.1,-1.9 -0.1,0.2 -0.2,0.3 -0.1,0.3 0.3,-0.4 0,0 0.5,-0.6 0,0 0.1,-0.2 0.3,-0.5 0.2,-0.3 0.4,-0.6 0.6,-0.8 0.2,-0.2 0.2,-0.2 -0.1,0.2 0.1,0 0.5,-0.6 0.7,-0.8 0.1,-0.1 0.3,-0.3 0.4,-0.4 -0.2,0.1 -0.1,0 0.2,-0.3 v 0 c -0.3,0.3 -0.7,0.6 -1,0.9 -0.3,0.3 -0.6,0.7 -0.7,0.9 l 0.1,-0.1 c -0.6,0.7 -1.1,1.6 -1.4,1.9 0,-0.1 -0.1,0.1 -0.1,0.1 -0.1,0.2 -0.2,0.4 -0.3,0.6 v -0.1 c -0.2,0.3 -0.4,0.7 -0.5,1 v 0 c -0.2,0.5 -0.3,0.9 -0.4,1.2 0,0 0,0 0,0.2 -0.1,0.2 -0.1,0.3 -0.2,0.4 0,0 0,0 0,0 v 0 c -0.1,0.3 -0.2,0.4 -0.3,0.7 0.1,-0.3 0.2,-0.7 0.4,-1 0,-0.1 -0.1,0 -0.3,0.4 0.1,-0.2 0.1,-0.3 0,0 0,0 -0.2,0.7 -0.1,0.4 -0.2,0.5 -0.4,1.1 -0.6,1.8 -0.2,0.7 -0.4,1.5 -0.4,2.2 0.1,-0.5 0,-0.3 0,-0.1 0,0.2 -0.1,0.4 0,-0.2 -0.1,0.4 -0.1,0.6 -0.1,0.8 0,0.2 0,0.4 0,0.8 0,0.1 0,-0.5 0,-0.7 -0.1,0.7 -0.1,1.3 0,1.9 0,0.6 0.1,1.2 0.2,1.9 v 0.1 c -0.8,-0.2 -0.7,0.1 -0.7,0.4 z m 1,2.6 c 0.1,0.2 0.2,0.5 0.4,0.7 0,0 0,0 0,-0.1 0.1,0.2 0.3,0.4 0.4,0.7 -0.1,-0.2 -0.2,-0.4 -0.2,-0.5 0,-0.1 0,0 0.2,0.3 0,0 0,0.1 -0.1,0 0.1,0.2 0.3,0.5 0.5,0.7 0.2,0.2 0.3,0.4 0.2,0.2 -0.3,-0.3 -0.3,-0.4 -0.3,-0.4 0,0 0,-0.1 -0.2,-0.3 0.2,0.3 0.4,0.6 0.7,0.8 -0.3,-0.3 0,0.1 0.3,0.5 0.1,0.1 0.2,0.2 0.4,0.4 0.2,0.2 0.4,0.3 0.5,0.4 -0.1,-0.1 0.2,0.1 -0.3,-0.3 0.2,0.1 0.5,0.4 0.8,0.6 -0.1,-0.1 -0.4,-0.2 -0.4,-0.2 0.2,0.2 0.4,0.4 0.6,0.5 0.1,0.1 0.2,0.1 0.4,0.2 0,0 -0.1,0 -0.1,-0.1 0.1,0.1 0.3,0.1 0.4,0.2 -0.5,-0.3 -0.2,-0.2 -0.2,-0.2 0,0 0.3,0.2 0.5,0.3 -0.1,-0.1 -0.3,-0.2 -0.4,-0.2 0.2,0.1 0.7,0.4 0.6,0.3 -0.4,-0.2 -0.7,-0.4 -1,-0.5 -0.3,-0.2 -0.5,-0.3 -0.9,-0.6 0.1,0.1 0.2,0.2 0.3,0.2 -0.4,-0.3 -0.5,-0.4 -0.6,-0.5 -0.1,-0.1 -0.2,-0.3 -0.6,-0.6 -0.2,-0.1 -0.4,-0.4 -0.7,-0.7 -0.2,-0.3 -0.4,-0.5 -0.4,-0.5 0,0 0,-0.1 -0.1,-0.3 -0.1,-0.2 -0.3,-0.5 -0.4,-0.6 -0.1,-0.2 -0.3,-0.5 -0.5,-0.8 -0.1,-0.3 -0.2,-0.5 -0.2,-0.3 0.1,0.3 0.3,0.7 0.4,1 -0.1,-0.2 -0.2,-0.4 -0.3,-0.6 0,0.1 0.1,0.3 0.1,0.4 0.2,-0.2 0.2,-0.2 0.2,-0.1 z m 12.7,5.2 c 0,0 0,0 0,0 0,0 0,0 0,0 z"
   id="path146"
   inkscape:connector-curvature="0"
   style="fill:#121212" />
					<path
   class="st1"
   d="m 120.7,11.1 c 0,0 -0.1,0.1 -0.1,0.1 -0.1,0 -0.1,0.1 -0.2,0.1 -0.1,0.1 -0.2,0.1 -0.1,0.1 0,0 0,0 0.1,-0.1 0.1,0 0.1,-0.1 0.2,-0.2 0.1,0 0.2,-0.1 0.1,0 z"
   id="path148"
   inkscape:connector-curvature="0"
   style="fill:#121212" />
					<path
   class="st1"
   d="m 120.2,11.4 c 0,0 0,0 -0.2,0.1 0.2,-0.1 0.3,-0.2 0.5,-0.3 -0.1,0.1 -0.2,0.1 -0.3,0.2 z"
   id="path150"
   inkscape:connector-curvature="0"
   style="fill:#121212" />
					<path
   class="st1"
   d="m 119.5,11.4 c -0.3,0.1 -0.4,0.2 -0.9,0.3 -0.1,0 0.1,-0.1 0.3,-0.1 0.1,0 0.2,-0.1 0.3,-0.1 0.2,-0.1 0.3,-0.2 0.3,-0.1 -0.4,0.1 -0.6,0.2 -0.9,0.2 -0.2,0.1 -0.5,0.1 -0.8,0.2 0.1,0 0.2,0 0.4,0 0.1,0 0.2,0 0.3,0 0.1,0 0.2,0 0.3,-0.1 0.4,-0.1 0.8,-0.3 0.7,-0.3 z"
   id="path152"
   inkscape:connector-curvature="0"
   style="fill:#121212" />
					<path
   class="st1"
   d="m 119.8,11.1 c -0.1,0.1 -0.3,0.1 -0.4,0.2 v 0 l 0.2,-0.1 z"
   id="path154"
   inkscape:connector-curvature="0"
   style="fill:#121212" />
					<path
   class="st1"
   d="m 119.3,2.5 c 0,-0.1 -0.3,-0.1 -0.5,-0.2 0.1,0.1 0.3,0.2 0.5,0.2 z"
   id="path156"
   inkscape:connector-curvature="0"
   style="fill:#121212" />
					<path
   class="st1"
   d="m 108.6,6.5 c 0.8,-0.8 1.8,-1.5 2.8,-2 -0.4,0.2 -0.9,0.4 -1.3,0.7 -0.5,0.4 -1,0.8 -1.5,1.3 z"
   id="path158"
   inkscape:connector-curvature="0"
   style="fill:#121212" />
					<path
   class="st1"
   d="m 107.4,4.6 c 0.4,-0.3 0.7,-0.5 1,-0.7 0.3,-0.2 0.6,-0.4 1.1,-0.6 -0.6,0.3 -1,0.5 -1.3,0.8 -0.3,0.2 -0.7,0.5 -1.1,0.8 0,-0.2 0.2,-0.2 0.3,-0.3 z"
   id="path160"
   inkscape:connector-curvature="0"
   style="fill:#121212" />
					<path
   class="st1"
   d="m 107.5,4.2 c 0.1,0 -0.1,0.1 -0.2,0.2 -0.2,0.1 -0.3,0.3 -0.2,0.2 0.3,-0.2 0.3,-0.3 0.4,-0.3 0.1,-0.1 0.1,-0.1 0.4,-0.3 -0.2,0.1 -0.3,0.1 -0.4,0.2 z"
   id="path162"
   inkscape:connector-curvature="0"
   style="fill:#121212" />
					<path
   class="st1"
   d="m 112,3.2 c -0.1,0 -0.2,0.1 -0.3,0.1 0.1,0 0.2,0 0.3,-0.1 z"
   id="path164"
   inkscape:connector-curvature="0"
   style="fill:#121212" />
					<path
   class="st1"
   d="m 104.2,7.4 v 0 c -0.1,0 -0.2,0.2 -0.3,0.3 0.1,-0.2 0.2,-0.3 0.3,-0.3 z"
   id="path166"
   inkscape:connector-curvature="0"
   style="fill:#121212" />
					<path
   class="st1"
   d="M 104.3,7.2 Z"
   id="path168"
   inkscape:connector-curvature="0"
   style="fill:#121212" />
					<path
   class="st1"
   d="m 111.7,3.5 c 0.1,0 0.3,-0.1 0.4,-0.1 0.1,0 0.1,-0.1 0.2,-0.1 -0.2,0 -0.4,0.1 -0.6,0.2 z"
   id="path170"
   inkscape:connector-curvature="0"
   style="fill:#121212" />
					<path
   class="st1"
   d="m 108.2,4.8 c 0.1,-0.1 0.2,-0.2 0.3,-0.2 -0.1,0 -0.6,0.3 -0.3,0.2 z"
   id="path172"
   inkscape:connector-curvature="0"
   style="fill:#121212" />
					<path
   class="st1"
   d="m 102.4,9.9 c -0.1,0.1 -0.2,0.3 -0.2,0.4 v 0 c 0.1,-0.2 0.2,-0.3 0.2,-0.4 z"
   id="path174"
   inkscape:connector-curvature="0"
   style="fill:#121212" />
					<path
   class="st1"
   d="m 105.9,6.9 c 0.2,-0.2 -0.5,0.6 -0.1,0.2 0.4,-0.4 0.2,-0.3 0.1,-0.2 z"
   id="path176"
   inkscape:connector-curvature="0"
   style="fill:#121212" />
					<path
   class="st1"
   d="m 102.4,11.3 c 0,0.1 -0.1,0.1 -0.1,0.2 0,-0.1 0,-0.1 0.1,-0.2 z"
   id="path178"
   inkscape:connector-curvature="0"
   style="fill:#121212" />
					<path
   class="st1"
   d="m 102.4,11.3 c 0.1,-0.2 0.2,-0.4 0.3,-0.5 -0.2,0.2 -0.2,0.3 -0.3,0.5 z"
   id="path180"
   inkscape:connector-curvature="0"
   style="fill:#121212" />
					<path
   class="st1"
   d="m 101.4,13.5 0.1,-0.2 c 0,0.2 0,0.1 0,-0.1 0.1,-0.2 0.1,-0.2 0.1,-0.2 0,0 0,-0.1 0,-0.1 0,0.1 0,0.1 0,0.2 -0.2,0.3 -0.2,0.5 -0.2,0.4 z"
   id="path182"
   inkscape:connector-curvature="0"
   style="fill:#121212" />
					<path
   class="st1"
   d="m 99.7,22.4 c -0.1,-0.7 -0.1,-0.9 -0.1,-0.9 -0.1,-0.7 -0.1,-0.6 -0.2,-1 0,0.4 0,0.6 0.1,0.9 0.1,0.2 0.1,0.5 0.2,1 z"
   id="path184"
   inkscape:connector-curvature="0"
   style="fill:#121212" />
					<path
   class="st1"
   d="m 99.5,20.5 c 0,-0.1 0,-0.2 0,-0.3 0,0.1 0,0.2 0,0.3 z"
   id="path186"
   inkscape:connector-curvature="0"
   style="fill:#121212" />
					<polygon
   class="st1"
   points="102.8,11.6 102.9,11.4 102.9,11.2 "
   id="polygon188"
   style="fill:#121212" />
					<path
   class="st1"
   d="m 99.9,23.4 c 0,-0.1 -0.1,-0.3 -0.1,-0.5 0,0 0.2,0.7 0.1,0.5 z"
   id="path190"
   inkscape:connector-curvature="0"
   style="fill:#121212" />
					<path
   class="st1"
   d="m 100.2,20.6 c 0,-0.1 0,-0.5 0,-0.7 0,0.2 -0.1,0.5 0,0.7 z"
   id="path192"
   inkscape:connector-curvature="0"
   style="fill:#121212" />
					<path
   class="st1"
   d="m 100.8,25.4 c -0.1,-0.1 -0.1,-0.3 0,-0.3 0,-0.1 -0.1,-0.2 -0.1,-0.2 -0.1,0 -0.1,0.2 0.1,0.5 z"
   id="path194"
   inkscape:connector-curvature="0"
   style="fill:#121212" />
					<path
   class="st1"
   d="m 100.4,21.8 v -0.1 c 0,-0.2 -0.1,-0.3 -0.1,-0.5 0,0.3 0,0.5 0.1,0.6 z"
   id="path196"
   inkscape:connector-curvature="0"
   style="fill:#121212" />
					<path
   class="st1"
   d="m 100.8,20.1 c 0,-0.3 -0.1,-0.1 -0.1,0.1 0,0.2 0,0.3 -0.1,-0.2 0,0.6 0,0.6 0,0.5 0,-0.1 0,-0.2 0.1,0.3 0,-0.5 0,-0.7 0.1,-0.7 z"
   id="path198"
   inkscape:connector-curvature="0"
   style="fill:#121212" />
					<path
   class="st1"
   d="m 100.7,20.8 c 0,0.1 0,0.2 0,0.2 0,0 0,-0.1 0,-0.2 z"
   id="path200"
   inkscape:connector-curvature="0"
   style="fill:#121212" />
					<path
   class="st1"
   d="M 103.1,27.7 C 103,27.6 103,27.6 103,27.6 c 0,0 0.1,0.1 0.1,0.1 z"
   id="path202"
   inkscape:connector-curvature="0"
   style="fill:#121212" />
					<path
   class="st1"
   d="m 101.2,23.5 c -0.1,-0.2 -0.2,-0.5 -0.3,-0.7 0.1,0.2 0.2,0.7 0.3,1 0.1,0.4 0.3,0.6 0.3,0.6 -0.1,-0.4 -0.3,-0.9 -0.4,-1.1 z"
   id="path204"
   inkscape:connector-curvature="0"
   style="fill:#121212" />
					<path
   class="st1"
   d="m 106.4,31 c -0.1,0 -0.2,-0.1 -0.4,-0.1 0.2,0.1 0.4,0.1 0.4,0.1 0,0 0.2,0.1 0,0 z"
   id="path206"
   inkscape:connector-curvature="0"
   style="fill:#121212" />
					<path
   class="st1"
   d="m 106.6,31.1 v 0 c -0.1,0 0,0 0,0 z"
   id="path208"
   inkscape:connector-curvature="0"
   style="fill:#121212" />
					<path
   class="st1"
   d="m 102.2,26.5 c -0.1,-0.2 -0.2,-0.4 -0.4,-0.6 0,0 0.1,0.2 0.2,0.4 0.1,0.1 0.2,0.2 0.2,0.2 z"
   id="path210"
   inkscape:connector-curvature="0"
   style="fill:#121212" />
					<path
   class="st1"
   d="m 109,31.5 c -0.2,0 -0.4,0 -0.6,-0.1 0.2,0.1 0.5,0.1 0.6,0.1 z"
   id="path212"
   inkscape:connector-curvature="0"
   style="fill:#121212" />
					<path
   class="st1"
   d="m 111.9,31.5 h 0.1 c 0.2,0 0.3,-0.1 0.5,-0.1 h -0.1 c -0.2,0 -0.3,0.1 -0.5,0.1 z"
   id="path214"
   inkscape:connector-curvature="0"
   style="fill:#121212" />
					<path
   class="st1"
   d="m 108.4,30.2 c -0.4,-0.1 -0.7,-0.1 -0.6,0 0.2,0.1 0.5,0.1 0.7,0.1 -0.2,-0.1 -0.2,0 -0.6,-0.1 0.2,0 0.3,0 0.5,0 z"
   id="path216"
   inkscape:connector-curvature="0"
   style="fill:#121212" />
					<path
   class="st1"
   d="m 109.1,28.1 c 0.1,0 0.3,0.1 0.5,0.1 0.2,0.1 0.4,0.1 0.4,0.1 -0.1,0 -0.5,-0.1 -0.3,0 0.2,0 0.4,0 0.6,0 0.4,0.1 0.2,0.1 -0.1,0.1 -0.3,0 -0.8,-0.1 -0.9,-0.1 0.4,0.1 0.7,0.1 0.9,0.2 0.3,0 0.6,0 1,0.1 -0.3,0 -0.4,0 -0.6,-0.1 0,0 0.2,0 0.5,0 0.1,0 0.3,0 0.5,0 0.2,0 0.3,0 0.4,0 -0.4,0 -0.2,0 0.1,-0.1 0,0 0.1,0 0.1,0 0,0 0.1,0 0.1,0 h -0.1 c 0,0 0,0 -0.1,0 -0.2,0 -0.4,0 -0.6,0 -0.2,0 -0.4,0 -0.5,0 0.2,0.1 -0.1,0.1 -0.5,0 -0.4,0 -0.8,-0.1 -1,-0.2 -0.1,0 -0.3,-0.1 -0.4,-0.1 -0.1,0 -0.1,0 -0.2,-0.1 0,0 0,0 0.3,0 -0.1,0 -0.3,-0.1 -0.5,-0.2 -0.2,-0.1 -0.3,-0.1 -0.3,-0.1 -0.5,-0.2 -1,-0.5 -1.4,-0.8 0,0 -0.1,-0.1 -0.1,-0.1 0,0 -0.1,0 -0.1,0 -0.4,-0.4 -0.8,-0.8 -1.2,-1.3 -0.3,-0.5 -0.6,-1 -0.9,-1.6 -0.2,-0.5 -0.4,-1.1 -0.6,-1.7 -0.2,-0.6 -0.3,-1.2 -0.3,-1.8 0,0.4 0.1,0.7 0.1,1.1 -0.1,-0.3 -0.1,-0.1 0,0.1 0,0.2 0.1,0.4 0,0.4 -0.1,-0.2 -0.1,-0.6 -0.2,-0.8 0,-0.1 0,0.2 -0.1,0.2 0.1,0.5 0.2,0.7 0.2,1 0.1,0.3 0.2,0.5 0.3,0.9 0,0 -0.2,-0.3 0,0.3 L 104,23.5 c 0.2,0.4 0.2,0.6 0.3,0.7 0,0.1 0.1,0.2 0.3,0.5 h -0.1 c 0.1,0.2 0.3,0.5 0.5,0.7 0.2,0.3 0.4,0.5 0.5,0.7 v 0 c 0.2,0.2 0.4,0.4 0.5,0.5 0.1,0.1 0.2,0.2 0.3,0.2 0.1,0.1 0.2,0.1 0.3,0.2 0.1,0.1 0.3,0.3 0.6,0.4 -0.2,-0.1 -0.4,-0.2 -0.6,-0.3 0.2,0.2 0.3,0.2 0.4,0.3 0.1,0.1 0.2,0.1 0.4,0.2 0,0 0,0.1 -0.3,-0.1 0.5,0.3 1.1,0.5 1.6,0.6 0.9,0.2 0.4,0.1 0.4,0 z"
   id="path218"
   inkscape:connector-curvature="0"
   style="fill:#121212" />
					<path
   class="st1"
   d="m 111.3,28.6 c 0.1,0 0.2,0 0.3,0 -0.1,0 -0.2,0 -0.3,0 z"
   id="path220"
   inkscape:connector-curvature="0"
   style="fill:#121212" />
					<path
   class="st1"
   d="m 104,20 c 0,0.2 0,0.3 0,0.5 0,-0.1 0,-0.3 0,-0.5 z"
   id="path222"
   inkscape:connector-curvature="0"
   style="fill:#121212" />
					<path
   class="st1"
   d="m 113.7,28.1 c -0.3,0.1 0.2,-0.1 0.2,-0.2 -0.2,0.1 -0.3,0.1 -0.5,0.2 -0.2,0.1 -0.3,0.1 -0.5,0.1 0,0 -0.1,0.1 -0.1,0.1 0.3,0 0.6,-0.1 0.9,-0.2 z"
   id="path224"
   inkscape:connector-curvature="0"
   style="fill:#121212" />
					<path
   class="st1"
   d="m 112.6,28.3 c 0,0 -0.1,0.1 -0.3,0.1 0.2,0 0.4,-0.1 0.6,-0.1 0,-0.1 -0.1,-0.1 -0.3,0 z"
   id="path226"
   inkscape:connector-curvature="0"
   style="fill:#121212" />
					<path
   class="st1"
   d="m 113,29.4 c -0.1,0 -0.1,0 -0.2,0 -0.1,0 -0.2,0 -0.3,0.1 0.1,-0.1 0.3,-0.1 0.5,-0.1 z"
   id="path228"
   inkscape:connector-curvature="0"
   style="fill:#121212" />
					<path
   class="st1"
   d="m 109.6,29.2 c 0.2,0.1 0.7,0.1 0.9,0.1 -0.3,0 -0.4,0 -0.4,-0.1 -0.1,0.1 -0.2,0.1 -0.5,0 z"
   id="path230"
   inkscape:connector-curvature="0"
   style="fill:#121212" />
					<path
   class="st1"
   d="m 110.2,29.7 c -0.2,0 -0.4,0 -0.6,-0.1 h 0.1 c 0.2,0 0.4,0.1 0.5,0.1 z"
   id="path232"
   inkscape:connector-curvature="0"
   style="fill:#121212" />
					<path
   class="st1"
   d="m 104,16.1 c 0,-0.1 0,-0.2 0,-0.3 0,0.2 0,0.3 0,0.3 z"
   id="path234"
   inkscape:connector-curvature="0"
   style="fill:#121212" />
					<path
   class="st1"
   d="m 103.9,20.5 c 0,-0.6 0,-0.4 0,-0.1 0,0.3 0.1,0.7 0.1,0.5 0,-0.2 -0.1,-0.4 -0.1,-0.6 v 0.1 c 0,-0.3 0,-0.5 -0.1,-0.8 0,0.2 0,0.3 -0.1,0.3 0,-0.5 0,-0.6 0,-0.7 0,0 0,-0.1 0.1,-0.5 0,-0.4 0,-0.8 0.1,-1.2 v 0.1 c 0,-0.1 0,-0.1 0,-0.2 0.1,-0.7 0.2,-1.4 0.3,-2 0.1,-0.7 0.3,-1.3 0.5,-2 0.2,-0.7 -0.2,0.4 -0.1,-0.2 -0.1,0.4 -0.3,0.9 -0.4,1.4 -0.1,0.4 -0.2,0.8 -0.1,0.8 0,0 0,-0.1 -0.1,0.1 0,0.2 0,0.3 0,0.5 0,-0.2 0.1,-0.3 0.1,-0.5 0,0.2 -0.1,0.8 -0.2,1.3 -0.1,0.5 -0.1,1 -0.1,1.1 0,-0.5 0,-0.6 0,-0.7 0,-0.2 0,-0.4 0.1,-1 0,0.1 -0.1,0.3 -0.1,0 0,1.4 -0.1,2.8 0.1,4.3 z"
   id="path236"
   inkscape:connector-curvature="0"
   style="fill:#121212" />
					<path
   class="st1"
   d="m 108.4,6.6 v 0 c 0,0 0,0 0,0 z"
   id="path238"
   inkscape:connector-curvature="0"
   style="fill:#121212" />
					<path
   class="st1"
   d="m 108,7 c -0.1,0.2 -0.3,0.4 -0.4,0.6 0.2,-0.3 0.5,-0.6 0.7,-0.8 V 6.7 c -0.1,0.1 -0.3,0.4 -0.4,0.5 z"
   id="path240"
   inkscape:connector-curvature="0"
   style="fill:#121212" />
					<path
   class="st1"
   d="m 107.2,8.3 c 0.3,-0.5 0.3,-0.5 0,-0.3 0.3,-0.4 0.2,-0.2 0.4,-0.5 0,0 -0.1,0.1 -0.2,0.3 -0.1,0.1 -0.2,0.3 -0.3,0.4 z"
   id="path242"
   inkscape:connector-curvature="0"
   style="fill:#121212" />
					<polygon
   class="st1"
   points="105.2,11.9 105,12.3 105.1,12.1 "
   id="polygon244"
   style="fill:#121212" />
					<path
   class="st1"
   d="m 105.2,11.9 0.2,-0.4 c 0,0 -0.1,0 -0.1,0.1 z"
   id="path246"
   inkscape:connector-curvature="0"
   style="fill:#121212" />
					<path
   class="st1"
   d="m 105.8,10.6 c 0.1,-0.2 0.2,-0.3 0.3,-0.5 -0.1,0.1 -0.2,0.3 -0.3,0.5 z"
   id="path248"
   inkscape:connector-curvature="0"
   style="fill:#121212" />
					<path
   class="st1"
   d="m 105.6,11 v 0 c 0.1,-0.1 0.1,-0.3 0.2,-0.4 -0.1,0.1 -0.2,0.3 -0.2,0.4 z"
   id="path250"
   inkscape:connector-curvature="0"
   style="fill:#121212" />
					<path
   class="st1"
   d="m 105.3,11.5 c 0.1,0 0.1,-0.1 0.4,-0.6 l -0.1,0.1 c -0.1,0.2 -0.2,0.4 -0.3,0.5 z"
   id="path252"
   inkscape:connector-curvature="0"
   style="fill:#121212" />
					<path
   class="st1"
   d="m 106.5,28.1 c -0.1,-0.1 -0.3,-0.2 -0.4,-0.3 v 0 c 0.1,0.1 0.3,0.2 0.4,0.3 z"
   id="path254"
   inkscape:connector-curvature="0"
   style="fill:#121212" />
					<path
   class="st1"
   d="m 104.5,25.9 c -0.1,-0.1 -0.1,-0.2 -0.2,-0.2 0.1,0 0.2,0.1 0.2,0.2 z"
   id="path256"
   inkscape:connector-curvature="0"
   style="fill:#121212" />
					<path
   class="st1"
   d="m 103.3,24.1 c -0.2,-0.6 0.3,0.8 0,-0.3 0,-0.1 0.2,0.4 0.4,0.8 -0.1,0 -0.2,-0.5 -0.1,-0.1 0.2,0.3 0.2,0.4 0.2,0.3 0.3,0.5 0.4,0.5 0.6,0.9 -0.2,-0.3 -0.4,-0.8 -0.6,-1.3 -0.2,-0.5 -0.4,-1.1 -0.5,-1.5 -0.2,-0.5 -0.2,-0.1 -0.3,-0.1 0,0 0.1,0.4 0.2,0.7 0,0.3 0.1,0.6 0.1,0.6 z"
   id="path258"
   inkscape:connector-curvature="0"
   style="fill:#121212" />
					<path
   class="st1"
   d="m 103.6,25 c 0.1,0.3 0.2,0.3 0.3,0.5 0,-0.1 -0.2,-0.3 -0.3,-0.5 z"
   id="path260"
   inkscape:connector-curvature="0"
   style="fill:#121212" />
					<path
   class="st1"
   d="m 103.1,18.8 c 0,0 0,-0.5 0,-0.4 0,0.2 0,0.5 0,0.7 0,-0.2 0,-0.2 0,-0.3 z"
   id="path262"
   inkscape:connector-curvature="0"
   style="fill:#121212" />
					<path
   class="st1"
   d="m 103.1,19.4 v -0.3 c 0,0.1 0,0.2 0,0.3 z"
   id="path264"
   inkscape:connector-curvature="0"
   style="fill:#121212" />
					<path
   class="st1"
   d="m 103.1,18.8 c 0,0 0,0 0,0 0,0 0,0 0,0 z"
   id="path266"
   inkscape:connector-curvature="0"
   style="fill:#121212" />
					<path
   class="st1"
   d="m 106.6,9.1 c 0,0 0.2,-0.2 0.2,-0.4 0,0.1 -0.1,0.3 -0.2,0.4 z"
   id="path268"
   inkscape:connector-curvature="0"
   style="fill:#121212" />
					<path
   class="st1"
   d="m 115.8,3.8 c 0.1,0 0.2,0 0.3,0.1 C 116,3.8 116,3.8 115.8,3.8 Z"
   id="path270"
   inkscape:connector-curvature="0"
   style="fill:#121212" />
					<path
   class="st1"
   d="m 119.4,5.5 c 0,0 0,0 0,0 0,0 0,0 0,0 z"
   id="path272"
   inkscape:connector-curvature="0"
   style="fill:#121212" />
					<path
   class="st1"
   d="m 119.4,5.6 c 0,0.1 0.1,0.3 0.1,0.5 0,0.2 0.1,0.4 0.1,0.5 v 0 c 0,0.1 0,0.3 0,0.4 0,-0.2 0,-0.5 -0.1,-0.8 0.1,-0.3 0,-0.5 -0.1,-0.6 z"
   id="path274"
   inkscape:connector-curvature="0"
   style="fill:#121212" />
				</g>
			</g>
		</g>
		<g
   id="g300">
			<path
   class="st2"
   d="m 137.3,21.3 c 0,-0.1 0,-0.2 0,-0.3 0,0 0,-0.1 0,-0.2 -0.1,-0.3 -0.1,-0.6 0,-0.9 0.1,-0.2 0.1,-0.4 0.1,-0.6 0,0 0,0 0,0 0,0.1 0,0.2 -0.1,0.4 0,0 0,0 0,0 0.1,-0.2 0.1,-0.3 0.2,-0.5 0.1,-0.4 0.3,-0.7 0.4,-1.1 0.2,-0.4 0.4,-0.7 0.7,-1.1 0.5,-0.5 1.1,-1 1.7,-1.2 0.2,-0.1 0.3,-0.2 0.5,-0.2 0.2,0 0.4,-0.1 0.6,-0.1 0.1,0 0.2,0 0.3,0 -0.2,0.1 -0.4,0.1 -0.5,0.2 -0.1,0 -0.2,0 -0.3,0.1 0,0 -0.1,0 -0.1,0.1 -0.1,0.1 -0.1,0.1 -0.2,0.1 0,0 0,0 -0.1,0 0,0 0,0.1 0,0.1 -0.1,0.1 -0.3,0.1 -0.4,0.2 -0.1,0 -0.1,0.1 -0.2,0.1 -0.2,0 -0.3,0.1 -0.5,0.2 -0.2,0.2 -0.5,0.4 -0.7,0.7 -0.5,0.4 -0.7,1 -1,1.6 -0.2,0.5 -0.3,0.9 -0.3,1.4 0,0.3 0,0.5 0,0.8 0.1,0.3 0.1,0.7 0.3,1 0.1,0.2 0.3,0.4 0.5,0.6 0.1,0.1 0.1,0.1 0.2,0.2 -0.1,-0.4 -0.3,-0.8 -0.4,-1.2 0,0 0.1,0 0.1,0 0,0.2 0.1,0.3 0.1,0.5 0,0.1 0.1,0.2 0.2,0.3 0,0 0,0 0,0 -0.1,-0.2 -0.2,-0.3 -0.2,-0.5 0,-0.1 -0.1,-0.1 0,-0.1 -0.1,-0.2 -0.2,-0.5 -0.2,-0.7 0,0 0,0 0,0 0,0.1 0,0.3 0,0.4 0,0 0,0 0,0 0,-0.2 0,-0.3 0,-0.5 0,-0.2 0,-0.5 -0.1,-0.7 -0.1,-0.3 0,-0.7 0.1,-1 0,-0.2 0.1,-0.3 0.1,-0.5 0.1,-0.2 0.1,-0.3 0.2,-0.5 0.3,-0.4 0.5,-0.9 0.9,-1.2 0.1,-0.1 0.2,-0.2 0.3,-0.2 0.1,-0.1 0.2,-0.2 0.4,-0.3 0.1,-0.1 0.3,-0.1 0.4,-0.2 0,0 0.1,0 0.1,0 0.1,-0.1 0.2,-0.1 0.3,-0.1 0,0 0.1,0 0.1,0.1 0.1,0 0.1,0 0.2,0 0,0 0,0 0,0 -0.1,0 -0.1,0.1 -0.2,0.1 -0.2,0.1 -0.4,0.2 -0.6,0.3 -0.2,0.1 -0.4,0.2 -0.5,0.4 -0.1,0.2 -0.4,0.3 -0.5,0.6 0,0 0,0 0,0 -0.2,0.2 -0.3,0.4 -0.5,0.6 -0.1,0.2 -0.2,0.4 -0.3,0.6 0,0.1 -0.1,0.1 -0.1,0.2 0,0.1 -0.1,0.2 -0.1,0.3 0,0.2 0,0.3 -0.1,0.5 0,-0.1 0,-0.1 0,-0.1 0,0 0,0 0,0 0,0.3 0,0.6 0.1,0.8 0,0 0,0 0,0 0,0 0,0 0,-0.1 0.1,0.2 0.2,0.4 0.2,0.7 0,0 0,0 0,0 0,-0.1 0,-0.3 0,-0.4 0,0 0,0 0,0 0.1,0.1 0.2,0.3 0.3,0.4 0,0 0,0 0,0 0,-0.1 0,-0.2 -0.1,-0.3 0.4,1.2 1.1,2.2 2.3,2.8 0,0 0,0.1 0,0.1 -0.2,-0.1 -0.4,-0.2 -0.6,-0.3 0,0 0,0 -0.1,0 0,0 -0.1,0 -0.1,0 0.1,0.1 0.1,0.1 0.2,0.2 0,0 0,0 0,0 -0.1,-0.1 -0.3,-0.2 -0.4,-0.2 0,0 0,0 0,0.1 0,0 0.1,0.1 0.1,0.1 0.3,0.2 0.7,0.4 1.1,0.5 0.5,0.2 1,0.2 1.5,0.2 0.4,0 0.7,-0.2 1.1,-0.2 0.4,-0.1 0.7,-0.2 1,-0.4 0.4,-0.3 0.8,-0.6 1.1,-1 0.2,-0.3 0.4,-0.6 0.5,-1 0,-0.1 0.1,-0.2 0.1,-0.4 0,-0.1 0.1,-0.2 0,-0.4 0,-0.1 -0.1,-0.1 -0.2,-0.2 0,0.1 0,0.2 0,0.3 -0.3,0.2 -0.3,0.5 -0.4,0.8 -0.1,-0.2 0,-0.4 0.1,-0.5 0.1,-0.1 0.1,-0.3 0.1,-0.5 0,-0.1 0,-0.2 0.1,-0.3 0,0 0,0 0,0 -0.1,0.2 -0.1,0.4 -0.2,0.6 0,0 0,0 0,0 0,-0.2 0.1,-0.4 0.1,-0.6 0,-0.2 0,-0.5 -0.1,-0.7 0,0 0,0 -0.1,0.1 0,-0.2 -0.1,-0.4 -0.1,-0.6 0,-0.1 0,-0.1 0,-0.2 0,-0.1 0,-0.1 0,-0.2 0,0 0,-0.1 0,-0.1 0,-0.1 -0.1,-0.3 -0.1,-0.4 -0.1,-0.3 -0.2,-0.5 -0.5,-0.7 0,0 0,-0.2 -0.1,-0.2 0,0 0,-0.1 -0.1,-0.1 -0.3,-0.2 -0.6,-0.5 -0.9,-0.7 0,0 0.1,0 0.1,0 -0.1,-0.1 -0.1,-0.1 -0.2,-0.2 0,0 0.1,0 0.1,0 -0.1,-0.1 -0.3,-0.1 -0.4,-0.2 0.2,-0.2 0.3,0.1 0.5,0 -0.2,-0.2 -0.3,-0.5 -0.6,-0.7 0,0 0.1,0 0.1,-0.1 0,0 -0.1,-0.1 -0.1,-0.1 -0.1,0 -0.2,-0.1 -0.3,-0.1 -0.1,-0.2 -0.2,-0.3 -0.3,-0.5 0.2,0 0.4,0 0.6,0 0.2,0 0.5,0.1 0.7,0.2 0.1,0 0.2,0.1 0.3,0.2 0.1,0.1 0.2,0.1 0.4,0.1 0.1,0 0.1,0.1 0.1,0.2 0,0 0,0.1 0,0.1 0.2,0 0.3,0 0.4,-0.1 0,0 0,0 0,0.1 -0.1,0.1 -0.1,0.2 -0.2,0.3 0,0.1 0,0.1 0,0.2 0,-0.1 0.1,-0.1 0.1,-0.2 0,0 0,0 0,0 0,0 0,0.1 0,0.1 0.1,-0.1 0.2,-0.1 0.2,-0.1 0,0 0,0 0,0 0.1,0.1 0.1,0.1 0.2,0.2 -0.1,0 -0.1,0.1 -0.2,0.1 0.1,0 0.1,0.1 0.2,0.1 0,-0.1 0,-0.1 0,-0.2 0.1,0.1 0.2,0.1 0.2,0.2 0,0 0,0 0,0 0,0 0,-0.1 -0.1,-0.1 0,0 0,0 0,0 0.1,0 0.1,0 0.2,0.1 0.1,0.1 0.3,0.3 0.4,0.4 0.1,0.1 0.2,0.1 0,0.3 0,0 0,0.1 0,0.1 0.1,-0.1 0.2,-0.1 0.3,-0.2 0,0.1 0.1,0.1 0.1,0.2 0.1,0.1 0.1,0.2 0.2,0.3 0.1,0.1 0,0.1 0,0.2 0,0.1 0,0.1 -0.1,0.2 0,0 0,0 0,0 0.1,-0.1 0.1,-0.1 0.2,-0.2 0,0 0,-0.1 0,-0.2 0,-0.1 -0.1,-0.2 -0.2,-0.3 0.2,0.2 0.3,0.4 0.4,0.6 0.1,0.1 0.2,0.2 0.2,0.3 0,0.1 0.1,0.2 0.1,0.3 0.1,0.4 0.3,0.8 0.2,1.3 0,0.2 0.1,0.5 0,0.7 0,0.2 0,0.3 0,0.5 0,0.5 -0.2,0.9 -0.4,1.3 0,0 0,0.1 0,0.1 0,0.1 -0.1,0.3 -0.2,0.4 -0.1,0.1 -0.1,0.3 -0.2,0.4 0,0.1 -0.1,0.1 -0.1,0.1 0,0 0,0 -0.1,0.1 -0.2,0.3 -0.4,0.5 -0.6,0.8 -0.1,0.2 -0.3,0.3 -0.5,0.4 -0.2,0.1 -0.3,0.3 -0.5,0.4 -0.2,0.2 -0.4,0.3 -0.7,0.4 -0.2,0.1 -0.3,0.2 -0.5,0.2 -0.4,0.2 -0.8,0.3 -1.2,0.4 -0.1,0 -0.2,0 -0.4,0 -0.2,0 -0.4,0 -0.6,0 -0.3,0 -0.6,0 -0.9,0 -0.4,-0.1 -0.8,-0.2 -1.1,-0.3 -0.1,0 -0.3,-0.1 -0.4,-0.2 -0.2,-0.1 -0.4,-0.2 -0.5,-0.3 -0.6,-0.3 -1,-0.7 -1.4,-1.2 -0.1,-0.1 -0.2,-0.3 -0.3,-0.5 -0.1,-0.2 -0.2,-0.3 -0.3,-0.5 -0.1,-0.2 -0.2,-0.5 -0.3,-0.7 -0.1,-0.3 -0.2,-0.5 -0.3,-0.8 0,-0.1 0,-0.2 -0.1,-0.3 0,-0.1 0,-0.2 0,-0.3 0,-0.2 0,-0.3 0,-0.5 0,-0.1 0,-0.2 0,-0.2 0,0 0,-0.1 0,-0.1 0,0 0,-0.1 0,-0.1 0,-0.2 0,-0.3 0.1,-0.5 0.1,-0.2 0.1,-0.3 0.2,-0.5 0,0.1 0,0.2 0,0.3 0,0.3 -0.1,0.5 -0.1,0.8 0,0.2 0,0.5 0,0.7 0,0.1 0,0.2 0,0.2 0.9,0 0.9,0.1 0.9,0.2 0,0 0,0.1 0,0.1 0,0.3 0.2,0.5 0.3,0.8 0,0 0,0 0.1,0 -0.2,-0.4 -0.3,-0.6 -0.4,-0.9 z m 7.6,3.1 c 0,0 0,0 0,0 0.1,0.1 0.2,0.1 0.2,0.1 0.2,-0.1 0.3,-0.2 0.5,-0.4 0,-0.1 -0.1,-0.1 -0.1,-0.1 -0.2,0.1 -0.4,0.2 -0.6,0.4 z m -6.2,-3 c 0,0 0,0 0,0 0,0.3 0.1,0.5 0.2,0.7 0,0 0,0 0.1,0 -0.1,-0.3 -0.2,-0.5 -0.3,-0.7 z m 6.7,3.7 c 0,0 -0.1,-0.1 0,0 -0.2,0 -0.4,0.1 -0.6,0.2 0,0 0,0 0,0 0.2,0 0.4,-0.1 0.6,-0.2 z m 1.2,-8.3 c 0,0 0,0 0,0 -0.1,0.1 -0.1,0.2 -0.1,0.3 0.1,-0.1 0.2,-0.1 0.2,-0.1 0,-0.1 0,-0.1 -0.1,-0.2 z m -9.1,3.3 c 0,0 0,0 0,0 0.1,-0.1 0.1,-0.2 0.1,-0.4 0,0 0,0 0,0 -0.1,0.2 -0.1,0.3 -0.1,0.4 z m 6.6,-4.7 c 0,0.1 0,0.1 0,0.1 0,0 0,0.1 0,0.1 0,0 0,0 0,0 0,-0.1 0.1,-0.1 0.1,-0.2 0,0 0,0 -0.1,0 z"
   id="path282"
   inkscape:connector-curvature="0"
   style="fill:#f95b26" />
			<path
   class="st2"
   d="m 143.6,23.5 c -0.2,0.1 -0.5,0.2 -0.7,0.2 -0.3,0 -0.5,0 -0.7,0 -0.1,0 -0.2,0 -0.3,0 0,0 -0.1,-0.1 -0.1,-0.1 -0.3,-0.1 -0.5,-0.2 -0.8,-0.3 -0.1,0 -0.2,0 -0.2,0 0,0 0,0 0,0 0.1,0 0.1,0.1 0.2,0.1 0,0 0,0 -0.1,0.1 -0.4,-0.1 -0.6,-0.4 -0.8,-0.7 0,0 0,0 0,0 0,0 0,0 0.1,0 -0.1,-0.1 -0.2,-0.2 -0.3,-0.3 -0.1,-0.1 -0.2,-0.1 -0.2,-0.2 -0.1,-0.2 -0.1,-0.4 -0.2,-0.6 -0.2,0 0,-0.2 -0.1,-0.3 0,0 0,0 0.1,0.1 0,-0.1 0,-0.2 0,-0.3 0,0 0,0 0,0 0,0.1 0.1,0.2 0.1,0.3 0.1,0.4 0.4,0.7 0.7,1 0.2,0.2 0.4,0.4 0.7,0.6 0.4,0.3 0.9,0.4 1.4,0.5 0.3,0 0.8,0 1.2,-0.1 0,0 0,0 0,0 z"
   id="path284"
   inkscape:connector-curvature="0"
   style="fill:#f95b26" />
			<path
   class="st2"
   d="m 143.6,24.1 c -0.1,0 -0.1,0 -0.2,0.1 -0.3,0 -0.7,0.1 -1,0.1 -0.2,0 -0.4,0 -0.6,-0.1 -0.1,0 -0.2,-0.1 -0.3,-0.1 -0.1,0 -0.1,-0.1 -0.2,-0.2 0.1,0 0.1,0.1 0.1,0.1 0.1,0 0.2,0 0.3,0.1 0.1,0 0.2,0 0.2,0 0.5,0.1 1,0.1 1.5,0 0.1,-0.1 0.2,-0.1 0.2,0 0,-0.1 0,0 0,0 z"
   id="path286"
   inkscape:connector-curvature="0"
   style="fill:#f95b26" />
			<path
   class="st2"
   d="m 141.3,23.7 c 0.4,0.1 0.9,0.2 1.3,0.3 -0.5,0 -0.9,-0.2 -1.3,-0.3 z"
   id="path288"
   inkscape:connector-curvature="0"
   style="fill:#f95b26" />
			<path
   class="st2"
   d="m 145.2,18.2 c -0.2,-0.2 -0.4,-0.3 -0.5,-0.5 0.1,0 0.5,0.3 0.5,0.5 z"
   id="path290"
   inkscape:connector-curvature="0"
   style="fill:#f95b26" />
			<path
   class="st2"
   d="m 145.2,17.9 c -0.2,-0.2 -0.4,-0.3 -0.6,-0.5 0,0 0,0 0,0 0.2,0.1 0.4,0.3 0.6,0.5 0,0 0,0 0,0 z"
   id="path292"
   inkscape:connector-curvature="0"
   style="fill:#f95b26" />
			<path
   class="st2"
   d="m 147.1,16.9 c -0.1,-0.1 -0.3,-0.2 -0.4,-0.3 0.2,0 0.3,0.1 0.4,0.3 z"
   id="path294"
   inkscape:connector-curvature="0"
   style="fill:#f95b26" />
			<path
   class="st2"
   d="m 141.2,16.1 c 0,0 -0.1,0 -0.1,-0.1 0.1,0 0.3,-0.1 0.4,-0.1 0,0 0,0 0,0 -0.1,0.1 -0.2,0.2 -0.3,0.2 z"
   id="path296"
   inkscape:connector-curvature="0"
   style="fill:#f95b26" />
			<path
   class="st2"
   d="m 146.7,16.3 c -0.1,-0.1 -0.3,-0.2 -0.4,-0.4 0,0 0,0 0,0 0.2,0.1 0.3,0.2 0.4,0.4 0.1,0 0.1,0 0,0 z"
   id="path298"
   inkscape:connector-curvature="0"
   style="fill:#f95b26" />
		</g>
	</g>
</g>
</svg>