<svg xmlns="http://www.w3.org/2000/svg" xmlns:svg="http://www.w3.org/2000/svg" id="Layer_1" width="254" height="62.592" x="0" y="0" version="1.1" viewBox="0 0 254 62.592" xml:space="preserve"><metadata id="metadata311"/><style id="style2" type="text/css">.st0{fill:#fff}.st1{fill:#121212}.st2{fill:#f95b26}</style><g id="g304" transform="translate(0,29.592047)"><rect id="rect4" width="191.43" height="62.592" x="62.57" y="-29.592" class="st0" style="fill:#fff;stroke-width:1.41244757"/><rect id="rect6" width="62.57" height="62.592" x="0" y="-29.592" class="st1" style="fill:#121212;stroke-width:1.89638937"/><g id="g18" transform="matrix(1.8960501,0,0,1.8967284,0,-29.592045)"><g id="g12"><path id="path8" d="m 18.6,21.4 h -6.2 c -0.3,0 -0.6,-0.3 -0.6,-0.6 v -3 c 0,-0.3 0.3,-0.6 0.6,-0.6 h 6.2 c 0.3,0 0.6,0.3 0.6,0.6 v 3 c 0,0.3 -0.3,0.6 -0.6,0.6 z" class="st2" style="fill:#f95b26"/><path id="path10" d="m 16.2,15.8 h -3.8 c -0.3,0 -0.5,-0.2 -0.5,-0.5 v -3.1 c 0,-0.3 0.2,-0.5 0.5,-0.5 h 3.8 c 0.3,0 0.5,0.2 0.5,0.5 v 3.1 c 0,0.2 -0.2,0.5 -0.5,0.5 z" class="st2" style="fill:#f95b26"/></g><g id="g16"><path id="path14" d="M 22.1,24.2 H 10.9 C 9.7,24.2 8.8,23.3 8.8,22.1 V 10.9 c 0,-1.2 0.9,-2.1 2.1,-2.1 h 11.2 c 1.2,0 2.1,0.9 2.1,2.1 v 0.5 C 24.2,11.7 23.9,12 23.6,12 23.3,12 23,11.7 23,11.4 v -0.5 c 0,-0.5 -0.4,-1 -1,-1 H 10.9 c -0.5,0 -1,0.4 -1,1 v 11.2 c 0,0.5 0.4,1 1,1 h 11.2 c 0.5,0 1,-0.4 1,-1 v -5.4 c 0,-0.5 -0.4,-1 -1,-1 h -2.3 c -0.3,0 -0.6,-0.3 -0.6,-0.6 0,-0.3 0.3,-0.6 0.6,-0.6 h 2.3 c 1.2,0 2.1,0.9 2.1,2.1 V 22 c 0,1.2 -1,2.2 -2.1,2.2 z" class="st2" style="fill:#f95b26"/></g></g><g id="g302" transform="matrix(1.305871,0,0,1.3063383,1.621906,-20.394515)"><g id="g24"><path id="path20" d="m 130.7,22.9 c -0.2,0.4 -0.5,0.8 -0.8,1.1 -0.3,0.3 -0.7,0.6 -1,0.9 -0.4,0.2 -0.7,0.4 -1.1,0.5 -0.4,0.1 -0.8,0.2 -1.1,0.2 -0.7,0 -1.2,-0.1 -1.7,-0.3 -0.5,-0.2 -0.8,-0.5 -1.1,-0.8 -0.3,-0.4 -0.5,-0.8 -0.6,-1.2 -0.1,-0.5 -0.2,-1 -0.2,-1.5 0,-0.4 0,-0.8 0.1,-1.3 0.1,-0.4 0.2,-0.9 0.3,-1.3 0,-0.1 0,-0.1 0.1,-0.2 0,-0.1 0,-0.2 0,-0.2 0,-0.1 0,-0.1 -0.1,-0.1 -0.2,-0.1 -0.4,-0.1 -0.6,-0.2 -0.2,-0.1 -0.4,-0.1 -0.6,-0.2 -0.2,-0.1 -0.4,-0.2 -0.6,-0.2 -0.2,-0.1 -0.4,-0.2 -0.5,-0.4 0,0.6 -0.1,1.3 -0.3,1.9 -0.2,0.6 -0.5,1.3 -0.9,1.8 -0.4,0.6 -0.8,1.1 -1.3,1.6 -0.5,0.5 -1,1 -1.5,1.3 L 117,24.1 c 0.3,-0.3 0.6,-0.7 0.9,-1.2 0.3,-0.5 0.5,-0.9 0.7,-1.4 0.2,-0.5 0.3,-1 0.5,-1.5 0.1,-0.5 0.2,-1 0.2,-1.4 0,-0.2 0,-0.4 -0.1,-0.6 0,-0.2 -0.1,-0.4 -0.1,-0.6 C 119,17.2 119,17 119,16.9 c 0,-0.2 -0.1,-0.3 -0.1,-0.5 0,-0.3 0.1,-0.5 0.3,-0.7 0.2,-0.2 0.5,-0.2 0.8,-0.2 0.2,0 0.3,0 0.4,0.1 0.1,0.1 0.2,0.2 0.2,0.3 0.1,0.1 0.1,0.3 0.2,0.4 0.1,0.1 0.2,0.2 0.4,0.3 0.2,0.1 0.5,0.2 0.8,0.2 0.3,0.1 0.7,0.1 1,0.1 0.4,0 0.7,0.1 1.1,0.1 0.4,0 0.7,0.1 1,0.2 0.3,0.1 0.5,0.2 0.7,0.4 0.2,0.2 0.3,0.4 0.3,0.7 0,0.1 0,0.3 0,0.4 0,0.1 -0.1,0.3 -0.1,0.4 -0.1,0.4 -0.3,0.9 -0.4,1.3 -0.1,0.5 -0.1,0.9 -0.1,1.3 0,0.4 0,0.7 0.1,1.1 0.1,0.3 0.2,0.6 0.4,0.8 0.2,0.2 0.4,0.4 0.7,0.5 0.3,0.1 0.6,0.2 1.1,0.2 0.6,0 1.2,-0.1 1.7,-0.4 0.5,-0.3 0.9,-0.7 1.3,-1.1 z" class="st1" style="fill:#121212"/><path id="path22" d="m 138.6,22.9 c -0.3,0.4 -0.6,0.8 -0.9,1.1 -0.4,0.3 -0.8,0.6 -1.2,0.9 -0.4,0.2 -0.9,0.4 -1.4,0.6 -0.5,0.1 -1,0.2 -1.5,0.2 -0.6,0 -1.2,-0.1 -1.7,-0.3 -0.5,-0.2 -0.9,-0.5 -1.2,-0.8 -0.3,-0.3 -0.6,-0.8 -0.8,-1.2 -0.2,-0.5 -0.3,-1 -0.3,-1.6 0,-0.6 0.1,-1.2 0.3,-1.7 0.2,-0.5 0.5,-1 0.8,-1.5 0.3,-0.5 0.7,-0.9 1.2,-1.3 0.5,-0.4 1,-0.7 1.5,-1.1 l 0.2,0.1 c -0.6,0.6 -1,1.3 -1.4,2 -0.3,0.7 -0.5,1.5 -0.5,2.3 0,0.5 0.1,0.9 0.2,1.3 0.1,0.4 0.3,0.8 0.6,1.1 0.3,0.3 0.6,0.6 1,0.8 0.4,0.2 0.9,0.3 1.5,0.3 0.7,0 1.3,-0.1 1.9,-0.4 0.6,-0.3 1.2,-0.6 1.6,-1 z m -4.8,-10.3 c 0,0.2 -0.1,0.4 -0.2,0.6 -0.1,0.2 -0.2,0.4 -0.4,0.6 -0.2,0.2 -0.4,0.3 -0.6,0.4 -0.2,0.1 -0.4,0.2 -0.7,0.2 -0.3,0 -0.5,-0.1 -0.7,-0.3 -0.2,-0.2 -0.3,-0.4 -0.3,-0.7 0,-0.2 0.1,-0.4 0.2,-0.6 0.1,-0.2 0.2,-0.4 0.4,-0.5 0.2,-0.2 0.4,-0.3 0.6,-0.4 0.2,-0.1 0.4,-0.1 0.7,-0.1 0.3,0 0.5,0.1 0.7,0.2 0.2,0.1 0.3,0.3 0.3,0.6 z" class="st1" style="fill:#121212"/></g><g id="g280"><path id="path26" d="m 119.2,8.3 c 0.1,-0.5 0.2,-0.9 0.2,-1.4 0,-0.6 -0.1,-1.1 -0.3,-1.5 -0.2,-0.5 -0.4,-0.8 -0.8,-1.2 -0.4,-0.3 -0.8,-0.6 -1.3,-0.8 -0.5,-0.2 -1.1,-0.3 -1.8,-0.3 -1.4,0 -2.7,0.3 -3.8,0.8 -1.1,0.5 -2.2,1.2 -3,2 -0.9,0.8 -1.7,1.8 -2.3,2.9 -0.6,1.1 -1.2,2.2 -1.6,3.4 -0.4,1.2 -0.7,2.3 -0.9,3.5 -0.2,1.2 -0.3,2.3 -0.3,3.3 0,0.8 0.1,1.6 0.2,2.4 0.1,0.8 0.3,1.6 0.6,2.4 0.3,0.8 0.6,1.5 1.1,2.1 0.4,0.7 1,1.2 1.6,1.7 0.6,0.5 1.3,0.9 2.1,1.2 0.8,0.3 1.7,0.4 2.8,0.4 0.7,0 1.4,-0.1 2.1,-0.3 0.7,-0.2 1.3,-0.5 1.9,-0.9 0.6,-0.4 1.1,-0.8 1.6,-1.2 0.5,-0.5 0.9,-0.9 1.2,-1.4 l 0.2,0.1 c -0.2,0.7 -0.6,1.4 -1.2,2 -0.5,0.7 -1.2,1.2 -1.9,1.8 -0.7,0.5 -1.6,0.9 -2.4,1.2 -0.9,0.3 -1.8,0.5 -2.7,0.5 -1.2,0 -2.2,-0.2 -3.2,-0.5 -1,-0.3 -1.8,-0.7 -2.6,-1.3 -0.7,-0.5 -1.4,-1.2 -1.9,-1.9 -0.5,-0.7 -1,-1.5 -1.4,-2.3 -0.4,-0.8 -0.6,-1.7 -0.8,-2.6 -0.2,-0.9 -0.3,-1.8 -0.3,-2.8 0,-1.2 0.2,-2.5 0.5,-3.8 0.3,-1.3 0.8,-2.6 1.4,-3.9 0.6,-1.3 1.3,-2.5 2.2,-3.6 0.9,-1.1 1.9,-2.2 3,-3 1.1,-0.9 2.4,-1.6 3.7,-2.1 1.4,-0.5 2.8,-0.8 4.4,-0.8 1,0 1.9,0.1 2.7,0.4 0.8,0.2 1.5,0.6 2.1,1 0.6,0.5 1,1 1.4,1.7 0.3,0.7 0.5,1.4 0.5,2.3 0,0.3 0,0.6 -0.1,1 0,0 -0.3,3.4 -4.8,3.4 v -0.4 c -0.2,-0.2 1.4,-0.3 1.9,-3.5 z" class="st1" style="fill:#121212"/><g id="g278"><path id="path28" d="m 119.2,8.3 c 0.1,-0.5 0.2,-0.9 0.2,-1.4 0,-0.6 -0.1,-1.1 -0.3,-1.5 -0.2,-0.5 -0.4,-0.8 -0.8,-1.2 -0.4,-0.3 -0.8,-0.6 -1.3,-0.8 -0.5,-0.2 -1.1,-0.3 -1.8,-0.3 -1.4,0 -2.7,0.3 -3.8,0.8 -1.1,0.5 -2.2,1.2 -3,2 -0.9,0.8 -1.7,1.8 -2.3,2.9 -0.6,1.1 -1.2,2.2 -1.6,3.4 -0.4,1.2 -0.7,2.3 -0.9,3.5 -0.2,1.2 -0.3,2.3 -0.3,3.3 0,0.8 0.1,1.6 0.2,2.4 0.1,0.8 0.3,1.6 0.6,2.4 0.3,0.8 0.6,1.5 1.1,2.1 0.4,0.7 1,1.2 1.6,1.7 0.6,0.5 1.3,0.9 2.1,1.2 0.8,0.3 1.7,0.4 2.8,0.4 0.7,0 1.4,-0.1 2.1,-0.3 0.7,-0.2 1.3,-0.5 1.9,-0.9 0.6,-0.4 1.1,-0.8 1.6,-1.2 0.5,-0.5 0.9,-0.9 1.2,-1.4 l 0.2,0.1 c -0.2,0.7 -0.6,1.4 -1.2,2 -0.5,0.7 -1.2,1.2 -1.9,1.8 -0.7,0.5 -1.6,0.9 -2.4,1.2 -0.9,0.3 -1.8,0.5 -2.7,0.5 -1.2,0 -2.2,-0.2 -3.2,-0.5 -1,-0.3 -1.8,-0.7 -2.6,-1.3 -0.7,-0.5 -1.4,-1.2 -1.9,-1.9 -0.5,-0.7 -1,-1.5 -1.4,-2.3 -0.4,-0.8 -0.6,-1.7 -0.8,-2.6 -0.2,-0.9 -0.3,-1.8 -0.3,-2.8 0,-1.2 0.2,-2.5 0.5,-3.8 0.3,-1.3 0.8,-2.6 1.4,-3.9 0.6,-1.3 1.3,-2.5 2.2,-3.6 0.9,-1.1 1.9,-2.2 3,-3 1.1,-0.9 2.4,-1.6 3.7,-2.1 1.4,-0.5 2.8,-0.8 4.4,-0.8 1,0 1.9,0.1 2.7,0.4 0.8,0.2 1.5,0.6 2.1,1 0.6,0.5 1,1 1.4,1.7 0.3,0.7 0.5,1.4 0.5,2.3 0,0.3 0,0.6 -0.1,1 0,0 -0.3,3.4 -4.8,3.4 v -0.4 c -0.2,-0.2 1.4,-0.3 1.9,-3.5 z" class="st1" style="fill:#121212"/><g id="g276"><path id="path30" d="m 117.8,11 c 0,0 0.1,-0.1 0.1,-0.1 0,0 0.1,-0.1 0.1,-0.1 0.1,-0.1 0.1,-0.1 0.1,0 0.1,-0.2 0.2,-0.4 0.2,-0.4 0,-0.1 0,-0.1 0,-0.1 0.1,-0.2 0.1,-0.3 0.2,-0.4 0,0 0,-0.1 0,0 0,0 0,0.1 0,0.2 0,-0.1 0.1,-0.2 0.1,-0.2 l 0.1,-0.2 c 0,-0.2 0.1,-0.3 0.1,-0.5 l -0.1,0.3 c 0,0.1 -0.1,0.2 -0.1,0.3 0,-0.1 0.1,-0.3 0.1,-0.6 0.1,-0.2 0.1,-0.5 0.1,-0.6 l -0.1,0.6 c -0.1,0.2 -0.1,0.4 -0.2,0.5 V 9.6 c 0,0.1 -0.1,0.3 -0.2,0.5 -0.1,0.2 -0.1,0.3 -0.2,0.4 0,0 0,0 0.1,-0.2 -0.1,0.2 -0.1,0.3 -0.2,0.3 0,0.1 -0.1,0.1 -0.1,0.2 0,0.1 -0.1,0.1 -0.1,0.2 0,0 0,0.1 0,0.1 0.1,-0.3 0.1,-0.2 0,-0.1 0,0 -0.1,0.1 -0.2,0.2 0.1,-0.1 0.1,-0.2 0.2,-0.2 z" class="st1" style="fill:#121212"/><path id="path32" d="M 116.7,11.8 V 12 l 0.1,0.4 0.3,-0.1 0.3,-0.1 c 0.3,0 0.6,0 0.9,-0.1 0,0 0.6,-0.2 0.2,-0.1 -0.1,0 -0.2,0.1 -0.4,0.1 0,0 0.1,0 0.2,-0.1 0.1,0 0.2,-0.1 0.4,-0.1 0.2,-0.1 0.4,-0.1 0.3,-0.1 -0.3,0.1 -0.5,0.1 -0.7,0.2 -0.2,0 -0.3,0.1 -0.5,0.1 -0.3,0 -0.5,0 -0.7,0 h -0.3 v -0.2 c 0,-0.2 0,-0.3 0,-0.4 v -0.2 h 0.2 c 0,0 0.1,0 0.1,0 0,0 0.1,0 0.1,0 0.1,0 0.1,-0.1 0.1,-0.1 0,0 0,0 0.1,-0.1 0,0 0.1,0 0.1,-0.1 0,0 -0.1,0.1 -0.1,0.1 L 117.3,11 c 0,0 -0.1,0 -0.1,0.1 h -0.1 c 0,0 -0.1,0 -0.1,0 0,0 -0.1,0 -0.1,0 l -0.3,0.3 c 0,0 0,0 0,0.1 v -0.1 l 0.3,-0.3 c 0,0 0,0 0,0 v 0 c 0,0 0,0 0.1,0 0,0 0,0 0.1,0 0,0 0,0 0.1,0 l 0.1,-0.1 0.1,-0.1 c 0,0 0.1,-0.1 0.1,-0.1 0,0 -0.1,0 -0.1,0.1 0,0 -0.1,0.1 -0.1,0.1 0,0 -0.1,0 -0.1,0 0,0 -0.1,0 -0.1,0 0,0 -0.1,0 -0.1,0 0,0 -0.1,0 0,0 l -0.5,0.5 c 0,0.1 0,0.3 0,0.4 v 0.5 h 0.5 c 0.1,0 0.3,0 0.3,0 -0.5,-0.1 0.2,0 -0.3,-0.1 h -0.5 v -0.4 c 0.2,0.1 0.2,0 0.2,-0.1 z" class="st1" style="fill:#121212"/><path id="path34" d="m 117.6,11.1 c 0,0 0,0 0,0 0,0 0,0 0,0 z" class="st1" style="fill:#121212"/><path id="path36" d="m 117.5,26.6 c -0.1,0.2 -0.2,0.2 -0.2,0.2 0.4,-0.4 0.8,-0.9 1.2,-1.4 l -0.3,0.1 0.2,0.1 -0.2,-0.4 c 0,0.1 -0.1,0.2 -0.1,0.3 0,0 0.1,-0.2 0.1,-0.3 l 0.1,0.3 c -0.1,-0.1 -0.2,-0.1 0,0 l -0.1,-0.3 c 0,0 0,0 0,0 0,0 0,0 0,0 l 0.1,0.3 c -0.1,0 -0.1,-0.1 -0.2,-0.1 l 0.2,-0.1 c -0.1,0.2 -0.3,0.5 -0.3,0.5 l 0.1,-0.2 c -0.3,0.5 -0.6,0.7 -0.4,0.4 v 0 c -0.3,0.4 -0.6,0.8 -1,1.2 0.2,-0.2 0.3,-0.3 0.4,-0.4 0.1,0.2 0.2,0.1 0.4,-0.2 z" class="st1" style="fill:#121212"/><path id="path38" d="m 119.1,4.9 c -0.2,-0.3 -0.2,-0.3 -0.2,-0.3 0.1,0.2 0.2,0.2 0.2,0.3 z" class="st1" style="fill:#121212"/><path id="path40" d="m 116.5,27.7 c -0.1,0.1 -0.2,0.2 -0.4,0.3 0.2,-0.1 0.3,-0.2 0.4,-0.3 z" class="st1" style="fill:#121212"/><path id="path42" d="m 118.9,25.7 c 0,0 0,0 0,0 v 0 L 119,25.1 118.6,25 h -0.1 c 0,0 0,0 0,0 0,0 0.1,0 0.1,0 l 0.4,0.1 -0.1,0.6 c 0,-0.1 0,-0.1 0,0 z" class="st1" style="fill:#121212"/><path id="path44" d="m 106.2,27.9 c 0,0 -0.1,-0.1 -0.1,-0.1 0,0.1 0,0.1 0.1,0.1 z" class="st1" style="fill:#121212"/><path id="path46" d="m 114.5,30.6 c 0.3,-0.2 0.6,-0.4 0.9,-0.6 -0.1,0.1 0.3,-0.2 0.2,0 0.1,0 0.4,-0.3 0.3,-0.2 l -0.2,0.1 c 0.2,-0.2 0.3,-0.3 0.3,-0.3 0.1,-0.1 0.2,-0.2 0.5,-0.5 -0.5,0.3 -0.7,0.5 -0.9,0.7 -0.1,0.1 -0.2,0.1 -0.2,0.2 -0.2,0.2 -0.5,0.4 -0.7,0.5 z" class="st1" style="fill:#121212"/><path id="path48" d="m 106.9,7.9 v 0 c 0,0 0,0 0,0 z" class="st1" style="fill:#121212"/><path id="path50" d="m 106.9,7.9 v 0 c 0,0 -0.1,0.2 0,0 z" class="st1" style="fill:#121212"/><path id="path52" d="m 116.6,27.6 c 0,0 0,0.1 -0.1,0.1 0.1,-0.1 0.2,-0.2 0.3,-0.3 -0.1,0.1 -0.1,0.1 -0.2,0.2 z" class="st1" style="fill:#121212"/><path id="path54" d="m 117.1,26.9 c 0.2,-0.2 0.4,-0.4 0.6,-0.6 0.1,-0.1 0.1,-0.2 0.2,-0.3 -0.2,0.2 -0.5,0.5 -0.8,0.9 z" class="st1" style="fill:#121212"/><path id="path56" d="m 107.4,28.8 c -0.4,-0.2 -0.6,-0.4 -0.6,-0.4 0,0 0,0 0.2,0.1 0.2,0.1 0.6,0.3 0.2,0 -0.5,-0.3 -0.6,-0.4 -0.9,-0.6 0.3,0.2 0.5,0.3 0.5,0.4 0.1,0.1 0,0.1 0,0.1 0,0 -0.1,0 0,0.1 0.1,0.1 0.2,0.2 0.6,0.4 -0.1,0 -0.4,-0.2 -0.6,-0.3 -0.3,-0.2 -0.6,-0.4 -0.7,-0.6 -0.2,-0.2 -0.1,-0.2 0.1,0 0.2,0.1 0.4,0.3 0.5,0.3 -0.3,-0.2 -0.4,-0.3 -0.4,-0.3 -0.1,0 -0.1,-0.1 -0.2,-0.1 -0.4,-0.3 -0.7,-0.7 -1,-1.1 -0.3,-0.4 -0.5,-0.7 -0.6,-1 -0.2,-0.3 -0.3,-0.4 -0.3,-0.5 -0.1,-0.1 -0.1,-0.2 -0.2,-0.4 -0.1,0 0,0.2 0.2,0.5 0.1,0.3 0.3,0.6 0.3,0.7 0,0 -0.1,-0.1 0,-0.1 0.1,0.2 0.2,0.4 0.3,0.5 -0.3,-0.5 0.1,0 0.3,0.3 0.1,0.2 0.4,0.5 0.4,0.5 -0.1,-0.1 -0.2,-0.2 -0.2,-0.3 0.3,0.4 0.7,0.7 1,1.1 0,0 -0.1,-0.1 -0.2,-0.1 0.4,0.3 0.8,0.7 1.5,1 -0.1,-0.1 -0.3,-0.1 -0.4,-0.2 0.3,0.1 0.8,0.4 1.3,0.6 0.3,0.1 0.5,0.2 0.8,0.3 0.3,0.1 0.5,0.2 0.8,0.2 -0.1,0 -0.3,-0.1 -0.2,-0.1 0.6,0.1 1,0.2 0.7,0.2 0.3,0 0.8,0.1 1.4,0.1 0.6,0 1.2,-0.1 1.6,-0.2 0.3,-0.1 0.6,-0.2 0.8,-0.3 0.3,-0.1 0.5,-0.3 0.8,-0.4 0.5,-0.3 1,-0.6 1.4,-1 -0.1,0.1 -0.2,0.2 -0.3,0.2 -0.3,0.1 -0.4,0.2 0,-0.1 -0.2,0.2 -0.3,0.2 -0.4,0.3 -0.1,0.1 -0.2,0.2 -0.6,0.3 0.1,-0.1 0.2,-0.2 0.2,-0.2 0,0 -0.2,0.1 -0.5,0.2 -0.4,0.2 -0.8,0.4 -1.2,0.5 -0.4,0.1 -0.8,0.2 -1.2,0.3 -0.2,0 -0.4,0.1 -0.6,0.1 -0.2,0 -0.4,0 -0.6,0 -0.4,0 -0.8,0 -1.3,-0.1 0,0 -0.4,-0.1 -0.8,-0.3 -0.4,-0.1 -0.9,-0.4 -1.2,-0.5 0.3,0.1 0.7,0.3 1.2,0.4 -0.3,-0.1 -0.9,-0.3 -1.2,-0.5 -0.6,0 -0.7,0 -0.7,0 z" class="st1" style="fill:#121212"/><path id="path58" d="m 111.7,29.6 c 0,0 -0.1,0 -0.2,0 0.1,0 0.2,0 0.2,0 z" class="st1" style="fill:#121212"/><path id="path60" d="m 109,29.3 c 0,0 0,0 0,0 0,0 -0.1,0 -0.2,0 0.1,0 0.1,0 0.2,0 z" class="st1" style="fill:#121212"/><path id="path62" d="m 116.2,27.7 c 0.1,-0.1 0.1,-0.1 0.2,-0.2 0,0.1 -0.1,0.1 -0.2,0.2 0,0 -0.1,0.1 0,0 z" class="st1" style="fill:#121212"/><path id="path64" d="m 116.5,27.6 v 0 c 0,0 0.1,0 0,0 0.1,-0.1 0.1,-0.1 0,0 z" class="st1" style="fill:#121212"/><path id="path66" d="m 103.6,22.9 -0.1,-0.2 c 0,0.1 0.1,0.1 0.1,0.2 z" class="st1" style="fill:#121212"/><path id="path68" d="m 105.7,27.4 c 0.2,0.2 0.3,0.2 0.3,0.3 0.1,0 0.1,0.1 0.5,0.4 -0.1,-0.1 -0.1,-0.1 -0.2,-0.2 0.3,0.2 0.7,0.5 1.1,0.7 0.4,0.2 0.9,0.4 1.2,0.6 0,0 0.1,0 0.2,0.1 0.1,0 0.2,0.1 0.2,0.1 0.5,0.1 1.1,0.2 1.4,0.2 0.3,0.1 0.8,0 1.3,0.1 -0.1,0 0.1,0 0.1,-0.1 0,0 0,0 -0.5,0 0.1,0 0,0 0.1,0 -0.3,0 -0.6,0 -0.8,0 -0.2,0 -0.4,0 -0.7,-0.1 -0.2,0 0,0 0.1,0 0.1,0 0.3,0 0.1,0 -0.4,0 -0.9,-0.2 -1.4,-0.3 -0.4,-0.2 -0.8,-0.3 -0.8,-0.2 -0.5,-0.2 -0.5,-0.3 -0.7,-0.4 -0.2,-0.1 -0.5,-0.2 -0.7,-0.4 -0.3,-0.2 -0.5,-0.4 -0.8,-0.7 -0.5,-0.5 -0.8,-0.9 -0.8,-0.9 0.2,0.1 0.5,0.5 0.8,0.8 z" class="st1" style="fill:#121212"/><path id="path70" d="m 115.3,28.3 c 0,0 -0.1,0 -0.1,0.1 0,0 0.1,-0.1 0.1,-0.1 z" class="st1" style="fill:#121212"/><path id="path72" d="m 116.1,27.8 c 0,-0.1 0.1,-0.2 0.1,-0.2 0.5,-0.5 0.7,-0.8 1,-1.2 0.2,-0.4 0.4,-0.7 0.6,-1.2 l 0.4,0.9 c 0,0 -0.1,0 -0.1,-0.1 -0.1,0 0.1,0 0.1,0 l -0.4,-0.9 c 0,0 0,0 0,0 v 0 l 0.4,0.9 c -0.1,0 -0.2,-0.1 -0.2,-0.1 l 0.8,-0.2 c -0.3,0.4 -0.6,0.8 -1,1.2 -0.3,0.4 -0.7,0.7 -1,0.9 -0.1,0.1 -0.4,0.3 -0.5,0.4 -0.2,0.1 -0.3,0.2 -0.2,0.1 -0.1,0.1 -0.3,0.2 -0.4,0.3 -0.1,0 0.3,-0.2 0.3,-0.2 -0.1,0.1 -0.2,0.1 -0.2,0.1 0.1,-0.1 0,-0.1 0,-0.1 0,0 0.1,-0.1 0.6,-0.5 0.2,-0.1 0,0 -0.1,0.1 -0.2,0.1 -0.4,0.3 -0.2,0.2 0.3,-0.2 0.2,-0.2 0.3,-0.2 0.4,-0.3 0.4,-0.3 0.4,-0.2 0.1,-0.1 0.6,-0.5 0.7,-0.7 0.6,-0.6 0,0.1 0.4,-0.3 0.1,-0.1 0.1,-0.2 0.2,-0.3 0.2,-0.2 0.4,-0.5 0.6,-0.8 0,0 0,0 0,-0.1 l -0.7,0.2 c 0.1,0 0.2,0.1 0.2,0.1 l -0.3,-0.7 c -0.1,0.3 0,0.2 0,0.2 0,0 0,0 0,0.1 0,0.1 -0.1,0.3 -0.2,0.5 0,-0.2 -0.3,0.3 -0.7,0.8 0.1,-0.2 0.3,-0.4 0.4,-0.6 0.1,-0.3 0.3,-0.5 0.4,-0.7 -0.2,0.4 0,0 0.1,-0.3 l 0.3,0.7 c -0.1,0 -0.2,-0.1 -0.2,-0.1 l 0.7,-0.2 c -0.1,0.1 -0.1,0.1 0,0.1 0,0 0,0 0,0 l -0.8,0.2 c 0.1,0 0.2,0 0.2,0.1 l -0.4,-0.8 c -0.1,0.3 -0.3,0.7 -0.4,1 0,0 0,-0.1 0.1,-0.1 -0.1,0.2 -0.2,0.4 -0.3,0.6 -0.1,0.2 -0.3,0.4 -0.5,0.7 -0.2,0.2 -0.2,0.2 -0.2,0.1 -0.1,0.1 -0.3,0.3 -0.3,0.3 z m 0.5,-0.5 c 0.1,-0.1 0.2,-0.2 0.3,-0.3 -0.1,0 -0.2,0.2 -0.3,0.3 z" class="st1" style="fill:#121212"/><path id="path74" d="m 122.4,8.7 c 0,0.1 0,0.1 0,0.2 -0.1,-0.1 0,-0.1 0,-0.2 z" class="st1" style="fill:#121212"/><path id="path76" d="m 101.3,26.1 -0.1,-0.3 c 0,0.1 0.1,0.2 0.1,0.3 z" class="st1" style="fill:#121212"/><path id="path78" d="m 99.5,19.9 c 0,-0.1 0,-0.3 0,-0.4 0,0.1 0,0.3 0,0.4 z" class="st1" style="fill:#121212"/><path id="path80" d="m 122,5.3 v 0 c -0.1,-0.1 -0.1,-0.1 0,0 z" class="st1" style="fill:#121212"/><path id="path82" d="m 103.8,8 c 0,0 0.1,-0.1 0.2,-0.2 -0.1,0 -0.1,0.1 -0.2,0.2 z" class="st1" style="fill:#121212"/><path id="path84" d="m 99.5,20 c 0,0 0,-0.1 0,0 0,-0.1 0,-0.1 0,0 z" class="st1" style="fill:#121212"/><path id="path86" d="m 102.8,28.6 c 0,0 0.1,0.1 0.1,0.1 -0.1,-0.1 -0.1,-0.1 -0.1,-0.1 z" class="st1" style="fill:#121212"/><path id="path88" d="m 102.7,28.1 c 0,0 0.1,0.1 0.1,0.1 z" class="st1" style="fill:#121212"/><path id="path90" d="m 111.8,31.4 c 0.1,0 0.3,-0.1 0.4,-0.1 -0.2,0 -0.3,0.1 -0.4,0.1 z" class="st1" style="fill:#121212"/><path id="path92" d="m 103.4,28.9 c 0,0 0,0 0,0 0,0 -0.1,-0.1 0,0 z" class="st1" style="fill:#121212"/><path id="path94" d="m 121,10.8 c 0,0 0,0 0,0 z" class="st1" style="fill:#121212"/><path id="path96" d="m 120.3,11.5 c 0,0 -0.1,0.1 -0.1,0.1 l -0.2,0.1 c 0.1,-0.1 0.3,-0.1 0.3,-0.2 z" class="st1" style="fill:#121212"/><path id="path98" d="m 107.9,4.3 c 0.1,0 0.3,-0.2 0.2,-0.1 0.2,-0.1 0.1,-0.2 -0.2,0.1 z" class="st1" style="fill:#121212"/><path id="path100" d="m 121.4,9.1 c 0,0.1 0,0.1 0,0.2 0,-0.2 0.1,-0.3 0,-0.2 z" class="st1" style="fill:#121212"/><path id="path102" d="m 121.4,9.3 c 0,0.1 0,0.1 -0.1,0.2 0.1,-0.1 0.1,-0.2 0.1,-0.2 z" class="st1" style="fill:#121212"/><path id="path104" d="m 106.4,6.4 c 0,0 -0.1,0 0,0 -0.1,0.1 -0.1,0 0,0 z" class="st1" style="fill:#121212"/><path id="path106" d="m 119.8,11.8 c 0,0 -0.4,0.2 -0.6,0.3 -0.1,0 -0.2,0.1 -0.1,0.1 0,0 0.1,0 0.1,0 0.1,0 0.2,0 0.3,-0.1 0,0 -0.1,0 -0.1,0.1 -0.1,0 -0.2,0.1 -0.3,0.1 -0.1,0 -0.2,0.1 -0.4,0.1 -0.1,0 -0.2,0 -0.3,0.1 0.2,0 -0.1,0.1 0,0.1 0.2,0 0.4,-0.1 0.6,-0.2 0.1,0 -0.3,0.1 -0.6,0.2 0.2,0 0.1,0 0,0 -0.1,0 -0.2,0.1 0.1,0 1.2,-0.2 2.1,-0.7 2.7,-1.4 -0.3,0.3 -0.6,0.5 -0.9,0.7 -0.3,0.2 -0.6,0.3 -0.9,0.4 0.1,0 0.1,-0.1 0.2,-0.1 0.3,-0.1 0.6,-0.2 0.8,-0.3 0.2,-0.1 0.4,-0.3 0.7,-0.5 -0.4,0.1 -0.9,0.3 -1.3,0.4 -0.3,0.2 -0.4,0.2 -0.3,0.2 0.1,0 0.3,-0.1 0.5,-0.3 -0.1,0.1 -0.2,0.1 -0.2,0.1 z" class="st1" style="fill:#121212"/><path id="path108" d="m 120.3,10.9 v 0 c 0,0 0,0.1 0,0 z" class="st1" style="fill:#121212"/><path id="path110" d="m 111.5,30.3 h 0.1 c -0.1,-0.1 -0.1,0 -0.1,0 z" class="st1" style="fill:#121212"/><path id="path112" d="m 121.1,10.6 v 0 c 0,0 0,0 0,0 z" class="st1" style="fill:#121212"/><path id="path114" d="m 108.8,30.3 c 0,0 0,0 0,0 0,0 0,0 0,0 z" class="st1" style="fill:#121212"/><path id="path116" d="m 107.8,31.3 c 0,0 0,0.1 0,0 0.1,0.1 0.1,0.1 0,0 z" class="st1" style="fill:#121212"/><path id="path118" d="m 108.8,30.3 c 0,0 0,0 0,0 0,0 0,0 0,0 z" class="st1" style="fill:#121212"/><path id="path120" d="m 100.6,21 c 0,0 0,0 0,0.1 0,0 0,0 0,-0.1 z" class="st1" style="fill:#121212"/><path id="path122" d="m 101,23.7 c 0.1,0 0.1,0 0,0 z" class="st1" style="fill:#121212"/><path id="path124" d="m 107.2,4.4 c -0.1,0.1 -0.2,0.1 -0.3,0.2 0.1,0 0.2,-0.1 0.3,-0.2 z" class="st1" style="fill:#121212"/><path id="path126" d="m 108.8,30.3 c 0,0 0.1,0 0.1,0 0,0 -0.1,0 -0.1,0 z" class="st1" style="fill:#121212"/><path id="path128" d="m 100.5,16.8 c 0,0.1 0,0.1 0,0 z" class="st1" style="fill:#121212"/><path id="path130" d="m 100.8,15.4 c 0,0 0,0.1 0,0.1 0,-0.3 0.1,-0.6 0.2,-0.9 0.1,-0.3 0.2,-0.6 0.2,-0.6 0,0.1 -0.1,0.3 -0.2,0.6 -0.1,0.2 -0.1,0.4 -0.1,0.3 -0.1,0.3 -0.3,0.9 -0.3,1 0.2,-0.6 0.1,-0.1 0,0.3 -0.1,0.4 0,-0.1 -0.1,0.2 -0.1,0.3 -0.1,0.6 -0.1,0.8 0,-0.2 0.1,-0.5 0.1,-0.7 v 0.2 c 0,0 0,0 0,-0.1 0.1,-0.6 0.1,-0.6 0.2,-0.7 0,0.2 0,0.1 0.1,-0.5 z" class="st1" style="fill:#121212"/><path id="path132" d="m 100.8,15.5 c 0,0.1 0,0.1 0,0.2 0,-0.1 0,-0.1 0,-0.2 z" class="st1" style="fill:#121212"/><path id="path134" d="m 102.7,10.9 c 0,-0.1 0.1,-0.1 0.1,-0.2 0,0 0,0.1 -0.1,0.2 z" class="st1" style="fill:#121212"/><path id="path136" d="m 118.3,25.5 c 0,0 0,-0.1 0,0 v 0 c 0,0 0.1,0 0.2,0.1 l -0.2,-0.1 c 0,0.1 0,0.2 0,0.2 0,-0.1 0.1,-0.2 0.1,-0.3 l 0.1,0.1 z" class="st1" style="fill:#121212"/><path id="path138" d="m 113,2.5 c -0.1,0 -0.2,0 -0.2,0 0,0 0,0 0,0 0,0.1 0.1,0 0.2,0 z" class="st1" style="fill:#121212"/><path id="path140" d="m 100.9,14.6 c 0,0.1 0,0.2 0,0.2 0,0 0,-0.1 0,-0.2 z" class="st1" style="fill:#121212"/><path id="path142" d="m 113.1,2.6 c 0.1,0 0.3,0 0.3,0 0.2,0 0.3,-0.1 0.6,-0.1 -0.3,0 -0.6,0.1 -0.9,0.1 z" class="st1" style="fill:#121212"/><path id="path144" d="m 113.9,2.5 c 0,0 0,0 0,0 0,0 0,0 0,0 z" class="st1" style="fill:#121212"/><path id="path146" d="m 118,25.8 c 0,0.1 -0.1,0.1 -0.1,0.2 l 0.1,-0.2 c -0.2,0.2 -0.3,0.3 -0.4,0.4 0,0 -0.1,0.1 -0.1,0.2 0,0 0,0 0,-0.1 0,0 -0.1,0.1 -0.1,0.1 -0.1,0.2 -0.3,0.4 -0.6,0.7 -0.2,0.2 -0.5,0.4 -0.6,0.5 -0.3,0.2 -0.7,0.5 -0.9,0.6 0.2,-0.1 0.5,-0.3 0.4,-0.3 -0.2,0.1 -0.4,0.2 -0.7,0.3 -0.2,0.1 -0.5,0.2 -0.9,0.5 0.2,-0.1 0.3,-0.1 0.5,-0.2 -0.4,0.2 -0.7,0.4 -1.1,0.5 -0.2,0 -0.1,0 0.2,-0.1 0.2,-0.1 0.5,-0.2 0.6,-0.3 -0.4,0.2 -0.9,0.3 -1.3,0.4 -0.4,0.1 -0.7,0.1 -0.9,0.2 -0.1,-0.1 -0.2,-0.1 -0.8,-0.1 0.5,0.1 -0.4,0 0,0.1 -0.2,0 -0.7,-0.1 -0.7,0 h 0.1 c -0.5,-0.1 -0.9,-0.2 -1.2,-0.2 -0.3,0 -0.5,-0.1 -0.7,-0.1 -0.6,-0.2 -1.1,-0.4 -1.4,-0.7 -0.4,-0.2 -0.7,-0.5 -1.1,-0.9 0,-0.1 -0.2,-0.3 -0.4,-0.6 -0.1,-0.1 -0.3,-0.3 -0.5,-0.5 -0.2,-0.2 -0.3,-0.4 -0.4,-0.5 0.2,0.3 0.3,0.4 0.4,0.5 0.1,0.1 0.2,0.1 0.3,0.3 0.2,0.3 0,0.1 0.3,0.5 -0.1,-0.2 -0.5,-0.5 -0.8,-0.9 -0.3,-0.4 -0.5,-0.8 -0.6,-1 l 0.1,0.1 c -0.2,-0.3 -0.2,-0.5 -0.3,-0.8 -0.1,-0.3 -0.2,-0.6 -0.4,-1.1 -0.1,-0.2 -0.1,-0.4 -0.2,-0.5 0,0 0,0 0,0 -0.1,-0.5 -0.1,-0.6 -0.2,-0.8 0,-0.2 -0.1,-0.4 -0.2,-0.9 0,0.1 0,0 0,0.1 -0.1,-0.6 -0.2,-1.2 -0.2,-1.6 0,-0.3 0.1,0.1 0.1,0.2 0,-0.5 0,-1.1 -0.1,-1.6 0,-0.5 0,-0.9 0,-1.3 0,-0.2 0.1,-0.4 0.1,-0.7 0,0.4 0,0.9 0,0.8 0,-0.4 0,-0.3 0.1,-0.8 0,0.1 0,0.3 0,0.6 0.1,-0.5 0.1,-0.6 0.1,-0.6 0,0 0,0 0.1,-0.4 0.1,-0.3 0,-0.5 0,-0.6 0.1,-0.2 0.1,-0.4 0.2,-0.6 0,-0.1 0.1,-0.8 0.3,-1.3 0,-0.1 -0.2,0.4 -0.2,0.6 0,0 0.1,-0.6 0.2,-0.9 0.1,0 0.2,-0.6 0.4,-1 0.2,-0.5 0.3,-0.9 0.3,-0.6 0.3,-0.7 0.7,-1.6 1.1,-2.3 0.4,-0.8 0.9,-1.4 1.2,-1.8 0.2,-0.3 0.7,-0.8 0.4,-0.4 0.4,-0.5 0.7,-0.8 1,-1.2 0.3,-0.3 0.7,-0.6 1.2,-1 0.1,-0.1 -0.5,0.3 -0.4,0.3 0.3,-0.3 0.6,-0.5 1,-0.7 0.4,-0.2 0.8,-0.4 1.4,-0.7 -0.2,0.1 -0.2,0.1 -0.3,0.1 0,0 0.5,-0.2 0.8,-0.4 0.2,-0.1 -0.2,0.1 -0.1,0.1 1.1,-0.4 2.2,-0.5 3.3,-0.6 0.5,0 1.1,0 1.6,0.1 0.5,0.1 1.1,0.3 1.6,0.7 -0.3,-0.2 -0.5,-0.3 -0.7,-0.4 -0.1,-0.1 -0.2,-0.1 -0.2,0 0.2,0.1 0.4,0.2 0.6,0.3 0.1,0.1 0.3,0.2 0.4,0.3 0.2,0.1 0.3,0.3 0.5,0.5 0,0.1 0.1,0.2 0,0.1 0.2,0.3 0.3,0.6 0.4,0.8 0.1,0.3 0.2,0.5 0.2,0.8 0,0.3 0.1,0.6 0.1,0.9 0,0.3 -0.1,0.7 -0.2,1.1 0,-0.3 0.1,-0.7 0.1,-1 0,-0.3 0,-0.7 -0.1,-1 0,0.2 0,0.3 0,0.5 0,-0.3 -0.1,-0.6 -0.1,-0.8 0.1,0.5 0.1,0.9 0.1,1 0,-0.1 0,-0.4 0,-0.4 0,0.2 0,0.4 0,0.5 0,0.1 0,0.2 0,0.4 0,-0.5 0,-1.2 -0.2,-1.9 -0.1,-0.3 -0.3,-0.6 -0.5,-0.9 -0.2,-0.3 -0.4,-0.5 -0.6,-0.6 -0.1,-0.1 0.1,0.1 0.1,0.1 -0.2,-0.1 -0.3,-0.2 -0.4,-0.3 -0.1,-0.1 -0.3,-0.2 -0.6,-0.3 -0.3,-0.1 0.2,0.1 0.4,0.2 0,0 -0.2,0 -0.4,-0.1 0,0 -0.4,-0.2 -0.8,-0.3 -0.4,-0.1 -0.9,-0.1 -1.1,-0.2 -0.4,0 -0.6,0 -0.6,0 -0.1,0 0,0 0,0 0,0 0.1,0 0,0 -0.1,0 -0.2,0 -0.6,0 -0.1,0 -0.3,0 -0.4,0 -0.4,0.1 -0.9,0.2 -1.4,0.4 -0.5,0.2 -0.9,0.4 -1.4,0.6 0.1,0 0.1,-0.1 0.2,-0.1 0.1,-0.1 -0.1,0 -0.2,0 -0.7,0.3 -1.2,0.7 -1.6,0.9 -0.3,0.3 -0.7,0.6 -1.1,1.1 -0.4,0.4 -0.8,0.9 -1,1.3 -0.1,0.1 0.1,-0.2 0.3,-0.5 0.2,-0.3 0.6,-0.7 0.7,-0.8 -0.2,0.2 -0.4,0.4 -0.6,0.6 0.4,-0.4 0.5,-0.6 0.7,-0.8 -0.3,0.3 -0.4,0.5 -0.6,0.7 -0.2,0.2 -0.3,0.4 -0.5,0.7 0,-0.1 -0.1,0 -0.3,0.3 v 0.1 c 0,0 0,0 -0.1,0.1 -0.2,0.4 -0.5,0.7 -0.7,1.1 0.2,-0.2 0.2,-0.2 0.4,-0.5 -0.1,0.1 0.1,-0.2 0.2,-0.4 -0.1,0.3 0.2,-0.2 0.2,-0.2 -0.2,0.3 -0.4,0.6 -0.6,0.9 -0.2,0.3 -0.3,0.6 -0.4,0.8 l -0.1,0.1 c -0.3,0.6 -0.6,1.2 -0.8,1.6 v -0.1 c -0.3,0.7 -0.5,1.4 -0.8,2.1 -0.2,0.7 -0.3,1.5 -0.4,2.1 0,0.2 -0.1,0.6 -0.2,1.2 -0.1,0.6 -0.2,1.2 -0.1,1.5 0,0.1 0,-0.5 0,-0.8 -0.1,0.5 0,0.9 -0.1,1.1 0.1,-1.1 -0.1,0.1 0,-0.5 0,0.5 0,1.1 0,1.4 0,-0.9 0.1,0.3 0.1,-0.6 0,0.7 0.1,1.6 0.2,2.4 0,0 0,0.1 0,0.4 l 0.1,0.2 c 0.1,0.4 -0.2,-0.7 -0.1,0 0.1,0.4 0.2,0.9 0.4,1.5 0.2,0.5 0.3,0.9 0.5,1.1 0.1,0.3 0,0 -0.1,-0.2 -0.1,-0.2 -0.2,-0.4 -0.1,0 -0.2,-0.5 -0.4,-1.2 -0.5,-1.3 0.2,0.5 0,0.2 0.1,0.5 0.1,0.2 0.1,0.4 0.2,0.5 v -0.1 c 0.2,0.4 0.4,1 0.8,1.6 0.3,0.6 0.7,1.1 1.1,1.5 0.4,0.3 0.7,0.6 1.1,0.8 0.4,0.2 0.8,0.4 1.4,0.7 -0.2,-0.1 0.1,0.1 0.2,0.1 0.2,0.1 0.3,0.1 0,0 0.5,0.2 1.1,0.3 1.1,0.3 -0.2,-0.1 -0.3,-0.1 -0.3,-0.1 0,0 -0.1,0 -0.3,-0.1 0.1,0 0.4,0.1 0.6,0.1 0.2,0 0.4,0.1 0.6,0.1 -0.1,0 -0.1,0 -0.1,0 0.3,0 0.4,0 0.4,0 0.1,0 0.1,0 0.3,0 0.1,0 0.3,0 0.6,0 0.3,0 0.6,0 0.7,-0.1 0.2,0 0.4,-0.1 0.5,-0.2 -0.1,0.1 0,0 0.2,0 0.2,0 0.4,-0.1 0.4,-0.1 0.4,-0.2 0.7,-0.3 1.2,-0.6 -0.1,0.1 0,0 0.2,-0.1 0.2,-0.1 0.3,-0.2 0.4,-0.2 0.5,-0.3 0.8,-0.6 1.1,-0.9 0.3,-0.3 0.6,-0.6 0.9,-1 0,0 -0.1,0.2 0.1,0 0.1,-0.2 0.3,-0.4 0.4,-0.6 l 0.2,-0.3 0.4,0.1 c 0,0 0.1,0 0.1,0 v 0 c 0,0 0,0 0,0 0,0 0.1,0 0.1,0 l 0.4,0.1 -0.1,0.4 c 0,0.1 0,0.1 0,0.1 -0.1,0.2 -0.1,0.4 -0.2,0.6 -0.1,0.2 -0.2,0.5 -0.5,0.9 0,0 0.2,-0.2 0.3,-0.4 0.1,-0.2 0.3,-0.5 0.3,-0.7 0,-0.1 0,-0.2 0.1,-0.3 0,-0.1 0.1,-0.1 0.1,-0.2 l 0.2,-0.5 -0.5,-0.2 c -0.1,0 -0.2,-0.1 -0.2,-0.1 l -0.5,-0.2 -0.2,0.4 c -0.1,0.2 -0.2,0.3 -0.3,0.4 0.1,-0.1 0.1,-0.2 0.2,-0.4 l 0.2,-0.4 0.5,0.2 c 0.1,0 0.2,0.1 0.2,0.1 l 0.5,0.2 -0.2,0.6 c -0.1,0.4 -0.3,0.8 -0.5,1.1 -0.2,0.4 -0.4,0.7 -0.6,1 0.2,-0.2 0.4,-0.4 0.6,-0.8 0.2,-0.4 0.5,-0.8 0.6,-1.3 l 0.2,-0.7 -0.7,-0.3 c -0.1,0 -0.2,-0.1 -0.2,-0.1 l -0.6,-0.2 -0.4,0.5 c -0.1,0.1 -0.1,0.2 -0.2,0.3 0.1,-0.1 0.1,-0.2 0.2,-0.3 l 0.4,-0.5 0.5,0.2 h 0.1 -0.1 l -0.6,-0.2 -0.3,0.5 c -0.1,0.1 -0.2,0.2 -0.2,0.3 0.1,-0.1 0.2,-0.2 0.3,-0.3 l 0.4,-0.5 0.4,0.2 h 0.1 c 0,0 -0.1,0 -0.1,0 l -0.5,-0.2 -0.3,0.5 c -0.3,0.4 -0.5,0.7 -0.8,1 0.3,-0.4 0.5,-0.5 0.3,-0.3 -0.2,0.2 -0.3,0.3 -0.4,0.4 -0.1,0.1 -0.2,0.2 -0.3,0.4 0.2,-0.2 0.4,-0.4 0.3,-0.2 -0.3,0.3 -0.5,0.5 -0.7,0.6 -0.2,0.2 -0.4,0.3 -0.8,0.5 0.1,0 -0.1,0.1 -0.4,0.3 -0.2,0.1 -0.5,0.3 -0.5,0.3 0.1,-0.1 0.2,-0.1 0.3,-0.2 -0.2,0.1 -0.4,0.3 -0.7,0.4 -0.7,0.2 0.6,-0.3 -0.5,0.1 -0.5,0.2 -0.7,0.2 -0.9,0.3 -0.2,0.1 -0.4,0.1 -0.8,0.1 0.3,-0.1 0.8,-0.2 1.4,-0.4 -0.1,0 -0.2,0.1 -0.4,0.1 0.1,0 0.3,-0.1 0.6,-0.2 0.3,-0.1 0.6,-0.2 0.8,-0.3 -0.3,0.2 -0.2,0.1 0,0.1 0.2,-0.1 0.5,-0.3 0.6,-0.3 0,-0.1 -0.4,0.2 0.1,-0.1 -0.2,0.1 -0.3,0.2 -0.5,0.3 -0.1,0.1 -0.3,0.2 -0.6,0.3 0.6,-0.3 0.9,-0.5 1.1,-0.7 0.2,-0.2 0.4,-0.4 0.9,-0.7 -0.4,0.4 0.2,-0.1 0.3,-0.1 0.2,-0.2 0.6,-0.6 0.7,-0.7 l -0.2,0.1 c 0.3,-0.4 0.6,-0.6 0.8,-0.9 l 0.4,-0.5 0.6,0.2 c 0.1,0 0.2,0.1 0.2,0.1 l 0.7,0.3 -0.2,0.7 c 0,0.1 -0.1,0.2 -0.1,0.3 0,0.1 0.1,-0.1 0.1,-0.3 l 0.2,-0.7 -0.7,-0.3 c -0.1,0 -0.2,-0.1 -0.2,-0.1 l -0.6,-0.3 -0.4,0.6 c 0,0.1 -0.1,0.1 0,0.1 0,0 0,0 0,-0.1 l 0.4,-0.6 0.7,0.3 c 0.1,0 0.2,0.1 0.2,0.1 l 0.7,0.3 -0.2,0.8 c -0.2,0.5 -0.4,0.9 -0.6,1.2 -0.2,0.3 -0.5,0.6 -0.8,1 0,0.1 0,0.1 -0.2,0.4 0.1,-0.1 -0.2,0.1 0.1,-0.3 -0.3,0.3 -0.6,0.6 -0.8,0.9 0.3,-0.3 0.3,-0.2 0.1,0 -0.1,0.2 -0.4,0.4 -0.4,0.4 -0.3,0.3 0.1,-0.1 0.3,-0.3 -0.3,0.2 -0.6,0.4 -0.7,0.6 0,0 0.2,-0.2 0.4,-0.4 0.2,-0.2 0.5,-0.5 0.7,-0.7 -0.1,0.1 -0.2,0.2 -0.3,0.3 0.2,-0.2 0.2,-0.2 0.5,-0.5 -0.3,0.3 -0.3,0.2 -0.3,0.1 0,0 0,0 0,0 0.2,-0.2 0.4,-0.4 0.3,-0.4 0.1,-0.1 0,-0.1 -0.1,0.1 -0.1,0.1 -0.3,0.3 -0.4,0.4 -0.1,0.1 -0.2,0.2 -0.4,0.3 -0.4,0.4 -0.8,0.8 -1.3,1.2 -0.3,0.2 -0.5,0.3 -0.8,0.4 -0.2,0.1 -0.4,0.2 -0.7,0.3 l -0.1,0.1 c -0.6,0.2 -1.2,0.4 -0.8,0.2 0,0 0.1,0 0.2,-0.1 0,0 0,0 0.1,0 0,0 0,0 0,0 -0.6,0.3 -1.1,0.4 -1.1,0.4 0.6,-0.2 0.6,-0.2 0.4,-0.2 -0.1,0 -0.3,0 -0.3,0 -0.4,0.1 -0.7,0.2 -1.1,0.3 0.7,-0.1 0,0.1 -0.2,0.1 0,0 -0.3,0 -0.6,0 -0.3,0 -0.6,0 -0.8,0 v 0 c -0.4,0 -1,-0.1 -1.5,-0.1 0,0 -0.6,0 -0.9,0 0.8,0.2 0.3,0.1 0.4,0.2 -0.1,0 -0.2,-0.1 -0.3,-0.1 -0.1,0 0.2,0.1 0.2,0.1 0.9,0.2 1.8,0.2 2.1,0.1 -0.3,0 -0.5,0 -0.7,0 0.2,0 0.5,0 0.7,0 0.1,0 0.3,0 0.4,0 0.2,0 0.3,0 0.5,0 h 0.2 c 0.2,0 0.5,-0.1 0.7,-0.1 -0.1,0 -0.2,0.1 -0.3,0.1 -0.1,0 -0.2,0.1 -0.6,0.1 0.1,0 0.2,0 0.5,0 0.2,0 0.5,-0.1 0.8,-0.1 0.1,0 0.1,-0.1 0.2,-0.1 -0.1,0.1 0.9,-0.2 0.2,0 -0.4,0.1 -0.8,0.2 -1.2,0.3 0.1,0 0.2,0 0.3,0 -0.3,0.1 -0.7,0.1 -1,0.1 0.1,0 0.2,0 0.2,0 -0.4,0 -0.6,0 -0.8,0 -0.1,0 -0.2,0 -0.3,0 -0.1,0 -0.1,0 -0.3,0 -0.1,0 -0.4,0 -0.8,0 -0.2,0 -0.5,0 -0.8,-0.1 -0.3,0 -0.7,-0.1 -1.2,-0.3 0.7,0.2 0.1,0 0.4,0 -0.3,-0.1 -0.6,-0.2 -0.8,-0.2 -0.2,-0.1 -0.3,-0.1 -0.5,-0.1 -0.1,-0.1 -0.1,-0.1 -0.1,-0.1 0,0 0.1,0 0.4,0.2 0.1,0 -0.1,-0.1 -0.4,-0.2 -0.2,-0.1 -0.4,-0.2 -0.4,-0.2 -0.5,-0.2 -0.8,-0.4 -1.1,-0.6 -0.3,-0.1 -0.5,-0.3 -0.7,-0.4 -0.2,-0.1 -0.4,-0.3 -0.7,-0.5 -0.3,-0.2 -0.6,-0.5 -1,-1.1 l 0.1,0.1 c -0.5,-0.6 -0.8,-1.1 -1.1,-1.7 -0.3,-0.5 -0.5,-1.1 -0.8,-1.7 -0.1,-0.4 -0.2,-0.7 -0.3,-1.1 0.1,0.2 0.3,0.9 0.3,0.6 0.1,0.5 0.3,1.1 0.5,1.6 0,0 0,-0.2 -0.1,-0.3 0.1,0.3 0.2,0.5 0.4,0.9 0,0 -0.2,-0.5 0,-0.2 0.1,0.2 0.2,0.4 0.3,0.6 0.2,0.4 0.3,0.4 0.4,0.5 0.1,0.1 0.2,0.2 0.5,0.6 -0.2,-0.1 -0.4,-0.4 -0.7,-0.7 0.1,0.2 0,0.1 -0.1,-0.1 -0.1,-0.1 -0.2,-0.3 -0.1,-0.1 0.2,0.3 0.4,0.5 0.5,0.7 0.2,0.2 0.4,0.5 0.7,0.8 -0.1,-0.1 -0.1,-0.1 -0.3,-0.2 0.3,0.3 0.6,0.7 0.9,0.9 -0.1,-0.1 0.1,0.1 0.3,0.2 0.2,0.2 0.5,0.3 0.5,0.3 -0.3,-0.2 -0.5,-0.4 -0.6,-0.5 -0.1,-0.1 -0.2,-0.2 -0.3,-0.3 -0.1,-0.1 -0.2,-0.2 -0.3,-0.3 -0.1,-0.1 -0.3,-0.3 -0.6,-0.7 0.3,0.3 0.7,0.7 1,0.8 0,0 0,0 0.1,0.1 0.2,0.1 0,-0.1 0.1,-0.1 -0.3,-0.2 -0.5,-0.4 -0.7,-0.6 -0.2,-0.2 -0.4,-0.5 -0.7,-0.8 -0.1,0 0,0.1 0.1,0.2 0.1,0.2 0.3,0.4 0.4,0.5 -0.2,-0.2 -0.3,-0.4 -0.5,-0.6 l 0.1,0.1 c -0.4,-0.5 -0.7,-1 -1,-1.6 0.2,0.3 0.3,0.4 0.4,0.5 -0.1,-0.2 -0.2,-0.4 -0.3,-0.6 0,0.1 -0.1,0.1 -0.2,-0.1 -0.3,-0.5 -0.4,-1 -0.5,-1.3 -0.1,-0.4 -0.2,-0.6 -0.2,-0.8 0,0 0,-0.1 0,-0.1 0,0.1 -0.1,-0.1 -0.2,-0.4 -0.1,-0.3 -0.2,-0.6 -0.2,-0.8 0.1,0 -0.1,-0.6 -0.1,-0.9 -0.1,-0.2 -0.1,0.1 -0.1,0.5 0.2,0.8 0.1,0.4 0.3,0.8 0.1,0.4 0.2,0.8 0.4,1.2 l -0.1,-0.3 c 0.2,0.6 0.5,1.2 0.4,1.2 -0.2,-0.3 -0.3,-0.8 -0.5,-1.2 0,0.1 0.1,0.3 0.1,0.4 -0.1,-0.4 -0.2,-0.5 -0.2,-0.6 0,-0.1 0,-0.3 -0.2,-0.7 0,0.3 0,-0.1 -0.1,-0.5 0,0.2 0.1,0.6 0.2,0.9 0.1,0.3 0.1,0.6 0.1,0.5 -0.1,-0.2 -0.2,-0.6 -0.2,-1 C 99,22.1 99,21.7 98.9,21.3 v 0 c -0.1,-0.9 -0.1,-1.2 -0.2,-1.6 0,-0.4 0,-0.9 0,-1.4 v 0 c 0,-0.2 0,-0.4 0,-0.6 0,0.3 -0.1,0.7 -0.1,1.2 l 0.1,-0.1 c -0.1,0.6 0,1 0.1,1.5 0,-0.3 -0.1,-0.8 -0.1,-1.2 0,-0.4 0,-0.8 0,-0.8 0,-0.1 0.1,-0.3 0.1,-0.4 v -0.2 c 0.1,-0.3 0.1,0 0.1,0.6 0,0.1 0,0.2 0,0.1 0,0.3 0,0.5 0,1.2 0,-0.1 0,-0.2 0,-0.4 0,0.8 0.1,1.6 0.2,1.9 C 99,19.9 99,18.7 99.1,17.6 99,17.3 99,16.9 98.9,16.7 99,15.9 99.2,14.9 99.4,14.3 v 0.1 c 0.1,-0.3 0.2,-0.6 0.3,-0.8 0.1,-0.3 0,0.2 0.1,0 0.1,-0.3 0.2,-0.7 0.3,-1 0,0 -0.1,0.3 -0.2,0.5 -0.1,0.3 -0.2,0.6 -0.3,0.8 0,-0.1 0.1,-0.2 0,-0.2 -0.1,0.2 -0.2,0.6 -0.3,0.9 -0.1,0.3 -0.1,0.6 -0.2,0.7 0,0.2 0.1,-0.5 -0.1,0.3 -0.1,0.5 -0.1,0.7 -0.1,0.8 0,0 0.2,-0.9 0.2,-0.5 0.1,-0.4 0.1,-0.6 0.3,-1.1 -0.1,0.4 -0.2,1 -0.3,1.2 -0.1,0.4 0,0.6 0,0.6 0,0 0.1,-0.1 0.1,-0.3 0,0 0,-0.3 0.1,-0.6 0,-0.3 0.1,-0.4 -0.1,0.1 0,-0.5 0.3,-1.4 0.4,-2 v 0 c 0.1,-0.3 0.2,-0.5 0.3,-0.8 0,0.1 -0.1,0.3 -0.1,0.4 0.1,-0.4 0.2,-0.7 0.3,-1.1 -0.2,0.6 0.2,-0.4 0.3,-0.6 0,-0.1 0.2,-0.5 0,-0.2 -0.2,0.4 -0.1,0.3 -0.3,0.7 0.1,-0.2 0.1,-0.4 0.2,-0.6 v 0 l 0.1,-0.4 c 0.4,-0.8 -0.1,0.4 0.4,-0.6 l -0.1,0.1 c 0.3,-0.6 0.7,-1.2 1,-1.7 0.4,-0.6 0.7,-1 1,-1.4 -0.1,0.2 -0.1,0.3 0.1,0.1 -0.2,0.3 -0.7,0.9 -0.9,1.4 -0.1,0.1 0.3,-0.6 0.6,-1.1 -0.1,0.1 -0.3,0.4 -0.5,0.7 -0.2,0.3 -0.3,0.6 -0.4,0.6 -0.4,0.6 -0.5,0.9 -0.6,1.1 -0.1,0.2 -0.2,0.4 -0.5,1 0,0 -0.1,0.3 -0.1,0.4 0.1,-0.2 0.3,-0.5 0.5,-1 0.2,-0.4 0.5,-0.9 0.7,-1.2 0,0.1 -0.1,0.2 -0.1,0.2 0.3,-0.5 0.4,-0.7 0.6,-1.1 v 0 c 0.4,-0.6 0.3,-0.3 0.5,-0.7 0.1,-0.1 0.5,-0.6 0.4,-0.5 0.2,-0.2 0.3,-0.4 0.5,-0.6 h -0.1 c 0.3,-0.3 0.4,-0.4 0.6,-0.7 V 6.1 c -0.2,0.3 -0.5,0.5 -0.7,0.8 0.3,-0.4 0.1,-0.2 0.4,-0.6 -0.2,0.3 -0.1,0.2 0,0 0.1,-0.2 0.4,-0.4 0.4,-0.4 0.1,-0.1 0.2,-0.2 0.3,-0.3 l -0.1,0.1 c 0.3,-0.2 0.3,-0.3 0.6,-0.6 -0.4,0.3 -0.6,0.5 -1,1 0.3,-0.3 0.9,-1 1.1,-1.1 0.3,-0.3 0.6,-0.5 1,-0.8 -0.3,0.3 -0.2,0.3 -0.2,0.3 0,0.1 -0.1,0.1 -0.7,0.7 0,0 0.1,-0.1 0.2,-0.1 -0.1,0 -0.3,0.2 -0.5,0.4 -0.2,0.2 -0.4,0.4 -0.5,0.6 0.1,0 -0.2,0.2 0.3,-0.2 -0.2,0.1 0.3,-0.4 0.8,-0.8 v 0.1 c 0.2,-0.2 0.4,-0.4 0.7,-0.6 L 106,4.7 c 0.3,-0.2 0.7,-0.6 1.3,-0.9 0.2,-0.1 0.6,-0.4 1,-0.6 0.3,-0.2 0.5,-0.3 0.2,-0.2 0.5,-0.2 0.9,-0.5 1.5,-0.7 -0.2,0.1 -0.5,0.2 -0.7,0.2 0.4,-0.2 0.5,-0.3 0.7,-0.3 0.1,-0.1 0.2,-0.1 0.6,-0.3 0.1,0 0.2,0 0.1,0 0.6,-0.2 1.3,-0.3 1.9,-0.4 0.7,-0.1 1.3,-0.1 1.6,-0.2 0.4,0 0.7,0 1,0.1 0.3,0 0.6,0.1 1.2,0.1 0.1,0 0.1,0 0.1,0 0,0 0.1,0 0.5,0.1 0.1,0 -0.8,-0.1 0.1,0.1 0.6,0.1 1.4,0.4 2.2,0.8 0.2,0.1 0.4,0.3 0.6,0.4 0.2,0.1 0.3,0.3 0.2,0.2 -0.3,-0.2 -0.6,-0.5 -0.9,-0.7 -0.3,-0.2 -0.6,-0.3 -0.6,-0.3 0.1,0 -0.4,-0.2 0,0 -0.5,-0.2 -0.6,-0.3 -0.8,-0.3 -0.2,0 -0.3,-0.1 -0.7,-0.2 -0.1,0 0.5,0.2 0.6,0.2 0,0 -0.4,-0.1 -0.8,-0.1 -0.3,-0.1 -0.6,-0.1 -0.2,0 0.5,0.1 0.8,0.1 1.1,0.2 0.3,0.1 0.6,0.1 1,0.4 -0.3,-0.1 -0.8,-0.3 -1.3,-0.4 0.2,0.1 0.4,0.2 0.7,0.2 0.2,0 0.3,0.1 0.5,0.1 v 0 c 0.5,0.3 0.8,0.4 1,0.6 0.2,0.1 0.5,0.3 0.9,0.7 -0.2,-0.3 -0.2,-0.3 -0.1,-0.2 0.1,0 0.1,0.1 0,-0.1 0.6,0.6 0.9,1.1 0.8,1.1 -0.2,-0.3 -0.3,-0.4 -0.4,-0.5 -0.1,-0.1 -0.1,-0.1 -0.1,-0.1 0,0 0,0 -0.1,0 -0.1,-0.1 -0.2,-0.2 -0.4,-0.4 0.1,0.1 0,0 0,0.1 0,0 0,0.1 0.3,0.4 0.3,0.3 0.3,0.3 0.2,0.2 0,-0.1 -0.1,-0.1 0.2,0.2 0,0 0,0.1 0,0.1 0.1,0.2 0.2,0.3 0.2,0.4 0.1,0.1 0.1,0.2 0.2,0.5 l 0.6,0.2 c 0.1,0.3 0.2,0.4 0.2,0.6 0.1,0.1 0.1,0.3 0.1,0.5 0,-0.1 0,0 0.1,0.1 0,0.2 0.1,0.4 0.1,0.5 0,-0.3 0,-0.5 0,-0.7 0,-0.3 -0.1,-0.6 -0.3,-1.1 0,-0.1 -0.1,-0.1 -0.1,-0.1 0,0 -0.1,-0.1 -0.2,-0.3 0.1,0.2 0.2,0.4 0.3,0.6 -0.1,-0.1 -0.1,-0.2 -0.2,-0.4 -0.1,-0.2 -0.2,-0.4 -0.3,-0.6 0.2,0.3 0.3,0.4 0.3,0.5 0,0 0.1,0 0.2,0.2 0.1,0.4 0.2,0.5 0.2,0.6 0,0.1 0.1,0.2 0.1,0.4 0,0 0,0.3 0,0.8 0,0.2 0,0.5 0,0.7 0,0.3 -0.1,0.5 -0.1,0.7 0,0 0,0 0,0 0,0 0,0 0,0 0,0 0,0 0,0 v 0 0 c 0,0 0,0 0,0 0,-0.1 0,-0.3 0.1,-0.3 0,-0.5 0,0.1 -0.1,0.3 0,0 0,0 0,0 0,0 0,0 0,0 0,0 0,0.1 0,0.1 0,0.2 0,0.3 -0.1,0.5 0,-0.1 0,-0.2 0,0 -0.1,0.3 -0.1,0.4 -0.2,0.6 0,0.1 -0.1,0.3 -0.3,0.6 0,0 0,-0.1 0,-0.2 0,-0.1 0,-0.1 -0.1,0 0,0 -0.1,0.2 -0.3,0.3 -0.2,0.2 -0.4,0.4 -0.7,0.7 0,0 -0.2,0.2 -0.4,0.3 0,0 0.1,0 0.1,-0.1 l -0.2,0.1 -0.2,0.1 c 0.2,-0.1 0.4,-0.2 0.6,-0.4 0.2,-0.1 0.4,-0.3 0.5,-0.5 v -0.1 c 0.1,-0.1 0.3,-0.3 0.4,-0.4 0.1,-0.2 0.2,-0.3 0.2,-0.4 -0.1,0.2 -0.2,0.4 -0.3,0.5 -0.1,0.1 -0.2,0.3 -0.4,0.5 -0.1,0 0.2,-0.3 0.2,-0.3 v 0.1 c 0.3,-0.2 0.4,-0.5 0.5,-0.7 0.1,-0.3 0.2,-0.5 0.4,-1 0,-0.1 0,0 0,0 0,-0.1 0,-0.2 0,-0.3 v 0 c 0,0 0,0 0,0 0.1,-0.6 0.1,-1.1 0,-1.7 0,0.1 0,0.1 0.1,0.2 0,-0.2 -0.1,-0.6 -0.2,-0.9 -0.1,-0.4 -0.3,-0.8 -0.6,-1.1 v 0 c 0,0.1 -0.1,-0.2 -0.2,-0.3 v 0 c -0.3,-0.3 -0.6,-0.6 -0.9,-0.8 0.1,0.1 0.2,0.2 0.3,0.3 0.1,0 0.2,0.2 0.4,0.3 0.1,0.1 0.2,0.3 0.2,0.2 0.1,0.2 0.2,0.4 0.3,0.6 0.1,0.2 0.2,0.4 0.2,0.5 -0.1,-0.2 0,-0.2 0,0 0.1,0.1 0.1,0.4 0.2,0.4 0,0.1 0,0.3 0.1,0.4 0,0.2 0,0.3 0,0.3 0,0.1 0,-0.2 -0.1,-0.5 -0.1,-0.2 0,0 0,0.2 0,0.2 0,0.4 0,0.1 0.1,0.3 0.1,0.5 0.1,0.9 0,0.3 0,0.6 -0.1,0.9 v 0 0 c 0,0.3 -0.1,0.6 -0.2,0.9 0.1,-0.1 0.1,-0.3 0.2,-0.4 -0.1,0.2 -0.2,0.5 -0.3,0.7 -0.1,0.2 -0.3,0.4 -0.3,0.5 0.2,-0.2 0.3,-0.5 0.5,-0.8 0,0 -0.1,0.2 -0.2,0.4 -0.1,0.2 -0.2,0.4 -0.3,0.4 -0.2,0.3 -0.4,0.6 -0.7,0.8 0.1,-0.1 0.2,-0.2 0.3,-0.3 -0.1,0.1 -0.3,0.3 -0.6,0.5 -0.3,0.2 -0.7,0.4 -1,0.5 0.2,-0.1 0.4,-0.2 0.7,-0.3 0.3,-0.1 0.6,-0.3 0.8,-0.6 0.2,-0.2 0.1,-0.2 0,-0.1 0,0 -0.1,0 -0.1,0 0,0 0,0 0.1,-0.1 -0.1,0.1 -0.3,0.3 -0.5,0.4 l -0.2,0.1 c 0.2,-0.1 0.4,-0.4 0.7,-0.7 0.2,-0.3 0.4,-0.6 0.5,-0.9 0,0.1 0,0.1 0,0.1 0.2,-0.3 0.3,-0.6 0.3,-0.9 v 0 0 c 0,-0.2 0,-0.3 0.1,-0.4 0,0.2 -0.1,0.3 -0.1,0.4 0,0 0,0 0,0 0,0 0,0 0,0 0,0 0,0 0,0 0,0 0,0 0,0 0,0 0,0 0,0 0,0 0,0 0,0 0,-0.1 0,-0.4 0,-0.5 -0.1,0.4 0,0.1 -0.1,0.4 0,-0.3 0,-0.5 0,-0.9 0,-0.2 0,0.2 0.1,0.1 0,-0.2 0,-0.3 0,-0.5 0,-0.2 0,-0.3 -0.1,-0.6 0.1,0.4 0,0.3 0,0.2 0,-0.2 -0.1,-0.4 -0.2,-0.5 0,0 0,0.1 0,0.1 -0.1,-0.2 -0.2,-0.4 -0.2,-0.5 0.1,0.3 0.2,0.5 0.2,0.4 -0.1,-0.2 -0.1,-0.4 -0.2,-0.5 0,0.1 0.1,0.1 0.1,0.2 -0.1,-0.3 -0.3,-0.6 -0.5,-0.8 -0.1,-0.1 -0.3,-0.3 -0.4,-0.3 -0.1,-0.2 -0.4,-0.4 -0.6,-0.5 h 0.1 c -0.2,-0.1 -0.4,-0.3 -0.7,-0.5 -0.3,-0.1 -0.5,-0.2 -0.6,-0.2 -0.1,-0.1 0.4,0.1 0.7,0.2 0.1,0.1 0.2,0.1 0.2,0 -0.1,0 -0.3,-0.2 -0.8,-0.4 -0.4,-0.2 -0.5,-0.2 -0.6,-0.2 -0.1,0 -0.1,0 -0.4,0 0,0 0,0 0,0 C 117.3,3 117.3,3.1 117,3 c 0.2,0 0.5,0.1 0.6,0.1 -0.1,0 -0.2,0 -0.4,-0.1 -0.2,0 -0.4,-0.1 -0.6,-0.1 0.2,0 0,0 -0.2,-0.1 -0.2,0 -0.4,0 -0.2,0 -0.7,-0.1 -1.5,0 -1.9,0.1 -0.5,0 -0.9,0.1 -1.7,0.2 0.1,0 0.3,-0.1 0.5,-0.1 0.2,-0.1 0,0 -0.2,0 -0.2,0 -0.3,0.1 0,0 -0.1,0 0,0 0.1,0 0.3,-0.1 0.5,-0.1 0.5,-0.1 -0.2,0 -0.4,0 -0.7,0.1 L 113,2.9 c -0.3,0 -0.7,0.1 -1,0.2 0,0 0.1,0 0.1,0 -1.2,0.3 -2.4,0.9 -3.3,1.4 0,0.1 -0.6,0.4 -1.2,0.9 -0.6,0.4 -1.2,1 -1.4,1.3 0.1,-0.2 0.2,-0.3 0.1,-0.2 0.1,-0.1 0.4,-0.4 0.7,-0.7 0.1,0 0.5,-0.3 0.2,-0.1 0.9,-0.7 -0.2,0 0.1,-0.2 -0.5,0.4 -0.9,0.8 -1.2,1.1 -0.3,0.3 -0.6,0.6 -0.8,1 v 0 c -0.1,0.2 -0.3,0.3 -0.4,0.5 0.3,-0.4 0.4,-0.3 -0.1,0.2 V 8.2 c -0.3,0.3 -0.7,0.9 -1,1.4 l -0.2,0.4 c -0.3,0.5 -0.4,0.5 -0.5,0.6 -0.5,0.8 -0.6,1.3 -0.9,1.9 -0.1,0.1 -0.3,0.5 -0.4,0.8 -0.1,0.3 -0.2,0.4 -0.1,0.1 -0.1,0.4 -0.1,0.6 -0.2,0.8 0,0.2 -0.1,0.5 -0.4,1.2 l 0.1,-0.4 c -0.2,0.6 -0.4,1.5 -0.5,2.2 -0.1,0.7 -0.2,1.4 -0.2,1.7 0,-0.3 -0.1,0.2 -0.2,0.7 0,0.5 0,1.1 -0.1,1.3 0,-0.1 0.1,0.4 0.1,0.5 0,0.1 0,0.3 0.1,0.5 0,-0.3 0,-0.2 0.1,-0.1 0,0 0,0 0,-0.5 0.1,0.2 0.1,0.5 0.2,0.9 0.1,0.4 0.2,0.8 0.3,1.3 h -0.1 c -0.1,-0.3 -0.1,-0.6 -0.2,-0.9 0,0.1 -0.1,-0.4 -0.1,-0.5 0.1,0.8 0.1,0.8 0.1,0.7 0,0 0,0 0,0 0,0.1 0,0.3 0.2,0.7 0.1,0.1 0,0.1 0.2,0.5 -0.1,-0.2 -0.1,-0.2 0,0.1 0,0.1 0.1,0.2 0.1,0.3 0.1,0.3 0,0.1 -0.1,-0.2 C 101,24 100.9,23.7 101,24 c -0.1,-0.3 -0.2,-0.7 -0.3,-1.1 -0.1,-0.3 -0.1,-0.6 -0.2,-0.4 0.1,0.5 0.2,0.8 0.3,1 0.1,0.2 0.2,0.5 0.4,1 v 0.1 c 0.2,0.4 0.2,0.4 0.3,0.6 0,0 0,0.1 0.1,0.4 0.3,0.6 0.6,0.9 1,1.4 -0.5,-0.7 -0.6,-1 -0.7,-1.3 -0.1,-0.3 -0.3,-0.6 -0.6,-1.4 0.1,0.1 0.2,0.5 0.3,0.8 0.1,0.3 0.3,0.6 0.3,0.6 h -0.1 c 0.3,0.5 0.5,0.9 0.9,1.5 -0.1,-0.1 -0.2,-0.2 -0.3,-0.3 0.3,0.4 0.5,0.7 0.7,0.9 0.2,0.3 0.4,0.5 0.7,0.7 -0.2,-0.2 -0.3,-0.3 -0.4,-0.4 0.3,0.3 0.7,0.7 1.1,1 0.3,0.2 0.6,0.3 0.9,0.5 0,0 0.5,0.3 0.2,0.2 0.3,0.2 0.6,0.3 0.8,0.4 0.2,0.1 0.4,0.1 0.6,0.2 0.3,0.1 0.2,0.1 -0.1,0 -0.3,-0.1 -0.6,-0.2 -0.7,-0.2 0.5,0.2 1,0.4 1.5,0.5 0.5,0.1 0.9,0.1 1.2,0.1 -0.2,0 -0.3,-0.1 -0.3,-0.1 0,0 0.4,0.1 0.7,0.1 h 0.2 c 0.4,0 0.3,0.1 0,0.1 0.2,0 0.4,0 0.6,0 0.2,0 0.4,0 0.6,0 -0.2,0 -0.3,0 -0.5,0 -0.2,0 -0.3,0 -0.5,0 -0.3,0 -0.6,0 -0.8,0 0.7,0 1,0.1 1.4,0.1 0.4,0 0.8,0 1.6,-0.2 0,0 -0.2,0.1 0.1,0 0.7,-0.2 0.2,-0.1 0.4,-0.2 -0.5,0.2 -0.8,0.2 -1.1,0.2 l 0.1,-0.1 c 0,0 0.4,-0.1 0.5,-0.1 l 0.1,-0.1 c 0,0.1 0.5,0 1,-0.2 -0.5,0.1 -0.3,0.1 -0.5,0 0.3,-0.1 0.5,-0.2 0.6,-0.2 0.2,-0.1 0.4,-0.1 0.7,-0.3 0,0 -0.6,0.3 -0.1,0.1 0.4,-0.2 0.3,-0.2 0.6,-0.4 -0.3,0.2 -0.2,0.2 -0.5,0.4 -0.4,0.2 -0.4,0.2 -0.5,0.2 -0.1,0 -0.1,0.1 -0.5,0.2 0.2,-0.1 0.4,-0.1 0.6,-0.2 -0.3,0.1 -0.4,0.2 -0.5,0.2 0,0 0,0 0,0.1 0.6,-0.2 0.8,-0.3 0.9,-0.4 0.1,-0.1 0.2,-0.2 0.6,-0.4 0.1,-0.1 0,0 -0.1,0.1 -0.1,0.1 -0.2,0.1 0,0 0.3,-0.2 0.3,-0.2 0.4,-0.2 0,0 0.1,-0.1 0.4,-0.3 l -0.1,0.1 c 0.2,-0.1 0.4,-0.3 0.6,-0.4 0.1,-0.1 0,-0.1 0,-0.1 0,-0.1 0.1,-0.2 0.5,-0.6 0,0.1 0,0.1 0,0.1 -0.2,0.4 -0.4,0.8 -0.7,1.1 0.5,-0.4 1.1,-0.8 1.6,-1.4 0.5,-0.5 0.9,-1.2 1.2,-1.8 0.1,-0.1 0,0.1 -0.1,0.4 -0.1,0.3 -0.3,0.6 -0.3,0.5 -0.1,0.2 -0.3,0.4 -0.4,0.6 0,0 0.2,-0.3 0.4,-0.6 0.1,-0.2 0.2,-0.4 0,-0.2 -0.3,0.5 -0.6,0.9 -0.9,1.2 -0.3,0.3 -0.6,0.6 -1,1 0.2,-0.1 0.5,-0.3 0.8,-0.6 0.3,-0.3 0.6,-0.7 0.9,-1 -0.2,0.3 -0.4,0.5 -0.5,0.7 0.5,-0.5 1,-1.1 1.3,-1.9 0,-0.1 0,-0.1 0.1,-0.2 -0.2,0.5 -0.4,0.8 -0.5,0.9 0.3,-0.5 0.4,-0.9 0.5,-1.1 v 0 c -0.1,0 -0.1,0 -0.2,0 l 0.1,0.1 -0.2,-0.1 h 0.1 v 0 c -0.1,-0.4 -0.2,-0.2 -0.3,-0.1 z m 0,-22 c 0,0 -0.1,0 -0.1,0 0.1,0 0,0 0.1,0 z m -10.8,26.8 c 0.9,0.3 1.9,0.4 2.9,0.4 -0.9,-0.1 -1.6,-0.2 -1.7,-0.3 -0.1,0 0,0 0.2,0 0.3,0 0.7,0.1 1.4,0.1 h 0.2 c -0.4,0 -1,0 -1.6,-0.1 -0.2,0 -0.7,0 -1.2,-0.1 -0.2,0 -0.4,-0.1 -0.6,-0.1 -0.2,0 -0.2,-0.1 -0.2,0 0.2,0.1 0.4,0.1 0.7,0.2 z m -0.6,-0.4 c -0.5,-0.2 -0.4,-0.1 -0.5,-0.2 0.2,0.1 0.4,0.2 0.5,0.2 0,0 0,0 0,0 z m -0.4,-0.1 c 0.1,0 0.1,0 0.1,0.1 z m 10,-1.5 c 0,0 0,0 0,0 0.1,0 0.2,-0.1 0.3,-0.2 -0.1,0 -0.1,0.1 -0.3,0.2 z m -0.9,0.6 -0.1,0.1 c 0.1,-0.1 0.2,-0.1 0.3,-0.2 0,0 -0.1,0 -0.2,0.1 z m -3.3,1.3 c -0.1,0.1 -0.3,0.1 -0.5,0.2 -0.2,0.1 -0.4,0.1 -0.4,0.1 0,0 0.1,0 0.3,0 0.2,0 0.4,-0.1 0.6,-0.1 0,0 0,0 0.1,-0.1 -0.2,0 -0.4,0.1 -0.3,0 0.3,0 0.4,-0.1 0.5,-0.1 0.1,-0.1 0.2,-0.1 0.5,-0.2 0.1,-0.1 -0.1,0 -0.3,0.1 -0.2,0 -0.4,0.1 -0.5,0.1 z M 118.9,3 c 0,0 0.1,0 0.1,0.1 -0.1,0 -0.3,-0.1 -0.4,-0.1 -0.7,-0.3 -1.3,-0.5 -2,-0.5 -0.3,-0.1 -0.5,-0.1 -0.7,-0.2 0.2,0 0.3,0 0.4,0 0.5,0 0.8,0.1 1,0.1 0.2,0 0.3,0.1 0.4,0.1 0.1,0 0.2,0.1 0.3,0.1 0.3,0.3 0.5,0.3 0.9,0.4 z m -8.8,0.4 c 0.1,0 0.1,-0.1 0,0 -1.5,0.7 -2.6,1.6 -3.3,2.2 0.1,0 0.3,-0.2 0.5,-0.3 0.2,-0.2 0.5,-0.3 0.7,-0.4 -0.1,0.1 -0.2,0.2 -0.3,0.2 l -0.2,0.1 c -0.2,0.1 -0.3,0.3 -0.4,0.4 0.2,-0.1 0.5,-0.4 0.8,-0.5 0,0 0.2,-0.2 0.5,-0.4 0.2,-0.2 0.5,-0.4 0.6,-0.5 -0.3,0.1 -0.5,0.3 -0.7,0.4 0.1,-0.1 0.4,-0.2 0.7,-0.4 0.3,-0.2 0.7,-0.4 0.9,-0.5 0,0 -0.2,0.1 -0.4,0.1 -0.2,0.1 -0.4,0.2 -0.4,0.2 -0.1,0 0.7,-0.4 0.2,-0.2 0.3,-0.2 0.7,-0.4 1.1,-0.5 0.4,-0.2 0.7,-0.3 1,-0.3 h 0.1 c 0.3,-0.1 0.3,-0.1 0.4,-0.2 0.1,0 0.2,-0.1 0.5,-0.2 -0.8,0.2 0.1,0 -0.5,0.2 0.2,0 0,0.1 0.6,-0.1 0.5,-0.2 0.6,-0.1 1.1,-0.2 0.3,0 -0.3,0.1 0.3,0 0.7,-0.1 0.7,-0.1 0.7,-0.2 -0.3,0 -0.5,0.1 -0.7,0.1 -0.2,0 -0.3,0.1 -0.6,0.1 0.4,-0.1 0.7,-0.2 1.1,-0.2 -0.2,0 -0.4,0 -0.5,0 0.2,0 0.4,-0.1 0.6,-0.1 0.1,0 0.2,0 0.3,0 -0.6,0 -1.2,0.1 -1.3,0.1 h 0.1 c -0.2,0 -0.6,0.1 -0.8,0.1 -0.6,0.1 -1.1,0.3 -1.2,0.3 l 0.2,-0.1 C 111.4,2.9 111.2,3 111,3 c -0.2,0.1 -0.4,0.2 -0.9,0.4 z m -9.7,19.4 c 0,-0.2 0,-0.5 0,-0.9 0,-0.4 -0.1,-1 -0.1,-2 v 0.2 c 0,-0.5 0,-1 0,-1.5 0,-0.5 0.1,-1.1 0.2,-1.7 0,0.3 0,0.4 0,0.6 0,0.1 0,0.3 0,0.6 0,-0.2 0,-0.4 0,-0.6 0,0.2 0.1,-0.4 0.2,-0.9 0,0.1 0,0.3 0,0.4 -0.1,0.3 -0.2,1 -0.1,1 0,-0.1 0,0.2 -0.1,0.5 0,0.3 -0.1,0.8 -0.1,1.1 0,0 0,-0.4 0.1,-0.6 0,-0.3 0.1,-0.4 0.1,-0.1 0,-0.5 0.1,-0.6 0.1,-1.1 0,0.5 0.1,0.1 0.1,0.5 0,-0.3 0,-0.6 0.1,-0.8 0,0 0,0.3 0,0.5 0,0.2 0,0.4 0.1,0 0,-0.2 0,-0.5 0.1,-0.7 0,-0.3 0.1,-0.5 0.1,-0.5 v 0 c 0.1,-0.6 0,-0.3 0.2,-1 0,0 -0.1,0.1 -0.1,0.4 0,0.2 0,0.3 -0.1,0.8 -0.1,0.2 0.1,-0.6 0,-0.3 0,0.1 -0.1,0.4 -0.1,0.7 0,0.3 -0.1,0.4 -0.1,0.3 0,-0.2 0.1,-0.4 0.1,-0.6 -0.1,0 0,-0.5 0,-0.5 0.1,-0.4 0.2,-0.7 0.3,-1.1 0,-0.2 -0.1,0.1 0.1,-0.5 0.1,-0.2 0.3,-0.7 0.5,-1.2 0.2,-0.5 0.4,-1 0.5,-1.2 0.1,-0.2 0.1,-0.3 0.2,-0.5 -0.1,0 -0.4,0.9 -0.3,0.6 0.1,-0.2 0.2,-0.5 0.3,-0.7 v 0.1 c 0.1,-0.2 0.2,-0.5 0.3,-0.7 -0.1,0.2 -0.4,0.7 -0.2,0.7 0.2,-0.3 0.2,-0.4 0.4,-0.7 0,0.1 -0.1,0.1 0,0.1 0.4,-0.6 0.3,-0.7 0.4,-0.8 0.2,-0.3 0,-0.2 -0.1,0 -0.2,0.2 -0.3,0.5 -0.3,0.5 0.3,-0.6 0.7,-1.3 1.1,-1.9 -0.1,0.2 -0.2,0.3 -0.1,0.3 0.3,-0.4 0,0 0.5,-0.6 0,0 0.1,-0.2 0.3,-0.5 0.2,-0.3 0.4,-0.6 0.6,-0.8 0.2,-0.2 0.2,-0.2 -0.1,0.2 0.1,0 0.5,-0.6 0.7,-0.8 0.1,-0.1 0.3,-0.3 0.4,-0.4 -0.2,0.1 -0.1,0 0.2,-0.3 v 0 c -0.3,0.3 -0.7,0.6 -1,0.9 -0.3,0.3 -0.6,0.7 -0.7,0.9 l 0.1,-0.1 c -0.6,0.7 -1.1,1.6 -1.4,1.9 0,-0.1 -0.1,0.1 -0.1,0.1 -0.1,0.2 -0.2,0.4 -0.3,0.6 v -0.1 c -0.2,0.3 -0.4,0.7 -0.5,1 v 0 c -0.2,0.5 -0.3,0.9 -0.4,1.2 0,0 0,0 0,0.2 -0.1,0.2 -0.1,0.3 -0.2,0.4 0,0 0,0 0,0 v 0 c -0.1,0.3 -0.2,0.4 -0.3,0.7 0.1,-0.3 0.2,-0.7 0.4,-1 0,-0.1 -0.1,0 -0.3,0.4 0.1,-0.2 0.1,-0.3 0,0 0,0 -0.2,0.7 -0.1,0.4 -0.2,0.5 -0.4,1.1 -0.6,1.8 -0.2,0.7 -0.4,1.5 -0.4,2.2 0.1,-0.5 0,-0.3 0,-0.1 0,0.2 -0.1,0.4 0,-0.2 -0.1,0.4 -0.1,0.6 -0.1,0.8 0,0.2 0,0.4 0,0.8 0,0.1 0,-0.5 0,-0.7 -0.1,0.7 -0.1,1.3 0,1.9 0,0.6 0.1,1.2 0.2,1.9 v 0.1 c -0.8,-0.2 -0.7,0.1 -0.7,0.4 z m 1,2.6 c 0.1,0.2 0.2,0.5 0.4,0.7 0,0 0,0 0,-0.1 0.1,0.2 0.3,0.4 0.4,0.7 -0.1,-0.2 -0.2,-0.4 -0.2,-0.5 0,-0.1 0,0 0.2,0.3 0,0 0,0.1 -0.1,0 0.1,0.2 0.3,0.5 0.5,0.7 0.2,0.2 0.3,0.4 0.2,0.2 -0.3,-0.3 -0.3,-0.4 -0.3,-0.4 0,0 0,-0.1 -0.2,-0.3 0.2,0.3 0.4,0.6 0.7,0.8 -0.3,-0.3 0,0.1 0.3,0.5 0.1,0.1 0.2,0.2 0.4,0.4 0.2,0.2 0.4,0.3 0.5,0.4 -0.1,-0.1 0.2,0.1 -0.3,-0.3 0.2,0.1 0.5,0.4 0.8,0.6 -0.1,-0.1 -0.4,-0.2 -0.4,-0.2 0.2,0.2 0.4,0.4 0.6,0.5 0.1,0.1 0.2,0.1 0.4,0.2 0,0 -0.1,0 -0.1,-0.1 0.1,0.1 0.3,0.1 0.4,0.2 -0.5,-0.3 -0.2,-0.2 -0.2,-0.2 0,0 0.3,0.2 0.5,0.3 -0.1,-0.1 -0.3,-0.2 -0.4,-0.2 0.2,0.1 0.7,0.4 0.6,0.3 -0.4,-0.2 -0.7,-0.4 -1,-0.5 -0.3,-0.2 -0.5,-0.3 -0.9,-0.6 0.1,0.1 0.2,0.2 0.3,0.2 -0.4,-0.3 -0.5,-0.4 -0.6,-0.5 -0.1,-0.1 -0.2,-0.3 -0.6,-0.6 -0.2,-0.1 -0.4,-0.4 -0.7,-0.7 -0.2,-0.3 -0.4,-0.5 -0.4,-0.5 0,0 0,-0.1 -0.1,-0.3 -0.1,-0.2 -0.3,-0.5 -0.4,-0.6 -0.1,-0.2 -0.3,-0.5 -0.5,-0.8 -0.1,-0.3 -0.2,-0.5 -0.2,-0.3 0.1,0.3 0.3,0.7 0.4,1 -0.1,-0.2 -0.2,-0.4 -0.3,-0.6 0,0.1 0.1,0.3 0.1,0.4 0.2,-0.2 0.2,-0.2 0.2,-0.1 z m 12.7,5.2 c 0,0 0,0 0,0 0,0 0,0 0,0 z" class="st1" style="fill:#121212"/><path id="path148" d="m 120.7,11.1 c 0,0 -0.1,0.1 -0.1,0.1 -0.1,0 -0.1,0.1 -0.2,0.1 -0.1,0.1 -0.2,0.1 -0.1,0.1 0,0 0,0 0.1,-0.1 0.1,0 0.1,-0.1 0.2,-0.2 0.1,0 0.2,-0.1 0.1,0 z" class="st1" style="fill:#121212"/><path id="path150" d="m 120.2,11.4 c 0,0 0,0 -0.2,0.1 0.2,-0.1 0.3,-0.2 0.5,-0.3 -0.1,0.1 -0.2,0.1 -0.3,0.2 z" class="st1" style="fill:#121212"/><path id="path152" d="m 119.5,11.4 c -0.3,0.1 -0.4,0.2 -0.9,0.3 -0.1,0 0.1,-0.1 0.3,-0.1 0.1,0 0.2,-0.1 0.3,-0.1 0.2,-0.1 0.3,-0.2 0.3,-0.1 -0.4,0.1 -0.6,0.2 -0.9,0.2 -0.2,0.1 -0.5,0.1 -0.8,0.2 0.1,0 0.2,0 0.4,0 0.1,0 0.2,0 0.3,0 0.1,0 0.2,0 0.3,-0.1 0.4,-0.1 0.8,-0.3 0.7,-0.3 z" class="st1" style="fill:#121212"/><path id="path154" d="m 119.8,11.1 c -0.1,0.1 -0.3,0.1 -0.4,0.2 v 0 l 0.2,-0.1 z" class="st1" style="fill:#121212"/><path id="path156" d="m 119.3,2.5 c 0,-0.1 -0.3,-0.1 -0.5,-0.2 0.1,0.1 0.3,0.2 0.5,0.2 z" class="st1" style="fill:#121212"/><path id="path158" d="m 108.6,6.5 c 0.8,-0.8 1.8,-1.5 2.8,-2 -0.4,0.2 -0.9,0.4 -1.3,0.7 -0.5,0.4 -1,0.8 -1.5,1.3 z" class="st1" style="fill:#121212"/><path id="path160" d="m 107.4,4.6 c 0.4,-0.3 0.7,-0.5 1,-0.7 0.3,-0.2 0.6,-0.4 1.1,-0.6 -0.6,0.3 -1,0.5 -1.3,0.8 -0.3,0.2 -0.7,0.5 -1.1,0.8 0,-0.2 0.2,-0.2 0.3,-0.3 z" class="st1" style="fill:#121212"/><path id="path162" d="m 107.5,4.2 c 0.1,0 -0.1,0.1 -0.2,0.2 -0.2,0.1 -0.3,0.3 -0.2,0.2 0.3,-0.2 0.3,-0.3 0.4,-0.3 0.1,-0.1 0.1,-0.1 0.4,-0.3 -0.2,0.1 -0.3,0.1 -0.4,0.2 z" class="st1" style="fill:#121212"/><path id="path164" d="m 112,3.2 c -0.1,0 -0.2,0.1 -0.3,0.1 0.1,0 0.2,0 0.3,-0.1 z" class="st1" style="fill:#121212"/><path id="path166" d="m 104.2,7.4 v 0 c -0.1,0 -0.2,0.2 -0.3,0.3 0.1,-0.2 0.2,-0.3 0.3,-0.3 z" class="st1" style="fill:#121212"/><path id="path168" d="M 104.3,7.2 Z" class="st1" style="fill:#121212"/><path id="path170" d="m 111.7,3.5 c 0.1,0 0.3,-0.1 0.4,-0.1 0.1,0 0.1,-0.1 0.2,-0.1 -0.2,0 -0.4,0.1 -0.6,0.2 z" class="st1" style="fill:#121212"/><path id="path172" d="m 108.2,4.8 c 0.1,-0.1 0.2,-0.2 0.3,-0.2 -0.1,0 -0.6,0.3 -0.3,0.2 z" class="st1" style="fill:#121212"/><path id="path174" d="m 102.4,9.9 c -0.1,0.1 -0.2,0.3 -0.2,0.4 v 0 c 0.1,-0.2 0.2,-0.3 0.2,-0.4 z" class="st1" style="fill:#121212"/><path id="path176" d="m 105.9,6.9 c 0.2,-0.2 -0.5,0.6 -0.1,0.2 0.4,-0.4 0.2,-0.3 0.1,-0.2 z" class="st1" style="fill:#121212"/><path id="path178" d="m 102.4,11.3 c 0,0.1 -0.1,0.1 -0.1,0.2 0,-0.1 0,-0.1 0.1,-0.2 z" class="st1" style="fill:#121212"/><path id="path180" d="m 102.4,11.3 c 0.1,-0.2 0.2,-0.4 0.3,-0.5 -0.2,0.2 -0.2,0.3 -0.3,0.5 z" class="st1" style="fill:#121212"/><path id="path182" d="m 101.4,13.5 0.1,-0.2 c 0,0.2 0,0.1 0,-0.1 0.1,-0.2 0.1,-0.2 0.1,-0.2 0,0 0,-0.1 0,-0.1 0,0.1 0,0.1 0,0.2 -0.2,0.3 -0.2,0.5 -0.2,0.4 z" class="st1" style="fill:#121212"/><path id="path184" d="m 99.7,22.4 c -0.1,-0.7 -0.1,-0.9 -0.1,-0.9 -0.1,-0.7 -0.1,-0.6 -0.2,-1 0,0.4 0,0.6 0.1,0.9 0.1,0.2 0.1,0.5 0.2,1 z" class="st1" style="fill:#121212"/><path id="path186" d="m 99.5,20.5 c 0,-0.1 0,-0.2 0,-0.3 0,0.1 0,0.2 0,0.3 z" class="st1" style="fill:#121212"/><polygon id="polygon188" points="102.8 11.6 102.9 11.4 102.9 11.2" class="st1" style="fill:#121212"/><path id="path190" d="m 99.9,23.4 c 0,-0.1 -0.1,-0.3 -0.1,-0.5 0,0 0.2,0.7 0.1,0.5 z" class="st1" style="fill:#121212"/><path id="path192" d="m 100.2,20.6 c 0,-0.1 0,-0.5 0,-0.7 0,0.2 -0.1,0.5 0,0.7 z" class="st1" style="fill:#121212"/><path id="path194" d="m 100.8,25.4 c -0.1,-0.1 -0.1,-0.3 0,-0.3 0,-0.1 -0.1,-0.2 -0.1,-0.2 -0.1,0 -0.1,0.2 0.1,0.5 z" class="st1" style="fill:#121212"/><path id="path196" d="m 100.4,21.8 v -0.1 c 0,-0.2 -0.1,-0.3 -0.1,-0.5 0,0.3 0,0.5 0.1,0.6 z" class="st1" style="fill:#121212"/><path id="path198" d="m 100.8,20.1 c 0,-0.3 -0.1,-0.1 -0.1,0.1 0,0.2 0,0.3 -0.1,-0.2 0,0.6 0,0.6 0,0.5 0,-0.1 0,-0.2 0.1,0.3 0,-0.5 0,-0.7 0.1,-0.7 z" class="st1" style="fill:#121212"/><path id="path200" d="m 100.7,20.8 c 0,0.1 0,0.2 0,0.2 0,0 0,-0.1 0,-0.2 z" class="st1" style="fill:#121212"/><path id="path202" d="M 103.1,27.7 C 103,27.6 103,27.6 103,27.6 c 0,0 0.1,0.1 0.1,0.1 z" class="st1" style="fill:#121212"/><path id="path204" d="m 101.2,23.5 c -0.1,-0.2 -0.2,-0.5 -0.3,-0.7 0.1,0.2 0.2,0.7 0.3,1 0.1,0.4 0.3,0.6 0.3,0.6 -0.1,-0.4 -0.3,-0.9 -0.4,-1.1 z" class="st1" style="fill:#121212"/><path id="path206" d="m 106.4,31 c -0.1,0 -0.2,-0.1 -0.4,-0.1 0.2,0.1 0.4,0.1 0.4,0.1 0,0 0.2,0.1 0,0 z" class="st1" style="fill:#121212"/><path id="path208" d="m 106.6,31.1 v 0 c -0.1,0 0,0 0,0 z" class="st1" style="fill:#121212"/><path id="path210" d="m 102.2,26.5 c -0.1,-0.2 -0.2,-0.4 -0.4,-0.6 0,0 0.1,0.2 0.2,0.4 0.1,0.1 0.2,0.2 0.2,0.2 z" class="st1" style="fill:#121212"/><path id="path212" d="m 109,31.5 c -0.2,0 -0.4,0 -0.6,-0.1 0.2,0.1 0.5,0.1 0.6,0.1 z" class="st1" style="fill:#121212"/><path id="path214" d="m 111.9,31.5 h 0.1 c 0.2,0 0.3,-0.1 0.5,-0.1 h -0.1 c -0.2,0 -0.3,0.1 -0.5,0.1 z" class="st1" style="fill:#121212"/><path id="path216" d="m 108.4,30.2 c -0.4,-0.1 -0.7,-0.1 -0.6,0 0.2,0.1 0.5,0.1 0.7,0.1 -0.2,-0.1 -0.2,0 -0.6,-0.1 0.2,0 0.3,0 0.5,0 z" class="st1" style="fill:#121212"/><path id="path218" d="m 109.1,28.1 c 0.1,0 0.3,0.1 0.5,0.1 0.2,0.1 0.4,0.1 0.4,0.1 -0.1,0 -0.5,-0.1 -0.3,0 0.2,0 0.4,0 0.6,0 0.4,0.1 0.2,0.1 -0.1,0.1 -0.3,0 -0.8,-0.1 -0.9,-0.1 0.4,0.1 0.7,0.1 0.9,0.2 0.3,0 0.6,0 1,0.1 -0.3,0 -0.4,0 -0.6,-0.1 0,0 0.2,0 0.5,0 0.1,0 0.3,0 0.5,0 0.2,0 0.3,0 0.4,0 -0.4,0 -0.2,0 0.1,-0.1 0,0 0.1,0 0.1,0 0,0 0.1,0 0.1,0 h -0.1 c 0,0 0,0 -0.1,0 -0.2,0 -0.4,0 -0.6,0 -0.2,0 -0.4,0 -0.5,0 0.2,0.1 -0.1,0.1 -0.5,0 -0.4,0 -0.8,-0.1 -1,-0.2 -0.1,0 -0.3,-0.1 -0.4,-0.1 -0.1,0 -0.1,0 -0.2,-0.1 0,0 0,0 0.3,0 -0.1,0 -0.3,-0.1 -0.5,-0.2 -0.2,-0.1 -0.3,-0.1 -0.3,-0.1 -0.5,-0.2 -1,-0.5 -1.4,-0.8 0,0 -0.1,-0.1 -0.1,-0.1 0,0 -0.1,0 -0.1,0 -0.4,-0.4 -0.8,-0.8 -1.2,-1.3 -0.3,-0.5 -0.6,-1 -0.9,-1.6 -0.2,-0.5 -0.4,-1.1 -0.6,-1.7 -0.2,-0.6 -0.3,-1.2 -0.3,-1.8 0,0.4 0.1,0.7 0.1,1.1 -0.1,-0.3 -0.1,-0.1 0,0.1 0,0.2 0.1,0.4 0,0.4 -0.1,-0.2 -0.1,-0.6 -0.2,-0.8 0,-0.1 0,0.2 -0.1,0.2 0.1,0.5 0.2,0.7 0.2,1 0.1,0.3 0.2,0.5 0.3,0.9 0,0 -0.2,-0.3 0,0.3 L 104,23.5 c 0.2,0.4 0.2,0.6 0.3,0.7 0,0.1 0.1,0.2 0.3,0.5 h -0.1 c 0.1,0.2 0.3,0.5 0.5,0.7 0.2,0.3 0.4,0.5 0.5,0.7 v 0 c 0.2,0.2 0.4,0.4 0.5,0.5 0.1,0.1 0.2,0.2 0.3,0.2 0.1,0.1 0.2,0.1 0.3,0.2 0.1,0.1 0.3,0.3 0.6,0.4 -0.2,-0.1 -0.4,-0.2 -0.6,-0.3 0.2,0.2 0.3,0.2 0.4,0.3 0.1,0.1 0.2,0.1 0.4,0.2 0,0 0,0.1 -0.3,-0.1 0.5,0.3 1.1,0.5 1.6,0.6 0.9,0.2 0.4,0.1 0.4,0 z" class="st1" style="fill:#121212"/><path id="path220" d="m 111.3,28.6 c 0.1,0 0.2,0 0.3,0 -0.1,0 -0.2,0 -0.3,0 z" class="st1" style="fill:#121212"/><path id="path222" d="m 104,20 c 0,0.2 0,0.3 0,0.5 0,-0.1 0,-0.3 0,-0.5 z" class="st1" style="fill:#121212"/><path id="path224" d="m 113.7,28.1 c -0.3,0.1 0.2,-0.1 0.2,-0.2 -0.2,0.1 -0.3,0.1 -0.5,0.2 -0.2,0.1 -0.3,0.1 -0.5,0.1 0,0 -0.1,0.1 -0.1,0.1 0.3,0 0.6,-0.1 0.9,-0.2 z" class="st1" style="fill:#121212"/><path id="path226" d="m 112.6,28.3 c 0,0 -0.1,0.1 -0.3,0.1 0.2,0 0.4,-0.1 0.6,-0.1 0,-0.1 -0.1,-0.1 -0.3,0 z" class="st1" style="fill:#121212"/><path id="path228" d="m 113,29.4 c -0.1,0 -0.1,0 -0.2,0 -0.1,0 -0.2,0 -0.3,0.1 0.1,-0.1 0.3,-0.1 0.5,-0.1 z" class="st1" style="fill:#121212"/><path id="path230" d="m 109.6,29.2 c 0.2,0.1 0.7,0.1 0.9,0.1 -0.3,0 -0.4,0 -0.4,-0.1 -0.1,0.1 -0.2,0.1 -0.5,0 z" class="st1" style="fill:#121212"/><path id="path232" d="m 110.2,29.7 c -0.2,0 -0.4,0 -0.6,-0.1 h 0.1 c 0.2,0 0.4,0.1 0.5,0.1 z" class="st1" style="fill:#121212"/><path id="path234" d="m 104,16.1 c 0,-0.1 0,-0.2 0,-0.3 0,0.2 0,0.3 0,0.3 z" class="st1" style="fill:#121212"/><path id="path236" d="m 103.9,20.5 c 0,-0.6 0,-0.4 0,-0.1 0,0.3 0.1,0.7 0.1,0.5 0,-0.2 -0.1,-0.4 -0.1,-0.6 v 0.1 c 0,-0.3 0,-0.5 -0.1,-0.8 0,0.2 0,0.3 -0.1,0.3 0,-0.5 0,-0.6 0,-0.7 0,0 0,-0.1 0.1,-0.5 0,-0.4 0,-0.8 0.1,-1.2 v 0.1 c 0,-0.1 0,-0.1 0,-0.2 0.1,-0.7 0.2,-1.4 0.3,-2 0.1,-0.7 0.3,-1.3 0.5,-2 0.2,-0.7 -0.2,0.4 -0.1,-0.2 -0.1,0.4 -0.3,0.9 -0.4,1.4 -0.1,0.4 -0.2,0.8 -0.1,0.8 0,0 0,-0.1 -0.1,0.1 0,0.2 0,0.3 0,0.5 0,-0.2 0.1,-0.3 0.1,-0.5 0,0.2 -0.1,0.8 -0.2,1.3 -0.1,0.5 -0.1,1 -0.1,1.1 0,-0.5 0,-0.6 0,-0.7 0,-0.2 0,-0.4 0.1,-1 0,0.1 -0.1,0.3 -0.1,0 0,1.4 -0.1,2.8 0.1,4.3 z" class="st1" style="fill:#121212"/><path id="path238" d="m 108.4,6.6 v 0 c 0,0 0,0 0,0 z" class="st1" style="fill:#121212"/><path id="path240" d="m 108,7 c -0.1,0.2 -0.3,0.4 -0.4,0.6 0.2,-0.3 0.5,-0.6 0.7,-0.8 V 6.7 c -0.1,0.1 -0.3,0.4 -0.4,0.5 z" class="st1" style="fill:#121212"/><path id="path242" d="m 107.2,8.3 c 0.3,-0.5 0.3,-0.5 0,-0.3 0.3,-0.4 0.2,-0.2 0.4,-0.5 0,0 -0.1,0.1 -0.2,0.3 -0.1,0.1 -0.2,0.3 -0.3,0.4 z" class="st1" style="fill:#121212"/><polygon id="polygon244" points="105.2 11.9 105 12.3 105.1 12.1" class="st1" style="fill:#121212"/><path id="path246" d="m 105.2,11.9 0.2,-0.4 c 0,0 -0.1,0 -0.1,0.1 z" class="st1" style="fill:#121212"/><path id="path248" d="m 105.8,10.6 c 0.1,-0.2 0.2,-0.3 0.3,-0.5 -0.1,0.1 -0.2,0.3 -0.3,0.5 z" class="st1" style="fill:#121212"/><path id="path250" d="m 105.6,11 v 0 c 0.1,-0.1 0.1,-0.3 0.2,-0.4 -0.1,0.1 -0.2,0.3 -0.2,0.4 z" class="st1" style="fill:#121212"/><path id="path252" d="m 105.3,11.5 c 0.1,0 0.1,-0.1 0.4,-0.6 l -0.1,0.1 c -0.1,0.2 -0.2,0.4 -0.3,0.5 z" class="st1" style="fill:#121212"/><path id="path254" d="m 106.5,28.1 c -0.1,-0.1 -0.3,-0.2 -0.4,-0.3 v 0 c 0.1,0.1 0.3,0.2 0.4,0.3 z" class="st1" style="fill:#121212"/><path id="path256" d="m 104.5,25.9 c -0.1,-0.1 -0.1,-0.2 -0.2,-0.2 0.1,0 0.2,0.1 0.2,0.2 z" class="st1" style="fill:#121212"/><path id="path258" d="m 103.3,24.1 c -0.2,-0.6 0.3,0.8 0,-0.3 0,-0.1 0.2,0.4 0.4,0.8 -0.1,0 -0.2,-0.5 -0.1,-0.1 0.2,0.3 0.2,0.4 0.2,0.3 0.3,0.5 0.4,0.5 0.6,0.9 -0.2,-0.3 -0.4,-0.8 -0.6,-1.3 -0.2,-0.5 -0.4,-1.1 -0.5,-1.5 -0.2,-0.5 -0.2,-0.1 -0.3,-0.1 0,0 0.1,0.4 0.2,0.7 0,0.3 0.1,0.6 0.1,0.6 z" class="st1" style="fill:#121212"/><path id="path260" d="m 103.6,25 c 0.1,0.3 0.2,0.3 0.3,0.5 0,-0.1 -0.2,-0.3 -0.3,-0.5 z" class="st1" style="fill:#121212"/><path id="path262" d="m 103.1,18.8 c 0,0 0,-0.5 0,-0.4 0,0.2 0,0.5 0,0.7 0,-0.2 0,-0.2 0,-0.3 z" class="st1" style="fill:#121212"/><path id="path264" d="m 103.1,19.4 v -0.3 c 0,0.1 0,0.2 0,0.3 z" class="st1" style="fill:#121212"/><path id="path266" d="m 103.1,18.8 c 0,0 0,0 0,0 0,0 0,0 0,0 z" class="st1" style="fill:#121212"/><path id="path268" d="m 106.6,9.1 c 0,0 0.2,-0.2 0.2,-0.4 0,0.1 -0.1,0.3 -0.2,0.4 z" class="st1" style="fill:#121212"/><path id="path270" d="m 115.8,3.8 c 0.1,0 0.2,0 0.3,0.1 C 116,3.8 116,3.8 115.8,3.8 Z" class="st1" style="fill:#121212"/><path id="path272" d="m 119.4,5.5 c 0,0 0,0 0,0 0,0 0,0 0,0 z" class="st1" style="fill:#121212"/><path id="path274" d="m 119.4,5.6 c 0,0.1 0.1,0.3 0.1,0.5 0,0.2 0.1,0.4 0.1,0.5 v 0 c 0,0.1 0,0.3 0,0.4 0,-0.2 0,-0.5 -0.1,-0.8 0.1,-0.3 0,-0.5 -0.1,-0.6 z" class="st1" style="fill:#121212"/></g></g></g><g id="g300"><path id="path282" d="m 137.3,21.3 c 0,-0.1 0,-0.2 0,-0.3 0,0 0,-0.1 0,-0.2 -0.1,-0.3 -0.1,-0.6 0,-0.9 0.1,-0.2 0.1,-0.4 0.1,-0.6 0,0 0,0 0,0 0,0.1 0,0.2 -0.1,0.4 0,0 0,0 0,0 0.1,-0.2 0.1,-0.3 0.2,-0.5 0.1,-0.4 0.3,-0.7 0.4,-1.1 0.2,-0.4 0.4,-0.7 0.7,-1.1 0.5,-0.5 1.1,-1 1.7,-1.2 0.2,-0.1 0.3,-0.2 0.5,-0.2 0.2,0 0.4,-0.1 0.6,-0.1 0.1,0 0.2,0 0.3,0 -0.2,0.1 -0.4,0.1 -0.5,0.2 -0.1,0 -0.2,0 -0.3,0.1 0,0 -0.1,0 -0.1,0.1 -0.1,0.1 -0.1,0.1 -0.2,0.1 0,0 0,0 -0.1,0 0,0 0,0.1 0,0.1 -0.1,0.1 -0.3,0.1 -0.4,0.2 -0.1,0 -0.1,0.1 -0.2,0.1 -0.2,0 -0.3,0.1 -0.5,0.2 -0.2,0.2 -0.5,0.4 -0.7,0.7 -0.5,0.4 -0.7,1 -1,1.6 -0.2,0.5 -0.3,0.9 -0.3,1.4 0,0.3 0,0.5 0,0.8 0.1,0.3 0.1,0.7 0.3,1 0.1,0.2 0.3,0.4 0.5,0.6 0.1,0.1 0.1,0.1 0.2,0.2 -0.1,-0.4 -0.3,-0.8 -0.4,-1.2 0,0 0.1,0 0.1,0 0,0.2 0.1,0.3 0.1,0.5 0,0.1 0.1,0.2 0.2,0.3 0,0 0,0 0,0 -0.1,-0.2 -0.2,-0.3 -0.2,-0.5 0,-0.1 -0.1,-0.1 0,-0.1 -0.1,-0.2 -0.2,-0.5 -0.2,-0.7 0,0 0,0 0,0 0,0.1 0,0.3 0,0.4 0,0 0,0 0,0 0,-0.2 0,-0.3 0,-0.5 0,-0.2 0,-0.5 -0.1,-0.7 -0.1,-0.3 0,-0.7 0.1,-1 0,-0.2 0.1,-0.3 0.1,-0.5 0.1,-0.2 0.1,-0.3 0.2,-0.5 0.3,-0.4 0.5,-0.9 0.9,-1.2 0.1,-0.1 0.2,-0.2 0.3,-0.2 0.1,-0.1 0.2,-0.2 0.4,-0.3 0.1,-0.1 0.3,-0.1 0.4,-0.2 0,0 0.1,0 0.1,0 0.1,-0.1 0.2,-0.1 0.3,-0.1 0,0 0.1,0 0.1,0.1 0.1,0 0.1,0 0.2,0 0,0 0,0 0,0 -0.1,0 -0.1,0.1 -0.2,0.1 -0.2,0.1 -0.4,0.2 -0.6,0.3 -0.2,0.1 -0.4,0.2 -0.5,0.4 -0.1,0.2 -0.4,0.3 -0.5,0.6 0,0 0,0 0,0 -0.2,0.2 -0.3,0.4 -0.5,0.6 -0.1,0.2 -0.2,0.4 -0.3,0.6 0,0.1 -0.1,0.1 -0.1,0.2 0,0.1 -0.1,0.2 -0.1,0.3 0,0.2 0,0.3 -0.1,0.5 0,-0.1 0,-0.1 0,-0.1 0,0 0,0 0,0 0,0.3 0,0.6 0.1,0.8 0,0 0,0 0,0 0,0 0,0 0,-0.1 0.1,0.2 0.2,0.4 0.2,0.7 0,0 0,0 0,0 0,-0.1 0,-0.3 0,-0.4 0,0 0,0 0,0 0.1,0.1 0.2,0.3 0.3,0.4 0,0 0,0 0,0 0,-0.1 0,-0.2 -0.1,-0.3 0.4,1.2 1.1,2.2 2.3,2.8 0,0 0,0.1 0,0.1 -0.2,-0.1 -0.4,-0.2 -0.6,-0.3 0,0 0,0 -0.1,0 0,0 -0.1,0 -0.1,0 0.1,0.1 0.1,0.1 0.2,0.2 0,0 0,0 0,0 -0.1,-0.1 -0.3,-0.2 -0.4,-0.2 0,0 0,0 0,0.1 0,0 0.1,0.1 0.1,0.1 0.3,0.2 0.7,0.4 1.1,0.5 0.5,0.2 1,0.2 1.5,0.2 0.4,0 0.7,-0.2 1.1,-0.2 0.4,-0.1 0.7,-0.2 1,-0.4 0.4,-0.3 0.8,-0.6 1.1,-1 0.2,-0.3 0.4,-0.6 0.5,-1 0,-0.1 0.1,-0.2 0.1,-0.4 0,-0.1 0.1,-0.2 0,-0.4 0,-0.1 -0.1,-0.1 -0.2,-0.2 0,0.1 0,0.2 0,0.3 -0.3,0.2 -0.3,0.5 -0.4,0.8 -0.1,-0.2 0,-0.4 0.1,-0.5 0.1,-0.1 0.1,-0.3 0.1,-0.5 0,-0.1 0,-0.2 0.1,-0.3 0,0 0,0 0,0 -0.1,0.2 -0.1,0.4 -0.2,0.6 0,0 0,0 0,0 0,-0.2 0.1,-0.4 0.1,-0.6 0,-0.2 0,-0.5 -0.1,-0.7 0,0 0,0 -0.1,0.1 0,-0.2 -0.1,-0.4 -0.1,-0.6 0,-0.1 0,-0.1 0,-0.2 0,-0.1 0,-0.1 0,-0.2 0,0 0,-0.1 0,-0.1 0,-0.1 -0.1,-0.3 -0.1,-0.4 -0.1,-0.3 -0.2,-0.5 -0.5,-0.7 0,0 0,-0.2 -0.1,-0.2 0,0 0,-0.1 -0.1,-0.1 -0.3,-0.2 -0.6,-0.5 -0.9,-0.7 0,0 0.1,0 0.1,0 -0.1,-0.1 -0.1,-0.1 -0.2,-0.2 0,0 0.1,0 0.1,0 -0.1,-0.1 -0.3,-0.1 -0.4,-0.2 0.2,-0.2 0.3,0.1 0.5,0 -0.2,-0.2 -0.3,-0.5 -0.6,-0.7 0,0 0.1,0 0.1,-0.1 0,0 -0.1,-0.1 -0.1,-0.1 -0.1,0 -0.2,-0.1 -0.3,-0.1 -0.1,-0.2 -0.2,-0.3 -0.3,-0.5 0.2,0 0.4,0 0.6,0 0.2,0 0.5,0.1 0.7,0.2 0.1,0 0.2,0.1 0.3,0.2 0.1,0.1 0.2,0.1 0.4,0.1 0.1,0 0.1,0.1 0.1,0.2 0,0 0,0.1 0,0.1 0.2,0 0.3,0 0.4,-0.1 0,0 0,0 0,0.1 -0.1,0.1 -0.1,0.2 -0.2,0.3 0,0.1 0,0.1 0,0.2 0,-0.1 0.1,-0.1 0.1,-0.2 0,0 0,0 0,0 0,0 0,0.1 0,0.1 0.1,-0.1 0.2,-0.1 0.2,-0.1 0,0 0,0 0,0 0.1,0.1 0.1,0.1 0.2,0.2 -0.1,0 -0.1,0.1 -0.2,0.1 0.1,0 0.1,0.1 0.2,0.1 0,-0.1 0,-0.1 0,-0.2 0.1,0.1 0.2,0.1 0.2,0.2 0,0 0,0 0,0 0,0 0,-0.1 -0.1,-0.1 0,0 0,0 0,0 0.1,0 0.1,0 0.2,0.1 0.1,0.1 0.3,0.3 0.4,0.4 0.1,0.1 0.2,0.1 0,0.3 0,0 0,0.1 0,0.1 0.1,-0.1 0.2,-0.1 0.3,-0.2 0,0.1 0.1,0.1 0.1,0.2 0.1,0.1 0.1,0.2 0.2,0.3 0.1,0.1 0,0.1 0,0.2 0,0.1 0,0.1 -0.1,0.2 0,0 0,0 0,0 0.1,-0.1 0.1,-0.1 0.2,-0.2 0,0 0,-0.1 0,-0.2 0,-0.1 -0.1,-0.2 -0.2,-0.3 0.2,0.2 0.3,0.4 0.4,0.6 0.1,0.1 0.2,0.2 0.2,0.3 0,0.1 0.1,0.2 0.1,0.3 0.1,0.4 0.3,0.8 0.2,1.3 0,0.2 0.1,0.5 0,0.7 0,0.2 0,0.3 0,0.5 0,0.5 -0.2,0.9 -0.4,1.3 0,0 0,0.1 0,0.1 0,0.1 -0.1,0.3 -0.2,0.4 -0.1,0.1 -0.1,0.3 -0.2,0.4 0,0.1 -0.1,0.1 -0.1,0.1 0,0 0,0 -0.1,0.1 -0.2,0.3 -0.4,0.5 -0.6,0.8 -0.1,0.2 -0.3,0.3 -0.5,0.4 -0.2,0.1 -0.3,0.3 -0.5,0.4 -0.2,0.2 -0.4,0.3 -0.7,0.4 -0.2,0.1 -0.3,0.2 -0.5,0.2 -0.4,0.2 -0.8,0.3 -1.2,0.4 -0.1,0 -0.2,0 -0.4,0 -0.2,0 -0.4,0 -0.6,0 -0.3,0 -0.6,0 -0.9,0 -0.4,-0.1 -0.8,-0.2 -1.1,-0.3 -0.1,0 -0.3,-0.1 -0.4,-0.2 -0.2,-0.1 -0.4,-0.2 -0.5,-0.3 -0.6,-0.3 -1,-0.7 -1.4,-1.2 -0.1,-0.1 -0.2,-0.3 -0.3,-0.5 -0.1,-0.2 -0.2,-0.3 -0.3,-0.5 -0.1,-0.2 -0.2,-0.5 -0.3,-0.7 -0.1,-0.3 -0.2,-0.5 -0.3,-0.8 0,-0.1 0,-0.2 -0.1,-0.3 0,-0.1 0,-0.2 0,-0.3 0,-0.2 0,-0.3 0,-0.5 0,-0.1 0,-0.2 0,-0.2 0,0 0,-0.1 0,-0.1 0,0 0,-0.1 0,-0.1 0,-0.2 0,-0.3 0.1,-0.5 0.1,-0.2 0.1,-0.3 0.2,-0.5 0,0.1 0,0.2 0,0.3 0,0.3 -0.1,0.5 -0.1,0.8 0,0.2 0,0.5 0,0.7 0,0.1 0,0.2 0,0.2 0.9,0 0.9,0.1 0.9,0.2 0,0 0,0.1 0,0.1 0,0.3 0.2,0.5 0.3,0.8 0,0 0,0 0.1,0 -0.2,-0.4 -0.3,-0.6 -0.4,-0.9 z m 7.6,3.1 c 0,0 0,0 0,0 0.1,0.1 0.2,0.1 0.2,0.1 0.2,-0.1 0.3,-0.2 0.5,-0.4 0,-0.1 -0.1,-0.1 -0.1,-0.1 -0.2,0.1 -0.4,0.2 -0.6,0.4 z m -6.2,-3 c 0,0 0,0 0,0 0,0.3 0.1,0.5 0.2,0.7 0,0 0,0 0.1,0 -0.1,-0.3 -0.2,-0.5 -0.3,-0.7 z m 6.7,3.7 c 0,0 -0.1,-0.1 0,0 -0.2,0 -0.4,0.1 -0.6,0.2 0,0 0,0 0,0 0.2,0 0.4,-0.1 0.6,-0.2 z m 1.2,-8.3 c 0,0 0,0 0,0 -0.1,0.1 -0.1,0.2 -0.1,0.3 0.1,-0.1 0.2,-0.1 0.2,-0.1 0,-0.1 0,-0.1 -0.1,-0.2 z m -9.1,3.3 c 0,0 0,0 0,0 0.1,-0.1 0.1,-0.2 0.1,-0.4 0,0 0,0 0,0 -0.1,0.2 -0.1,0.3 -0.1,0.4 z m 6.6,-4.7 c 0,0.1 0,0.1 0,0.1 0,0 0,0.1 0,0.1 0,0 0,0 0,0 0,-0.1 0.1,-0.1 0.1,-0.2 0,0 0,0 -0.1,0 z" class="st2" style="fill:#f95b26"/><path id="path284" d="m 143.6,23.5 c -0.2,0.1 -0.5,0.2 -0.7,0.2 -0.3,0 -0.5,0 -0.7,0 -0.1,0 -0.2,0 -0.3,0 0,0 -0.1,-0.1 -0.1,-0.1 -0.3,-0.1 -0.5,-0.2 -0.8,-0.3 -0.1,0 -0.2,0 -0.2,0 0,0 0,0 0,0 0.1,0 0.1,0.1 0.2,0.1 0,0 0,0 -0.1,0.1 -0.4,-0.1 -0.6,-0.4 -0.8,-0.7 0,0 0,0 0,0 0,0 0,0 0.1,0 -0.1,-0.1 -0.2,-0.2 -0.3,-0.3 -0.1,-0.1 -0.2,-0.1 -0.2,-0.2 -0.1,-0.2 -0.1,-0.4 -0.2,-0.6 -0.2,0 0,-0.2 -0.1,-0.3 0,0 0,0 0.1,0.1 0,-0.1 0,-0.2 0,-0.3 0,0 0,0 0,0 0,0.1 0.1,0.2 0.1,0.3 0.1,0.4 0.4,0.7 0.7,1 0.2,0.2 0.4,0.4 0.7,0.6 0.4,0.3 0.9,0.4 1.4,0.5 0.3,0 0.8,0 1.2,-0.1 0,0 0,0 0,0 z" class="st2" style="fill:#f95b26"/><path id="path286" d="m 143.6,24.1 c -0.1,0 -0.1,0 -0.2,0.1 -0.3,0 -0.7,0.1 -1,0.1 -0.2,0 -0.4,0 -0.6,-0.1 -0.1,0 -0.2,-0.1 -0.3,-0.1 -0.1,0 -0.1,-0.1 -0.2,-0.2 0.1,0 0.1,0.1 0.1,0.1 0.1,0 0.2,0 0.3,0.1 0.1,0 0.2,0 0.2,0 0.5,0.1 1,0.1 1.5,0 0.1,-0.1 0.2,-0.1 0.2,0 0,-0.1 0,0 0,0 z" class="st2" style="fill:#f95b26"/><path id="path288" d="m 141.3,23.7 c 0.4,0.1 0.9,0.2 1.3,0.3 -0.5,0 -0.9,-0.2 -1.3,-0.3 z" class="st2" style="fill:#f95b26"/><path id="path290" d="m 145.2,18.2 c -0.2,-0.2 -0.4,-0.3 -0.5,-0.5 0.1,0 0.5,0.3 0.5,0.5 z" class="st2" style="fill:#f95b26"/><path id="path292" d="m 145.2,17.9 c -0.2,-0.2 -0.4,-0.3 -0.6,-0.5 0,0 0,0 0,0 0.2,0.1 0.4,0.3 0.6,0.5 0,0 0,0 0,0 z" class="st2" style="fill:#f95b26"/><path id="path294" d="m 147.1,16.9 c -0.1,-0.1 -0.3,-0.2 -0.4,-0.3 0.2,0 0.3,0.1 0.4,0.3 z" class="st2" style="fill:#f95b26"/><path id="path296" d="m 141.2,16.1 c 0,0 -0.1,0 -0.1,-0.1 0.1,0 0.3,-0.1 0.4,-0.1 0,0 0,0 0,0 -0.1,0.1 -0.2,0.2 -0.3,0.2 z" class="st2" style="fill:#f95b26"/><path id="path298" d="m 146.7,16.3 c -0.1,-0.1 -0.3,-0.2 -0.4,-0.4 0,0 0,0 0,0 0.2,0.1 0.3,0.2 0.4,0.4 0.1,0 0.1,0 0,0 z" class="st2" style="fill:#f95b26"/></g></g></g></svg>