<svg xmlns="http://www.w3.org/2000/svg" xmlns:xlink="http://www.w3.org/1999/xlink" fill="none" stroke="none" stroke-linecap="square" stroke-miterlimit="10" version="1.1" viewBox="0 0 200 200"><clipPath id="gc0b254d74c_0_90.0"><path d="m0 0l200.0 0l0 200.0l-200.0 0l0 -200.0z" clip-rule="nonzero"/></clipPath><g clip-path="url(#gc0b254d74c_0_90.0)"><path fill="#fff" fill-rule="evenodd" d="m0 0l200.0 0l0 200.0l-200.0 0z"/><path fill="#999" fill-rule="evenodd" d="m0 0.025648031l200.0 0l0 52.0l-200.0 0z"/><path fill="#000" fill-opacity="0" fill-rule="evenodd" d="m72.078674 26.076218l55.842514 0l0 19.401573l-55.842514 0z"/><path fill="#fff" fill-rule="nonzero" d="m78.05462 41.43622l0 -11.453127l1.515625 0l0 10.093752l5.640625 0l0 1.359375l-7.15625 0zm8.5078125 -5.578125q0 -2.859375 1.53125 -4.468752q1.53125 -1.609375 3.953125 -1.609375q1.578125 0 2.84375 0.765625q1.28125 0.75 1.953125 2.109377q0.671875 1.34375 0.671875 3.0625q0 1.75 -0.703125 3.125q-0.703125 1.375 -2.0 2.09375q-1.28125 0.703125 -2.78125 0.703125q-1.609375 0 -2.890625 -0.78125q-1.265625 -0.796875 -1.921875 -2.140625q-0.65625 -1.359375 -0.65625 -2.859375zm1.5625 0.015625q0 2.078125 1.109375 3.265625q1.109375 1.1875 2.796875 1.1875q1.703125 0 2.8125 -1.203125q1.109375 -1.203125 1.109375 -3.40625q0 -1.40625 -0.484375 -2.4375q-0.46875 -1.046875 -1.375 -1.6250019q-0.90625 -0.578125 -2.046875 -0.578125q-1.609375 0 -2.765625 1.1093769q-1.15625 1.109375 -1.15625 3.6875zm16.695312 1.0625l0 -1.34375l4.859375 0l0 4.25q-1.125 0.890625 -2.3125 1.34375q-1.1875 0.453125 -2.4375 0.453125q-1.6875 0 -3.0625 -0.71875q-1.375 -0.734375 -2.078125 -2.09375q-0.703125 -1.375 -0.703125 -3.0625q0 -1.671875 0.6875 -3.125q0.703125 -1.4531269 2.015625 -2.156252q1.3125 -0.703125 3.03125 -0.703125q1.234375 0 2.234375 0.40625q1.015625 0.40625 1.578125 1.125q0.578125 0.7187519 0.875 1.8750019l-1.375 0.375q-0.25 -0.875 -0.640625 -1.375q-0.375 -0.5000019 -1.09375 -0.7968769q-0.703125 -0.3125 -1.578125 -0.3125q-1.03125 0 -1.796875 0.328125q-0.75 0.3125 -1.21875 0.8281269q-0.46875 0.515625 -0.71875 1.125q-0.4375 1.0625 -0.4375 2.3125q0 1.53125 0.515625 2.5625q0.53125 1.03125 1.53125 1.53125q1.015625 0.5 2.15625 0.5q0.984375 0 1.921875 -0.375q0.9375 -0.390625 1.421875 -0.8125l0 -2.140625l-3.375 0zm6.6328125 -1.078125q0 -2.859375 1.53125 -4.468752q1.53125 -1.609375 3.953125 -1.609375q1.578125 0 2.84375 0.765625q1.28125 0.75 1.953125 2.109377q0.671875 1.34375 0.671875 3.0625q0 1.75 -0.703125 3.125q-0.703125 1.375 -2.0 2.09375q-1.28125 0.703125 -2.78125 0.703125q-1.609375 0 -2.890625 -0.78125q-1.265625 -0.796875 -1.921875 -2.140625q-0.65625 -1.359375 -0.65625 -2.859375zm1.5625 0.015625q0 2.078125 1.109375 3.265625q1.109375 1.1875 2.796875 1.1875q1.703125 0 2.8125 -1.203125q1.109375 -1.203125 1.109375 -3.40625q0 -1.40625 -0.484375 -2.4375q-0.46875 -1.046875 -1.375 -1.6250019q-0.90625 -0.578125 -2.046875 -0.578125q-1.609375 0 -2.765625 1.1093769q-1.15625 1.109375 -1.15625 3.6875z"/><path fill="#eee" fill-rule="evenodd" d="m89.29097 15.225806l21.41732 0l0 4.503936l-21.41732 0z"/><path fill="#eee" fill-rule="evenodd" d="m114.7806 15.225806l21.41732 0l0 4.503936l-21.41732 0z"/><path fill="#eee" fill-rule="evenodd" d="m63.80134 15.225806l21.41732 0l0 4.503936l-21.41732 0z"/></g></svg>