<svg xmlns="http://www.w3.org/2000/svg" xmlns:xlink="http://www.w3.org/1999/xlink" fill="none" stroke="none" stroke-linecap="square" stroke-miterlimit="10" version="1.1" viewBox="0 0 200 200"><clipPath id="gc0b254d74c_0_112.0"><path d="m0 0l200.0 0l0 200.0l-200.0 0l0 -200.0z" clip-rule="nonzero"/></clipPath><g clip-path="url(#gc0b254d74c_0_112.0)"><path fill="#fff" fill-rule="evenodd" d="m0 0l200.0 0l0 200.0l-200.0 0z"/><path fill="#999" fill-rule="evenodd" d="m0 0.025648031l200.0 0l0 52.0l-200.0 0z"/><path fill="#000" fill-opacity="0" fill-rule="evenodd" d="m0 13.766404l200.0 0l0 33.92126l-200.0 0z"/><path fill="#fff" fill-rule="nonzero" d="m56.05957 33.615154l2.640625 0.671875q-0.828125 3.265625 -3.0 4.984375q-2.15625 1.71875 -5.296875 1.71875q-3.234375 0 -5.265625 -1.3125q-2.03125 -1.328125 -3.09375 -3.828125q-1.0625 -2.5 -1.0625 -5.375q0 -3.125 1.1875 -5.453125q1.203125 -2.34375 3.40625 -3.546875q2.21875 -1.21875 4.875 -1.21875q3.0 0 5.046875 1.53125q2.0625 1.53125 2.859375 4.3125l-2.609375 0.609375q-0.6875 -2.1875 -2.015625 -3.171875q-1.328125 -1.0 -3.34375 -1.0q-2.3125 0 -3.859375 1.109375q-1.546875 1.09375 -2.1875 2.96875q-0.625 1.859375 -0.625 3.84375q0 2.5625 0.75 4.46875q0.75 1.90625 2.3125 2.859375q1.578125 0.9375 3.40625 0.9375q2.234375 0 3.78125 -1.28125q1.546875 -1.296875 2.09375 -3.828125zm19.064453 -13.015625l2.65625 0l0 11.578125q0 3.03125 -0.6875 4.8125q-0.6875 1.765625 -2.46875 2.890625q-1.78125 1.109375 -4.6875 1.109375q-2.8125 0 -4.609375 -0.96875q-1.78125 -0.96875 -2.546875 -2.8125q-0.765625 -1.84375 -0.765625 -5.03125l0 -11.578125l2.65625 0l0 11.5625q0 2.625 0.484375 3.859375q0.484375 1.234375 1.65625 1.90625q1.1875 0.671875 2.90625 0.671875q2.921875 0 4.15625 -1.328125q1.25 -1.328125 1.25 -5.109375l0 -11.5625zm6.173828 13.609375l2.5 -0.21875q0.171875 1.5 0.8125 2.46875q0.65625 0.953125 2.015625 1.5625q1.375 0.59375 3.09375 0.59375q1.515625 0 2.671875 -0.453125q1.15625 -0.453125 1.71875 -1.234375q0.578125 -0.796875 0.578125 -1.71875q0 -0.953125 -0.546875 -1.65625q-0.546875 -0.703125 -1.796875 -1.171875q-0.8125 -0.328125 -3.578125 -0.984375q-2.765625 -0.65625 -3.859375 -1.25q-1.4375 -0.75 -2.140625 -1.859375q-0.703125 -1.125 -0.703125 -2.5q0 -1.515625 0.859375 -2.828125q0.859375 -1.328125 2.515625 -2.015625q1.65625 -0.6875 3.671875 -0.6875q2.234375 0 3.9375 0.71875q1.703125 0.71875 2.609375 2.125q0.921875 1.390625 0.984375 3.15625l-2.546875 0.1875q-0.203125 -1.90625 -1.390625 -2.875q-1.171875 -0.96875 -3.484375 -0.96875q-2.40625 0 -3.515625 0.890625q-1.09375 0.875 -1.09375 2.109375q0 1.09375 0.78125 1.78125q0.765625 0.703125 4.0 1.4375q3.234375 0.71875 4.4375 1.265625q1.75 0.8125 2.578125 2.046875q0.84375 1.234375 0.84375 2.859375q0 1.59375 -0.921875 3.015625q-0.921875 1.40625 -2.640625 2.203125q-1.703125 0.78125 -3.859375 0.78125q-2.71875 0 -4.5625 -0.796875q-1.828125 -0.796875 -2.875 -2.390625q-1.046875 -1.59375 -1.09375 -3.59375zm24.675781 6.4375l0 -17.671875l-6.609375 0l0 -2.375l15.890625 0l0 2.375l-6.640625 0l0 17.671875l-2.640625 0zm10.691406 -9.765625q0 -4.984375 2.671875 -7.8125q2.6875 -2.828125 6.921875 -2.828125q2.78125 0 5.0 1.328125q2.234375 1.328125 3.390625 3.703125q1.171875 2.375 1.171875 5.375q0 3.046875 -1.234375 5.453125q-1.21875 2.40625 -3.484375 3.65625q-2.25 1.234375 -4.859375 1.234375q-2.828125 0 -5.0625 -1.359375q-2.21875 -1.375 -3.375 -3.734375q-1.140625 -2.375 -1.140625 -5.015625zm2.734375 0.046875q0 3.625 1.9375 5.71875q1.953125 2.078125 4.890625 2.078125q3.0 0 4.921875 -2.109375q1.9375 -2.109375 1.9375 -5.984375q0 -2.4375 -0.828125 -4.265625q-0.8125 -1.828125 -2.40625 -2.828125q-1.59375 -1.0 -3.578125 -1.0q-2.8125 0 -4.84375 1.9375q-2.03125 1.921875 -2.03125 6.453125zm19.763672 9.71875l0 -20.046875l4.0 0l4.734375 14.1875q0.65625 1.984375 0.953125 2.96875q0.34375 -1.09375 1.078125 -3.203125l4.796875 -13.953125l3.5625 0l0 20.046875l-2.546875 0l0 -16.78125l-5.828125 16.78125l-2.390625 0l-5.796875 -17.0625l0 17.0625l-2.5625 0z"/></g></svg>