<svg xmlns="http://www.w3.org/2000/svg" xmlns:xlink="http://www.w3.org/1999/xlink" fill="none" stroke="none" stroke-linecap="square" stroke-miterlimit="10" version="1.1" viewBox="0 0 200 200"><clipPath id="gc0b254d74c_0_112.0"><path d="m0 0l200.0 0l0 200.0l-200.0 0l0 -200.0z" clip-rule="nonzero"/></clipPath><g clip-path="url(#gc0b254d74c_0_112.0)"><path fill="#fff" fill-rule="evenodd" d="m0 0l200.0 0l0 200.0l-200.0 0z"/><path fill="#999" fill-rule="evenodd" d="m0 0.025648031l200.0 0l0 52.0l-200.0 0z"/><path fill="#000" fill-opacity="0" fill-rule="evenodd" d="m0 13.766404l200.0 0l0 33.92126l-200.0 0z"/><path fill="#fff" fill-rule="nonzero" d="m40.18164 40.646404l0 -20.046875l6.90625 0q2.34375 0 3.578125 0.296875q1.71875 0.390625 2.9375 1.421875q1.578125 1.34375 2.359375 3.4375q0.796875 2.078125 0.796875 4.765625q0 2.28125 -0.53125 4.046875q-0.53125 1.75 -1.375 2.90625q-0.828125 1.15625 -1.828125 1.828125q-0.984375 0.65625 -2.390625 1.0q-1.390625 0.34375 -3.21875 0.34375l-7.234375 0zm2.65625 -2.359375l4.28125 0q1.984375 0 3.109375 -0.375q1.125 -0.375 1.796875 -1.046875q0.9375 -0.9375 1.46875 -2.53125q0.53125 -1.59375 0.53125 -3.859375q0 -3.140625 -1.03125 -4.828125q-1.03125 -1.6875 -2.515625 -2.265625q-1.0625 -0.40625 -3.421875 -0.40625l-4.21875 0l0 15.3125zm17.626953 2.359375l0 -20.046875l14.484375 0l0 2.375l-11.828125 0l0 6.125l11.078125 0l0 2.359375l-11.078125 0l0 6.828125l12.296875 0l0 2.359375l-14.953125 0zm18.753906 0l0 -20.046875l13.515625 0l0 2.375l-10.859375 0l0 6.203125l9.40625 0l0 2.359375l-9.40625 0l0 9.109375l-2.65625 0zm13.214844 0l7.703125 -20.046875l2.859375 0l8.203125 20.046875l-3.015625 0l-2.34375 -6.078125l-8.375 0l-2.203125 6.078125l-2.828125 0zm5.796875 -8.234375l6.78125 0l-2.078125 -5.546875q-0.96875 -2.53125 -1.421875 -4.15625q-0.390625 1.921875 -1.09375 3.828125l-2.1875 5.875zm28.238281 -11.8125l2.65625 0l0 11.578125q0 3.03125 -0.6875 4.8125q-0.6875 1.765625 -2.46875 2.890625q-1.78125 1.109375 -4.6875 1.109375q-2.8125 0 -4.609375 -0.96875q-1.78125 -0.96875 -2.546875 -2.8125q-0.765625 -1.84375 -0.765625 -5.03125l0 -11.578125l2.65625 0l0 11.5625q0 2.625 0.484375 3.859375q0.484375 1.234375 1.65625 1.90625q1.1875 0.671875 2.90625 0.671875q2.921875 0 4.15625 -1.328125q1.25 -1.328125 1.25 -5.109375l0 -11.5625zm6.955078 20.046875l0 -20.046875l2.65625 0l0 17.6875l9.875 0l0 2.359375l-12.53125 0zm18.71289 0l0 -17.671875l-6.609375 0l0 -2.375l15.890625 0l0 2.375l-6.640625 0l0 17.671875l-2.640625 0z"/></g></svg>