<svg xmlns="http://www.w3.org/2000/svg" xmlns:xlink="http://www.w3.org/1999/xlink" fill="none" stroke="none" stroke-linecap="square" stroke-miterlimit="10" version="1.1" viewBox="0 0 200 200"><clipPath id="gc0b254d74c_0_62.0"><path d="m0 0l200.0 0l0 200.0l-200.0 0l0 -200.0z" clip-rule="nonzero"/></clipPath><g clip-path="url(#gc0b254d74c_0_62.0)"><path fill="#fff" fill-rule="evenodd" d="m0 0l200.0 0l0 200.0l-200.0 0z"/><path fill="#999" fill-rule="evenodd" d="m0 0.025648031l200.0 0l0 52.0l-200.0 0z"/><path fill="#000" fill-opacity="0" fill-rule="evenodd" d="m-2.0761843 13.77766l55.842518 0l0 19.401573l-55.842518 0z"/><path fill="#fff" fill-rule="nonzero" d="m3.8997622 29.137661l0 -11.453125l1.515625 0l0 10.09375l5.640625 0l0 1.359375l-7.15625 0zm8.5078125 -5.578125q0 -2.859375 1.53125 -4.46875q1.53125 -1.609375 3.953126 -1.609375q1.578125 0 2.84375 0.765625q1.28125 0.75 1.953125 2.109375q0.671875 1.34375 0.671875 3.0625q0 1.75 -0.703125 3.125q-0.703125 1.375 -2.0 2.09375q-1.28125 0.703125 -2.78125 0.703125q-1.609375 0 -2.890626 -0.78125q-1.265625 -0.796875 -1.921875 -2.140625q-0.65625 -1.359375 -0.65625 -2.859375zm1.5625 0.015625q0 2.078125 1.109375 3.265625q1.109376 1.1875 2.796876 1.1875q1.703125 0 2.8125 -1.203125q1.109375 -1.203125 1.109375 -3.40625q0 -1.40625 -0.484375 -2.4375q-0.46875 -1.046875 -1.375 -1.625q-0.90625 -0.578125 -2.046875 -0.578125q-1.609375 0 -2.765626 1.109375q-1.15625 1.109375 -1.15625 3.6875zm16.695312 1.0625l0 -1.34375l4.859375 0l0 4.25q-1.125 0.890625 -2.3125 1.34375q-1.1875 0.453125 -2.4375 0.453125q-1.6874981 0 -3.062498 -0.71875q-1.375 -0.734375 -2.078125 -2.09375q-0.703125 -1.375 -0.703125 -3.0625q0 -1.671875 0.6875 -3.125q0.703125 -1.453125 2.015625 -2.15625q1.3125 -0.703125 3.031248 -0.703125q1.234375 0 2.234375 0.40625q1.015625 0.40625 1.578125 1.125q0.578125 0.71875 0.875 1.875l-1.375 0.375q-0.25 -0.875 -0.640625 -1.375q-0.375 -0.5 -1.09375 -0.796875q-0.703125 -0.3125 -1.578125 -0.3125q-1.0312481 0 -1.7968731 0.328125q-0.75 0.3125 -1.21875 0.828125q-0.46875 0.515625 -0.71875 1.125q-0.4375 1.0625 -0.4375 2.3125q0 1.53125 0.515625 2.5625q0.53125 1.03125 1.53125 1.53125q1.015625 0.5 2.156248 0.5q0.984375 0 1.921875 -0.375q0.9375 -0.390625 1.421875 -0.8125l0 -2.140625l-3.375 0zm6.6328125 -1.078125q0 -2.859375 1.53125 -4.46875q1.53125 -1.609375 3.953125 -1.609375q1.578125 0 2.84375 0.765625q1.28125 0.75 1.953125 2.109375q0.671875 1.34375 0.671875 3.0625q0 1.75 -0.703125 3.125q-0.703125 1.375 -2.0 2.09375q-1.28125 0.703125 -2.78125 0.703125q-1.609375 0 -2.890625 -0.78125q-1.265625 -0.796875 -1.921875 -2.140625q-0.65625 -1.359375 -0.65625 -2.859375zm1.5625 0.015625q0 2.078125 1.109375 3.265625q1.109375 1.1875 2.796875 1.1875q1.703125 0 2.8125 -1.203125q1.109375 -1.203125 1.109375 -3.40625q0 -1.40625 -0.484375 -2.4375q-0.46875 -1.046875 -1.375 -1.625q-0.90625 -0.578125 -2.046875 -0.578125q-1.609375 0 -2.765625 1.109375q-1.15625 1.109375 -1.15625 3.6875z"/><path fill="#eee" fill-rule="evenodd" d="m89.29097 36.725807l21.41732 0l0 4.503937l-21.41732 0z"/><path fill="#eee" fill-rule="evenodd" d="m114.7806 36.725807l21.41732 0l0 4.503937l-21.41732 0z"/><path fill="#eee" fill-rule="evenodd" d="m63.80134 36.725807l21.41732 0l0 4.503937l-21.41732 0z"/><path fill="#fff" fill-rule="evenodd" d="m192.17303 17.551239c-0.26914978 0 -1.2051239 0.05201149 -1.9422607 0.73101425c-0.81970215 0.7555046 -0.7065277 1.6547413 -0.67900085 1.8107166l0 1.4437218l-1.3641815 0c-0.10397339 0 -0.18962097 0.08565521 -0.18962097 0.19270897l0 1.9422588c0 0.107055664 0.08564758 0.19265366 0.18962097 0.19265366l1.2999268 0l0 5.34964c0 0.10402107 0.08564758 0.18961906 0.19270325 0.18961906l2.2022705 0c0.10395813 0 0.18962097 -0.08559799 0.18962097 -0.18961906l0 -5.3251514l1.4956665 0c0.09486389 0 0.1774292 -0.073410034 0.189682 -0.16822052l0.22634888 -1.9697819c0.006072998 -0.055042267 -0.012237549 -0.11008644 -0.048980713 -0.14985275c-0.03364563 -0.03976631 -0.08564758 -0.06425476 -0.1407013 -0.06425476l-1.7220154 0l0 -1.232645c0 -0.37317467 0.20185852 -0.56279373 0.59643555 -0.56279373l1.1255798 0c0.104034424 0 0.189682 -0.08565521 0.189682 -0.18962097l0 -1.807684c0 -0.10705376 -0.08564758 -0.19270897 -0.189682 -0.19270897z"/><path fill="#fff" fill-rule="evenodd" d="m179.92747 20.778847c-1.5108337 0 -2.6763306 1.1655006 -2.6763306 2.6763325c0 1.5108337 1.1654968 2.7195015 2.6763306 2.7195015c1.5108337 0 2.719513 -1.2086678 2.719513 -2.7195015c0 -1.5108318 -1.2086792 -2.6763325 -2.719513 -2.6763325zm-1.597168 2.6763325c0 0.90650177 0.6906738 1.6403351 1.597168 1.6403351c0.9065094 0 1.6403351 -0.7338333 1.6403351 -1.6403351c0 -0.90649986 -0.7338257 -1.5971661 -1.6403351 -1.5971661c-0.90649414 0 -1.597168 0.6906662 -1.597168 1.5971661z"/><path fill="#fff" fill-rule="evenodd" d="m183.16498 19.69968c-0.3021698 0 -0.5179901 0.21583366 -0.5179901 0.51799965c0 0.302166 0.21582031 0.56116676 0.5179901 0.56116676c0.3021698 0 0.5611725 -0.25900078 0.5611725 -0.56116676c0 -0.302166 -0.2590027 -0.51799965 -0.5611725 -0.51799965z"/><path fill="#fff" fill-rule="evenodd" d="m176.17198 17.541348c-1.208664 0 -2.1583405 0.94966507 -2.1583405 2.1583328l0 7.554167c0 1.1654987 0.9496765 2.1583328 2.1583405 2.1583328l7.5541687 0c1.1654968 0 2.1583252 -0.9928341 2.1583252 -2.1583328l0 -7.554167c0 -1.2086678 -0.99282837 -2.1583328 -2.1583252 -2.1583328zm7.5541687 1.0791664l-7.5541687 0c-0.6043396 0 -1.0791626 0.47483253 -1.0791626 1.0791664l0 7.554167c0 0.56116676 0.474823 1.0791664 1.0791626 1.0791664l7.5541687 0c0.5611572 0 1.0791626 -0.51799965 1.0791626 -1.0791664l0 -7.554167c0 -0.6043339 -0.5180054 -1.0791664 -1.0791626 -1.0791664z"/><path fill="#fff" fill-rule="evenodd" d="m167.34209 17.555166c-1.7110138 0 -3.1056366 1.392271 -3.1056366 3.105568c0 0.13560295 0.0090789795 0.26898956 0.027160645 0.40008926c-2.1246796 -0.18535423 -4.100174 -1.2295761 -5.458557 -2.8931217c-0.04324341 -0.055641174 -0.10899353 -0.08682251 -0.17842102 -0.08682251c-0.006790161 0 -0.013656616 2.7656555E-4 -0.020523071 9.0026855E-4c-0.07455444 0.0067920685 -0.14466858 0.04975128 -0.18305969 0.11530113c-0.27349854 0.4723587 -0.4203949 1.0125542 -0.4203949 1.5618267c0 0.7481384 0.26670837 1.4578896 0.73905945 2.0116673c-0.14239502 -0.04975128 -0.28250122 -0.11079788 -0.4158783 -0.18535423c-0.03451538 -0.018985748 -0.07345581 -0.028549194 -0.112457275 -0.028549194c-0.040130615 0 -0.080322266 0.010187149 -0.11579895 0.030765533c-0.07232666 0.040742874 -0.11529541 0.11530113 -0.11758423 0.19664955c0 0.013580322 0 0.027162552 0 0.04067421c0 1.1188469 0.60124207 2.1223927 1.5189362 2.6716652c-0.07913208 -0.009008408 -0.15818787 -0.020301819 -0.23510742 -0.03388405c-0.015167236 -0.0029792786 -0.03048706 -0.0044345856 -0.045654297 -0.0044345856c-0.06590271 0 -0.12944031 0.027578354 -0.17358398 0.07899284c-0.054244995 0.0610466 -0.07234192 0.14696693 -0.047454834 0.22602844c0.34132385 1.0623741 1.2160645 1.8421097 2.2760773 2.0817204c-0.87924194 0.54927254 -1.882782 0.8363457 -2.9382935 0.8363457c-0.21923828 0 -0.44076538 -0.011363983 -0.65779114 -0.038455963c-0.008178711 -9.021759E-4 -0.016357422 -0.0013179779 -0.024520874 -0.0013179779c-0.09736633 0 -0.18847656 0.061185837 -0.22180176 0.15500641c-0.03617859 0.1017189 0.0022125244 0.21702003 0.09492493 0.27577782c1.3538818 0.8679447 2.920288 1.3267918 4.5272827 1.3267918c3.1621857 0 5.1398926 -1.4917736 6.242874 -2.7417202c1.3742523 -1.5596085 2.1631317 -3.6232433 2.1631317 -5.6642895c0 -0.08363533 -0.0022735596 -0.169487 -0.004562378 -0.25540733c0.54248047 -0.40909576 1.0081177 -0.90411377 1.3901215 -1.4714031c0.05647278 -0.08813858 0.049682617 -0.2011509 -0.01586914 -0.28028297c-0.046142578 -0.05383873 -0.11212158 -0.08356476 -0.17953491 -0.08356476c-0.031661987 0 -0.06361389 0.0065135956 -0.09396362 0.020301819c-0.22824097 0.0994339 -0.46105957 0.18528557 -0.70066833 0.25540733c0.28256226 -0.32095718 0.49952698 -0.6961689 0.63061523 -1.1075516c0.029388428 -0.0927124 0 -0.19436264 -0.07684326 -0.25540733c-0.042892456 -0.032844543 -0.09429932 -0.04940605 -0.14585876 -0.04940605c-0.040740967 0 -0.08169556 0.010324478 -0.118621826 0.031320572c-0.50624084 0.3005848 -1.0532227 0.51760674 -1.6273804 0.6442013c-0.5786438 -0.5650711 -1.3629608 -0.8860283 -2.1743622 -0.8860283z"/></g></svg>