<svg xmlns="http://www.w3.org/2000/svg" xmlns:xlink="http://www.w3.org/1999/xlink" fill="none" stroke="none" stroke-linecap="square" stroke-miterlimit="10" version="1.1" viewBox="0 0 200 200"><clipPath id="gc54a49d2c5_0_8.0"><path d="m0 0l200.0 0l0 200.0l-200.0 0l0 -200.0z" clip-rule="nonzero"/></clipPath><g clip-path="url(#gc54a49d2c5_0_8.0)"><path fill="#fff" fill-rule="evenodd" d="m0 0l200.0 0l0 200.0l-200.0 0z"/><path fill="#999" fill-rule="evenodd" d="m0 0.027962467l72.25197 0l0 200.0l-72.25197 0z"/><path fill="#000" fill-opacity="0" fill-rule="evenodd" d="m-2.0761843 27.40628l55.842518 0l0 19.401573l-55.842518 0z"/><path fill="#fff" fill-rule="nonzero" d="m3.8997622 42.76628l0 -11.453127l1.515625 0l0 10.093752l5.640625 0l0 1.359375l-7.15625 0zm8.5078125 -5.578125q0 -2.859375 1.53125 -4.46875q1.53125 -1.6093769 3.953126 -1.6093769q1.578125 0 2.84375 0.765625q1.28125 0.7500019 1.953125 2.109377q0.671875 1.34375 0.671875 3.0625q0 1.75 -0.703125 3.125q-0.703125 1.375 -2.0 2.09375q-1.28125 0.703125 -2.78125 0.703125q-1.609375 0 -2.890626 -0.78125q-1.265625 -0.796875 -1.921875 -2.140625q-0.65625 -1.359375 -0.65625 -2.859375zm1.5625 0.015625q0 2.078125 1.109375 3.265625q1.109376 1.1875 2.796876 1.1875q1.703125 0 2.8125 -1.203125q1.109375 -1.203125 1.109375 -3.40625q0 -1.40625 -0.484375 -2.4375q-0.46875 -1.046875 -1.375 -1.625q-0.90625 -0.578125 -2.046875 -0.578125q-1.609375 0 -2.765626 1.109375q-1.15625 1.109375 -1.15625 3.6875zm16.695312 1.0625l0 -1.34375l4.859375 0l0 4.25q-1.125 0.890625 -2.3125 1.34375q-1.1875 0.453125 -2.4375 0.453125q-1.6874981 0 -3.062498 -0.71875q-1.375 -0.734375 -2.078125 -2.09375q-0.703125 -1.375 -0.703125 -3.0625q0 -1.671875 0.6875 -3.125q0.703125 -1.453125 2.015625 -2.156252q1.3125 -0.703125 3.031248 -0.703125q1.234375 0 2.234375 0.40625q1.015625 0.40625 1.578125 1.1250019q0.578125 0.71875 0.875 1.875l-1.375 0.375q-0.25 -0.875 -0.640625 -1.375q-0.375 -0.5 -1.09375 -0.796875q-0.703125 -0.3125 -1.578125 -0.3125q-1.0312481 0 -1.7968731 0.328125q-0.75 0.3125 -1.21875 0.828125q-0.46875 0.515625 -0.71875 1.125q-0.4375 1.0625 -0.4375 2.3125q0 1.53125 0.515625 2.5625q0.53125 1.03125 1.53125 1.53125q1.015625 0.5 2.156248 0.5q0.984375 0 1.921875 -0.375q0.9375 -0.390625 1.421875 -0.8125l0 -2.140625l-3.375 0zm6.6328125 -1.078125q0 -2.859375 1.53125 -4.46875q1.53125 -1.6093769 3.953125 -1.6093769q1.578125 0 2.84375 0.765625q1.28125 0.7500019 1.953125 2.109377q0.671875 1.34375 0.671875 3.0625q0 1.75 -0.703125 3.125q-0.703125 1.375 -2.0 2.09375q-1.28125 0.703125 -2.78125 0.703125q-1.609375 0 -2.890625 -0.78125q-1.265625 -0.796875 -1.921875 -2.140625q-0.65625 -1.359375 -0.65625 -2.859375zm1.5625 0.015625q0 2.078125 1.109375 3.265625q1.109375 1.1875 2.796875 1.1875q1.703125 0 2.8125 -1.203125q1.109375 -1.203125 1.109375 -3.40625q0 -1.40625 -0.484375 -2.4375q-0.46875 -1.046875 -1.375 -1.625q-0.90625 -0.578125 -2.046875 -0.578125q-1.609375 0 -2.765625 1.109375q-1.15625 1.109375 -1.15625 3.6875z"/><path fill="#eee" fill-rule="evenodd" d="m2.7407637 53.23984l47.02362 0l0 4.503937l-47.02362 0z"/><path fill="#eee" fill-rule="evenodd" d="m2.738167 68.54172l47.02362 0l0 4.5039444l-47.02362 0z"/><path fill="#eee" fill-rule="evenodd" d="m2.737599 60.973366l47.023624 0l0 4.503937l-47.023624 0z"/><path fill="#fff" fill-rule="evenodd" d="m41.728477 13.544845c-0.2691536 0 -1.2051239 0.05201149 -1.9422607 0.7310152c-0.81970215 0.7555046 -0.7065277 1.6547403 -0.67900467 1.8107166l0 1.4437199l-1.3641891 0c-0.103961945 0 -0.18961716 0.08565521 -0.18961716 0.19271088l0 1.9422588c0 0.10705376 0.08565521 0.19265175 0.18961716 0.19265175l1.2999344 0l0 5.34964c0 0.10402298 0.08565521 0.18962097 0.19271088 0.18962097l2.2022552 0c0.10396576 0 0.18962097 -0.08559799 0.18962097 -0.18962097l0 -5.3251495l1.4956741 0c0.09486771 0 0.17743301 -0.073410034 0.18967819 -0.16822052l0.22635269 -1.9697819c0.0060653687 -0.055044174 -0.012245178 -0.11008644 -0.0489769 -0.14985275c-0.03364563 -0.03976631 -0.08565521 -0.06425667 -0.1407013 -0.06425667l-1.7220268 0l0 -1.2326431c0 -0.37317562 0.20186615 -0.56279564 0.59643936 -0.56279564l1.1255875 0c0.10402298 0 0.18967819 -0.08565521 0.18967819 -0.18962002l0 -1.807683c0 -0.10705471 -0.08565521 -0.19270992 -0.18967819 -0.19270992z"/><path fill="#fff" fill-rule="evenodd" d="m29.482918 16.772453c-1.5108318 0 -2.6763325 1.1654987 -2.6763325 2.6763325c0 1.5108337 1.1655006 2.7194996 2.6763325 2.7194996c1.5108337 0 2.7195015 -1.2086658 2.7195015 -2.7194996c0 -1.5108337 -1.2086678 -2.6763325 -2.7195015 -2.6763325zm-1.5971661 2.6763325c0 0.90649986 0.6906662 1.6403332 1.5971661 1.6403332c0.90650177 0 1.6403351 -0.7338333 1.6403351 -1.6403332c0 -0.90649986 -0.7338333 -1.5971661 -1.6403351 -1.5971661c-0.90649986 0 -1.5971661 0.6906662 -1.5971661 1.5971661z"/><path fill="#fff" fill-rule="evenodd" d="m32.720417 15.693286c-0.302166 0 -0.51799774 0.21583366 -0.51799774 0.5180006c0 0.302166 0.21583176 0.56116676 0.51799774 0.56116676c0.3021698 0 0.5611687 -0.25900078 0.5611687 -0.56116676c0 -0.30216694 -0.25899887 -0.5180006 -0.5611687 -0.5180006z"/><path fill="#fff" fill-rule="evenodd" d="m25.727419 13.534952c-1.2086678 0 -2.1583328 0.949667 -2.1583328 2.1583338l0 7.554166c0 1.1655006 0.94966507 2.1583347 2.1583328 2.1583347l7.554167 0c1.1655006 0 2.1583328 -0.9928341 2.1583328 -2.1583347l0 -7.554166c0 -1.2086668 -0.9928322 -2.1583338 -2.1583328 -2.1583338zm7.554167 1.0791674l-7.554167 0c-0.6043339 0 -1.0791664 0.47483253 -1.0791664 1.0791664l0 7.554166c0 0.56116676 0.47483253 1.0791683 1.0791664 1.0791683l7.554167 0c0.56116486 0 1.0791664 -0.51800156 1.0791664 -1.0791683l0 -7.554166c0 -0.6043339 -0.51800156 -1.0791664 -1.0791664 -1.0791664z"/><path fill="#fff" fill-rule="evenodd" d="m16.897528 13.548772c-1.71101 0 -3.1056376 1.392271 -3.1056376 3.105569c0 0.13560295 0.009078026 0.26898956 0.027162552 0.40008736c-2.1246805 -0.18535423 -4.100176 -1.2295742 -5.458564 -2.8931208c-0.043237686 -0.055641174 -0.10899544 -0.08682251 -0.17842484 -0.08682251c-0.006791115 0 -0.013650894 2.7751923E-4 -0.020510674 9.012222E-4c-0.074557304 0.006790161 -0.14468002 0.04975128 -0.18306732 0.11530113c-0.2734933 0.4723587 -0.4203906 1.0125542 -0.4203906 1.5618267c0 0.7481384 0.26670218 1.4578896 0.7390609 2.0116653c-0.14239311 -0.04975128 -0.28250027 -0.110795975 -0.4158864 -0.18535423c-0.034506798 -0.018985748 -0.07344866 -0.028547287 -0.11245966 -0.028547287c-0.040119648 0 -0.080308914 0.010185242 -0.115786076 0.030765533c-0.07234001 0.040742874 -0.115300655 0.11530113 -0.11758709 0.19664764c0 0.01358223 0 0.027162552 0 0.04067421c0 1.1188469 0.60124063 2.1223946 1.5189357 2.671667c-0.07913113 -0.009008408 -0.15819263 -0.020303726 -0.23510551 -0.03388405c-0.015174866 -0.0029792786 -0.030488968 -0.0044345856 -0.04566288 -0.0044345856c-0.06589699 0 -0.1294365 0.027578354 -0.1735754 0.07899284c-0.05425453 0.061044693 -0.07234001 0.14696693 -0.04746437 0.22602844c0.34132862 1.0623741 1.2160625 1.8421097 2.276082 2.0817184c-0.8792381 0.54927254 -1.8827848 0.8363476 -2.9382992 0.8363476c-0.2192378 0 -0.44076252 -0.011363983 -0.65778303 -0.03845787c-0.008176327 -9.0026855E-4 -0.016352654 -0.0013160706 -0.02452898 -0.0013160706c-0.09735441 0 -0.18847227 0.06118393 -0.22180176 0.1550045c-0.036170006 0.10172081 0.0022172928 0.21702003 0.09492922 0.27577972c1.3538833 0.8679428 2.9202838 1.3267899 4.527288 1.3267899c3.16218 0 5.1398935 -1.4917717 6.242873 -2.7417183c1.3742542 -1.5596104 2.1631374 -3.6232452 2.1631374 -5.6642895c0 -0.08363533 -0.002286911 -0.169487 -0.004573822 -0.25540924c0.5424824 -0.40909576 1.0081196 -0.9041128 1.3901234 -1.4714012c0.05647087 -0.08813858 0.04968071 -0.2011528 -0.01586914 -0.28028297c-0.0461483 -0.053839684 -0.112112045 -0.08356571 -0.179533 -0.08356571c-0.031665802 0 -0.06361008 0.0065135956 -0.09395981 0.020302773c-0.22824478 0.099432945 -0.46106339 0.18528461 -0.70067406 0.25540733c0.2825699 -0.32095718 0.49952126 -0.69616985 0.63062096 -1.1075525c0.029378891 -0.09271145 0 -0.19436264 -0.07684326 -0.2554083c-0.042892456 -0.03284359 -0.094306946 -0.049404144 -0.14585876 -0.049404144c-0.040742874 0 -0.08169556 0.010324478 -0.11862755 0.03131962c-0.50624275 0.30058575 -1.0532284 0.5176058 -1.6273766 0.6442013c-0.5786514 -0.5650711 -1.3629608 -0.8860283 -2.1743622 -0.8860283z"/></g></svg>