<?xml version="1.0" encoding="UTF-8" standalone="no"?>
<svg
   xmlns:dc="http://purl.org/dc/elements/1.1/"
   xmlns:cc="http://creativecommons.org/ns#"
   xmlns:rdf="http://www.w3.org/1999/02/22-rdf-syntax-ns#"
   xmlns:svg="http://www.w3.org/2000/svg"
   xmlns="http://www.w3.org/2000/svg"
   xmlns:sodipodi="http://sodipodi.sourceforge.net/DTD/sodipodi-0.dtd"
   xmlns:inkscape="http://www.inkscape.org/namespaces/inkscape"
   width="50"
   height="50"
   version="1.1"
   xml:space="preserve"
   style="clip-rule:evenodd;fill-rule:evenodd;stroke-linecap:round;stroke-linejoin:round;stroke-miterlimit:1"
   id="svg4136"
   inkscape:version="0.48.4 r9939"
   sodipodi:docname="kirki-logo.svg"><metadata
     id="metadata4190"><rdf:RDF><cc:Work
         rdf:about=""><dc:format>image/svg+xml</dc:format><dc:type
           rdf:resource="http://purl.org/dc/dcmitype/StillImage" /><dc:title /></cc:Work></rdf:RDF></metadata><defs
     id="defs4188" /><sodipodi:namedview
     pagecolor="#ffffff"
     bordercolor="#666666"
     borderopacity="1"
     objecttolerance="10"
     gridtolerance="10"
     guidetolerance="10"
     inkscape:pageopacity="0"
     inkscape:pageshadow="2"
     inkscape:window-width="1404"
     inkscape:window-height="863"
     id="namedview4186"
     showgrid="false"
     fit-margin-top="0"
     fit-margin-left="0"
     fit-margin-right="0"
     fit-margin-bottom="0"
     inkscape:zoom="10.740166"
     inkscape:cx="47.245589"
     inkscape:cy="22.64474"
     inkscape:window-x="87"
     inkscape:window-y="91"
     inkscape:window-maximized="0"
     inkscape:current-layer="svg4136" /><g
     id="g3"
     transform="matrix(0.86964819,0,0,0.88268338,3.4825827,2.9804651)"><g
       id="g5"><path
         style="fill:#f95b26"
         inkscape:connector-curvature="0"
         d="M 31.9,40.8 H 11.8 c -1,0 -1.9,-0.8 -1.9,-1.9 v -9.7 c 0,-1 0.8,-1.9 1.9,-1.9 h 20.1 c 1,0 1.9,0.8 1.9,1.9 V 39 c -0.1,1 -0.9,1.8 -1.9,1.8 z"
         id="path7" /><path
         style="fill:#f95b26"
         inkscape:connector-curvature="0"
         d="M 24,22.6 H 11.6 C 10.7,22.6 10,21.9 10,21 V 10.8 C 10,9.9 10.7,9.2 11.6,9.2 H 24 c 0.9,0 1.6,0.7 1.6,1.6 V 21 c 0,0.9 -0.7,1.6 -1.6,1.6 z"
         id="path9" /></g><g
       id="g11"><path
         style="fill:#f95b26"
         inkscape:connector-curvature="0"
         d="M 43.2,50 H 6.8 C 3.1,50 0,46.9 0,43.2 V 6.8 C 0,3.1 3.1,0 6.8,0 H 43.2 C 46.9,0 50,3.1 50,6.8 v 1.5 c 0,1 -0.8,1.8 -1.8,1.8 -1,0 -1.8,-0.8 -1.8,-1.8 V 6.8 C 46.4,5.1 45,3.7 43.3,3.7 H 6.8 C 5.1,3.7 3.7,5.1 3.7,6.8 v 36.4 c 0,1.7 1.4,3.1 3.1,3.1 h 36.4 c 1.7,0 3.1,-1.4 3.1,-3.1 V 25.5 c 0,-1.7 -1.4,-3.1 -3.1,-3.1 h -7.5 c -1,0 -1.8,-0.8 -1.8,-1.8 0,-1 0.8,-1.8 1.8,-1.8 h 7.5 c 3.8,0 6.8,3.1 6.8,6.8 v 17.7 c 0,3.6 -3.1,6.7 -6.8,6.7 z"
         id="path13" /></g></g></svg>