<svg xmlns="http://www.w3.org/2000/svg"><metadata>Generated by IcoMoon</metadata><defs><font id="icomoon" horiz-adv-x="1024"><font-face ascent="870.4" descent="-153.6" units-per-em="1024"/><glyph horiz-adv-x="0"/><glyph d="M127.62 864h768.76c70.371 0 127.62-57.137 127.62-127.62v-768.76c0-70.371-57.137-127.62-127.62-127.62h-768.76c-70.371 0-127.62 57.137-127.62 127.62v768.76c0 70.371 57.137 127.62 127.62 127.62zM128.438 544c-35.588 0-64.438-29.163-64.438-63.705v-512.589c0-35.184 28.797-63.705 64.438-63.705h767.124c35.588 0 64.438 29.163 64.438 63.705v512.589c0 35.184-28.797 63.705-64.438 63.705h-767.124zM864.3 736c-17.839 0-32.3-14.844-32.3-32 0-17.673 13.698-32 32.3-32h63.4c17.839 0 32.3 14.844 32.3 32 0 17.673-13.698 32-32.3 32h-63.4zM672.3 736c-17.839 0-32.3-14.844-32.3-32 0-17.673 13.698-32 32.3-32h63.4c17.839 0 32.3 14.844 32.3 32 0 17.673-13.698 32-32.3 32h-63.4zM480.3 736c-17.839 0-32.3-14.844-32.3-32 0-17.673 13.698-32 32.3-32h63.4c17.839 0 32.3 14.844 32.3 32 0 17.673-13.698 32-32.3 32h-63.4zM160 608c53.019 0 96 42.981 96 96s-42.981 96-96 96c-53.019 0-96-42.981-96-96s42.981-96 96-96z" glyph-name="header-logo-left" unicode=""/><glyph d="M127.62 864h768.76c70.371 0 127.62-57.137 127.62-127.62v-768.76c0-70.371-57.137-127.62-127.62-127.62h-768.76c-70.371 0-127.62 57.137-127.62 127.62v768.76c0 70.371 57.137 127.62 127.62 127.62zM864.3 736c-17.839 0-32.3-14.844-32.3-32 0-17.673 13.698-32 32.3-32h63.4c17.839 0 32.3 14.844 32.3 32 0 17.673-13.698 32-32.3 32h-63.4zM672.3 736c-17.839 0-32.3-14.844-32.3-32 0-17.673 13.698-32 32.3-32h63.4c17.839 0 32.3 14.844 32.3 32 0 17.673-13.698 32-32.3 32h-63.4zM512 672c35.346 0 64 28.654 64 64s-28.654 64-64 64c-35.346 0-64-28.654-64-64s28.654-64 64-64zM288.3 736c-17.839 0-32.3-14.844-32.3-32 0-17.673 13.698-32 32.3-32h63.4c17.839 0 32.3 14.844 32.3 32 0 17.673-13.698 32-32.3 32h-63.4zM96.3 736c-17.839 0-32.3-14.844-32.3-32 0-17.673 13.698-32 32.3-32h63.4c17.839 0 32.3 14.844 32.3 32 0 17.673-13.698 32-32.3 32h-63.4zM128.438 544c-35.588 0-64.438-29.163-64.438-63.705v-512.589c0-35.184 28.797-63.705 64.438-63.705h767.124c35.588 0 64.438 29.163 64.438 63.705v512.589c0 35.184-28.797 63.705-64.438 63.705h-767.124z" glyph-name="header-logo-center" unicode=""/><glyph d="M127.62 864h768.76c70.371 0 127.62-57.137 127.62-127.62v-768.76c0-70.371-57.137-127.62-127.62-127.62h-768.76c-70.371 0-127.62 57.137-127.62 127.62v768.76c0 70.371 57.137 127.62 127.62 127.62zM128.438 544c-35.588 0-64.438-29.163-64.438-63.705v-512.589c0-35.184 28.797-63.705 64.438-63.705h767.124c35.588 0 64.438 29.163 64.438 63.705v512.589c0 35.184-28.797 63.705-64.438 63.705h-767.124zM480.3 736c-17.839 0-32.3-14.844-32.3-32 0-17.673 13.698-32 32.3-32h63.4c17.839 0 32.3 14.844 32.3 32 0 17.673-13.698 32-32.3 32h-63.4zM288.3 736c-17.839 0-32.3-14.844-32.3-32 0-17.673 13.698-32 32.3-32h63.4c17.839 0 32.3 14.844 32.3 32 0 17.673-13.698 32-32.3 32h-63.4zM96.3 736c-17.839 0-32.3-14.844-32.3-32 0-17.673 13.698-32 32.3-32h63.4c17.839 0 32.3 14.844 32.3 32 0 17.673-13.698 32-32.3 32h-63.4zM864 608c53.019 0 96 42.981 96 96s-42.981 96-96 96c-53.019 0-96-42.981-96-96s42.981-96 96-96z" glyph-name="header-logo-right" unicode=""/><glyph d="M127.62 864h768.76c70.371 0 127.62-57.137 127.62-127.62v-768.76c0-70.371-57.137-127.62-127.62-127.62h-768.76c-70.371 0-127.62 57.137-127.62 127.62v768.76c0 70.371 57.137 127.62 127.62 127.62zM128.438 480c-35.588 0-64.438-28.564-64.438-63.843v-448.314c0-35.259 28.797-63.843 64.438-63.843h767.124c35.588 0 64.438 28.564 64.438 63.843v448.314c0 35.259-28.797 63.843-64.438 63.843h-767.124zM96.3 608c-17.839 0-32.3-14.844-32.3-32 0-17.673 13.698-32 32.3-32h63.4c17.839 0 32.3 14.844 32.3 32 0 17.673-13.698 32-32.3 32h-63.4zM288.3 608c-17.839 0-32.3-14.844-32.3-32 0-17.673 13.698-32 32.3-32h63.4c17.839 0 32.3 14.844 32.3 32 0 17.673-13.698 32-32.3 32h-63.4zM480.3 608c-17.839 0-32.3-14.844-32.3-32 0-17.673 13.698-32 32.3-32h63.4c17.839 0 32.3 14.844 32.3 32 0 17.673-13.698 32-32.3 32h-63.4zM672.3 608c-17.839 0-32.3-14.844-32.3-32 0-17.673 13.698-32 32.3-32h63.4c17.839 0 32.3 14.844 32.3 32 0 17.673-13.698 32-32.3 32h-63.4zM864.3 608c-17.839 0-32.3-14.844-32.3-32 0-17.673 13.698-32 32.3-32h63.4c17.839 0 32.3 14.844 32.3 32 0 17.673-13.698 32-32.3 32h-63.4zM128 672c35.346 0 64 28.654 64 64s-28.654 64-64 64c-35.346 0-64-28.654-64-64s28.654-64 64-64z" glyph-name="header-logo-top" unicode=""/><glyph d="M127.62 864h768.76c70.371 0 127.62-57.137 127.62-127.62v-768.76c0-70.371-57.137-127.62-127.62-127.62h-768.76c-70.371 0-127.62 57.137-127.62 127.62v768.76c0 70.371 57.137 127.62 127.62 127.62zM672.3 608c-17.839 0-32.3-14.844-32.3-32 0-17.673 13.698-32 32.3-32h63.4c17.839 0 32.3 14.844 32.3 32 0 17.673-13.698 32-32.3 32h-63.4zM512 672c35.346 0 64 28.654 64 64s-28.654 64-64 64c-35.346 0-64-28.654-64-64s28.654-64 64-64zM480.3 608c-17.839 0-32.3-14.844-32.3-32 0-17.673 13.698-32 32.3-32h63.4c17.839 0 32.3 14.844 32.3 32 0 17.673-13.698 32-32.3 32h-63.4zM288.3 608c-17.839 0-32.3-14.844-32.3-32 0-17.673 13.698-32 32.3-32h63.4c17.839 0 32.3 14.844 32.3 32 0 17.673-13.698 32-32.3 32h-63.4zM128.438 480c-35.588 0-64.438-28.564-64.438-63.843v-448.314c0-35.259 28.797-63.843 64.438-63.843h767.124c35.588 0 64.438 28.564 64.438 63.843v448.314c0 35.259-28.797 63.843-64.438 63.843h-767.124z" glyph-name="header-logo-center-top" unicode=""/><glyph d="M127.62 864h768.76c70.371 0 127.62-57.137 127.62-127.62v-768.76c0-70.371-57.137-127.62-127.62-127.62h-768.76c-70.371 0-127.62 57.137-127.62 127.62v768.76c0 70.371 57.137 127.62 127.62 127.62zM128.438 672c-35.588 0-64.438-29.169-64.438-64.158v-639.683c0-35.434 28.797-64.158 64.438-64.158h767.124c35.588 0 64.438 29.169 64.438 64.158v639.683c0 35.434-28.797 64.158-64.438 64.158h-767.124zM928 736c17.673 0 32 14.327 32 32s-14.327 32-32 32c-17.673 0-32-14.327-32-32s14.327-32 32-32zM800 736c17.673 0 32 14.327 32 32s-14.327 32-32 32c-17.673 0-32-14.327-32-32s14.327-32 32-32zM672 736c17.673 0 32 14.327 32 32s-14.327 32-32 32c-17.673 0-32-14.327-32-32s14.327-32 32-32zM383.41 608c-35.020 0-63.41-29.163-63.41-63.705v-512.589c0-35.184 28.862-63.705 63.41-63.705h257.18c35.020 0 63.41 29.163 63.41 63.705v512.589c0 35.184-28.862 63.705-63.41 63.705h-257.18z" glyph-name="layout-container" unicode=""/><glyph d="M127.62 864h768.76c70.371 0 127.62-57.137 127.62-127.62v-768.76c0-70.371-57.137-127.62-127.62-127.62h-768.76c-70.371 0-127.62 57.137-127.62 127.62v768.76c0 70.371 57.137 127.62 127.62 127.62zM383.705 800c-35.184 0-63.705-28.797-63.705-64.438v-767.124c0-35.588 29.163-64.438 63.705-64.438h512.589c35.184 0 63.705 28.797 63.705 64.438v767.124c0 35.588-29.163 64.438-63.705 64.438h-512.589zM800.576 672c17.355 0 31.424-14.844 31.424-32 0-17.673-14.584-32-31.424-32h-321.151c-17.355 0-31.424 14.844-31.424 32 0 17.673 14.584 32 31.424 32h321.151zM672.609 544c17.337 0 31.391-14.844 31.391-32 0-17.673-13.764-32-31.391-32h-193.219c-17.337 0-31.391 14.844-31.391 32 0 17.673 13.764 32 31.391 32h193.219zM800.576 416c17.355 0 31.424-14.844 31.424-32 0-17.673-14.584-32-31.424-32h-321.151c-17.355 0-31.424 14.844-31.424 32 0 17.673 14.584 32 31.424 32h321.151z" glyph-name="advanced-layout-left" unicode=""/><glyph d="M127.62 864h768.76c70.371 0 127.62-57.137 127.62-127.62v-768.76c0-70.371-57.137-127.62-127.62-127.62h-768.76c-70.371 0-127.62 57.137-127.62 127.62v768.76c0 70.371 57.137 127.62 127.62 127.62zM128.438 480c-35.588 0-64.438-28.564-64.438-63.843v-448.314c0-35.259 28.797-63.843 64.438-63.843h767.124c35.588 0 64.438 28.564 64.438 63.843v448.314c0 35.259-28.797 63.843-64.438 63.843h-767.124zM735.972 352c17.689 0 32.028-14.844 32.028-32 0-17.673-14.771-32-32.028-32h-447.944c-17.689 0-32.028 14.844-32.028 32 0 17.673 14.771 32 32.028 32h447.944zM671.781 224c17.794 0 32.219-14.844 32.219-32 0-17.673-14.906-32-32.219-32h-383.562c-17.794 0-32.219 14.844-32.219 32 0 17.673 14.906 32 32.219 32h383.562zM735.972 96c17.689 0 32.028-14.844 32.028-32 0-17.673-14.771-32-32.028-32h-447.944c-17.689 0-32.028 14.844-32.028 32 0 17.673 14.771 32 32.028 32h447.944z" glyph-name="advanced-layout-top" unicode=""/><glyph d="M127.62 864h768.76c70.371 0 127.62-57.137 127.62-127.62v-768.76c0-70.371-57.137-127.62-127.62-127.62h-768.76c-70.371 0-127.62 57.137-127.62 127.62v768.76c0 70.371 57.137 127.62 127.62 127.62zM127.705 800c-35.184 0-63.705-28.797-63.705-64.438v-767.124c0-35.588 29.163-64.438 63.705-64.438h512.589c35.184 0 63.705 28.797 63.705 64.438v767.124c0 35.588-29.163 64.438-63.705 64.438h-512.589zM544.576 672c17.355 0 31.424-14.844 31.424-32 0-17.673-14.584-32-31.424-32h-321.151c-17.355 0-31.424 14.844-31.424 32 0 17.673 14.584 32 31.424 32h321.151zM416.609 544c17.337 0 31.391-14.844 31.391-32 0-17.673-13.764-32-31.391-32h-193.219c-17.337 0-31.391 14.844-31.391 32 0 17.673 13.764 32 31.391 32h193.219zM544.576 416c17.355 0 31.424-14.844 31.424-32 0-17.673-14.584-32-31.424-32h-321.151c-17.355 0-31.424 14.844-31.424 32 0 17.673 14.584 32 31.424 32h321.151z" glyph-name="advanced-layout-right" unicode=""/><glyph d="M761.895 84.44l-236.871 566.372c-23.199 55.394-85.469 89.308-147.739 84.786-57.386 0-112.331-33.914-133.087-84.786l-238.092-566.372c-4.884-10.174-6.105-20.349-6.105-30.523 0-42.958 36.63-85.917 91.574-85.917 37.851 0 72.038 20.349 85.469 53.133l37.419 85.107h349.202l27.293-85.107c13.431-32.784 47.618-53.133 84.248-53.133 56.165 0 92.795 44.089 92.795 85.917 0 10.174-2.442 20.349-6.105 30.523zM512 259.84h-256l128 307.496 128-307.496zM1011.2 452.48v163.2c0 88.96-64.64 117.12-135.040 117.12-35.84 0-104.96-12.8-124.16-43.52-2.56-4.48-4.48-10.24-4.48-16 0-19.2 16-31.36 30.72-31.36 5.12 0 10.24 1.92 14.72 4.48 21.12 14.080 44.8 19.84 69.12 19.84 40.96 0 67.84-20.48 67.84-51.84v-41.6c-20.48 24.32-56.96 37.76-97.92 37.76-49.28 0-107.52-27.52-107.52-99.84 0-69.12 58.24-102.4 107.52-102.4 40.32 0 76.8 14.72 97.92 39.68 0-30.72 28.8-35.84 35.2-35.84h6.4c21.76 0 39.68 17.92 39.68 40.32zM929.92 490.24c-13.44-17.92-39.040-26.88-65.28-26.88-32 0-58.24 16.64-58.24 45.44 0 30.080 26.24 46.72 58.24 46.72 26.24 0 51.84-8.96 65.28-26.88v-38.4z" glyph-name="font-size" unicode=""/><glyph d="M127.62 864h768.76c70.371 0 127.62-57.137 127.62-127.62v-768.76c0-70.371-57.137-127.62-127.62-127.62h-768.76c-70.371 0-127.62 57.137-127.62 127.62v768.76c0 70.371 57.137 127.62 127.62 127.62zM128.438 672c-35.588 0-64.438-29.169-64.438-64.158v-639.683c0-35.434 28.797-64.158 64.438-64.158h767.124c35.588 0 64.438 29.169 64.438 64.158v639.683c0 35.434-28.797 64.158-64.438 64.158h-767.124zM928 736c17.673 0 32 14.327 32 32s-14.327 32-32 32c-17.673 0-32-14.327-32-32s14.327-32 32-32zM800 736c17.673 0 32 14.327 32 32s-14.327 32-32 32c-17.673 0-32-14.327-32-32s14.327-32 32-32zM672 736c17.673 0 32 14.327 32 32s-14.327 32-32 32c-17.673 0-32-14.327-32-32s14.327-32 32-32zM192.158 608c-35.434 0-64.158-29.163-64.158-63.705v-512.589c0-35.184 29.169-63.705 64.158-63.705h639.683c35.434 0 64.158 29.163 64.158 63.705v512.589c0 35.184-29.169 63.705-64.158 63.705h-639.683z" glyph-name="layout-full-screen" unicode=""/><glyph d="M127.62 864h768.76c70.371 0 127.62-57.137 127.62-127.62v-768.76c0-70.371-57.137-127.62-127.62-127.62h-768.76c-70.371 0-127.62 57.137-127.62 127.62v768.76c0 70.371 57.137 127.62 127.62 127.62zM128.438 672c-35.588 0-64.438-29.169-64.438-64.158v-639.683c0-35.434 28.797-64.158 64.438-64.158h767.124c35.588 0 64.438 29.169 64.438 64.158v639.683c0 35.434-28.797 64.158-64.438 64.158h-767.124zM928 736c17.673 0 32 14.327 32 32s-14.327 32-32 32c-17.673 0-32-14.327-32-32s14.327-32 32-32zM800 736c17.673 0 32 14.327 32 32s-14.327 32-32 32c-17.673 0-32-14.327-32-32s14.327-32 32-32zM672 736c17.673 0 32 14.327 32 32s-14.327 32-32 32c-17.673 0-32-14.327-32-32s14.327-32 32-32zM192.158 480c-35.434 0-64.158-28.862-64.158-63.41v-257.18c0-35.020 29.169-63.41 64.158-63.41h639.683c35.434 0 64.158 28.862 64.158 63.41v257.18c0 35.020-29.169 63.41-64.158 63.41h-639.683z" glyph-name="layout-container-fluid" unicode=""/><glyph d="M127.62 864h768.76c70.371 0 127.62-57.137 127.62-127.62v-768.76c0-70.371-57.137-127.62-127.62-127.62h-768.76c-70.371 0-127.62 57.137-127.62 127.62v768.76c0 70.371 57.137 127.62 127.62 127.62zM127.933 672c-35.309 0-63.933-29.169-63.933-64.158v-639.683c0-35.434 28.33-64.158 63.933-64.158h64.134c35.309 0 63.933 29.169 63.933 64.158v639.683c0 35.434-28.33 64.158-63.933 64.158h-64.134zM928 736c17.673 0 32 14.327 32 32s-14.327 32-32 32c-17.673 0-32-14.327-32-32s14.327-32 32-32zM800 736c17.673 0 32 14.327 32 32s-14.327 32-32 32c-17.673 0-32-14.327-32-32s14.327-32 32-32zM672 736c17.673 0 32 14.327 32 32s-14.327 32-32 32c-17.673 0-32-14.327-32-32s14.327-32 32-32zM831.933 672c-35.309 0-63.933-29.169-63.933-64.158v-639.683c0-35.434 28.33-64.158 63.933-64.158h64.134c35.309 0 63.933 29.169 63.933 64.158v639.683c0 35.434-28.33 64.158-63.933 64.158h-64.134zM383.41 672c-35.020 0-63.41-29.169-63.41-64.158v-639.683c0-35.434 28.862-64.158 63.41-64.158h257.18c35.020 0 63.41 29.169 63.41 64.158v639.683c0 35.434-28.862 64.158-63.41 64.158h-257.18z" glyph-name="sidebar-left-right" unicode=""/><glyph d="M127.62 864h768.76c70.371 0 127.62-57.137 127.62-127.62v-768.76c0-70.371-57.137-127.62-127.62-127.62h-768.76c-70.371 0-127.62 57.137-127.62 127.62v768.76c0 70.371 57.137 127.62 127.62 127.62zM127.933 672c-35.309 0-63.933-29.169-63.933-64.158v-639.683c0-35.434 28.33-64.158 63.933-64.158h64.134c35.309 0 63.933 29.169 63.933 64.158v639.683c0 35.434-28.33 64.158-63.933 64.158h-64.134zM928 736c17.673 0 32 14.327 32 32s-14.327 32-32 32c-17.673 0-32-14.327-32-32s14.327-32 32-32zM800 736c17.673 0 32 14.327 32 32s-14.327 32-32 32c-17.673 0-32-14.327-32-32s14.327-32 32-32zM672 736c17.673 0 32 14.327 32 32s-14.327 32-32 32c-17.673 0-32-14.327-32-32s14.327-32 32-32zM383.705 672c-35.184 0-63.705-29.169-63.705-64.158v-639.683c0-35.434 29.163-64.158 63.705-64.158h512.589c35.184 0 63.705 29.169 63.705 64.158v639.683c0 35.434-29.163 64.158-63.705 64.158h-512.589z" glyph-name="sidebar-left" unicode=""/><glyph d="M127.62 864h768.76c70.371 0 127.62-57.137 127.62-127.62v-768.76c0-70.371-57.137-127.62-127.62-127.62h-768.76c-70.371 0-127.62 57.137-127.62 127.62v768.76c0 70.371 57.137 127.62 127.62 127.62zM127.705 672c-35.184 0-63.705-29.169-63.705-64.158v-639.683c0-35.434 29.163-64.158 63.705-64.158h512.589c35.184 0 63.705 29.169 63.705 64.158v639.683c0 35.434-29.163 64.158-63.705 64.158h-512.589zM928 736c17.673 0 32 14.327 32 32s-14.327 32-32 32c-17.673 0-32-14.327-32-32s14.327-32 32-32zM800 736c17.673 0 32 14.327 32 32s-14.327 32-32 32c-17.673 0-32-14.327-32-32s14.327-32 32-32zM672 736c17.673 0 32 14.327 32 32s-14.327 32-32 32c-17.673 0-32-14.327-32-32s14.327-32 32-32zM831.933 672c-35.309 0-63.933-29.169-63.933-64.158v-639.683c0-35.434 28.33-64.158 63.933-64.158h64.134c35.309 0 63.933 29.169 63.933 64.158v639.683c0 35.434-28.33 64.158-63.933 64.158h-64.134z" glyph-name="sidebar-right" unicode=""/><glyph d="M969.728 594.688c32.768 0 54.272 21.504 54.272 54.272v36.864c0 97.28-80.896 178.176-178.176 178.176h-684.032c-107.52 0-161.792-54.272-161.792-161.792v-700.416c0-92.16 69.632-161.792 161.792-161.792h700.416c92.16 0 161.792 69.632 161.792 161.792v307.2c0 97.28-80.896 178.176-178.176 178.176h-145.408c-31.744 0-53.248-21.504-53.248-54.272s21.504-54.272 53.248-54.272h178.176c21.504 0 37.888-15.36 37.888-36.864v-361.472c0-21.504-16.384-37.888-37.888-37.888h-733.184c-21.504 5.12-37.888 21.504-37.888 43.008v733.184c0 21.504 16.384 37.888 37.888 37.888h738.304c16.384 0 32.768-16.384 32.768-37.888v-69.632c0-32.768 21.504-54.272 53.248-54.272zM641.024 56.064h-366.592c-31.744 0-58.368 26.624-58.368 58.368v156.672c0 26.624 26.624 54.272 58.368 54.272h372.736c31.744 0 59.392-27.648 59.392-59.392v-156.672c-6.144-26.624-32.768-53.248-65.536-53.248zM479.232 378.624h-204.8c-31.744 0-58.368 27.648-58.368 59.392v151.552c0 31.744 26.624 59.392 58.368 59.392h210.944c26.624 0 53.248-27.648 53.248-59.392v-156.672c0-26.624-26.624-54.272-59.392-54.272z" glyph-name="bg-logo-icon" unicode=""/><glyph d="M682.667 821.333h-341.333c-70.827 0-128-57.173-128-128v-682.667c0-70.827 57.173-128 128-128h341.333c70.827 0 128 57.173 128 128v682.667c0 70.827-57.173 128-128 128zM597.333-32h-170.667v42.667h170.667v-42.667zM736 96h-448v597.333h448v-597.333z" glyph-name="devices-mobile" unicode=""/><glyph d="M896 693.333h-768c-46.933 0-85.333-38.4-85.333-85.333v-512c0-46.933 38.4-85.333 85.333-85.333h768c46.933 0 84.907 38.4 84.907 85.333l0.427 512c0 46.933-38.4 85.333-85.333 85.333zM810.667 96h-597.333v512h597.333v-512z" glyph-name="devices-tablet" unicode=""/><glyph d="M853.333 96c46.933 0 85.333 38.4 85.333 85.333v426.667c0 46.933-38.4 85.333-85.333 85.333h-682.667c-46.933 0-85.333-38.4-85.333-85.333v-426.667c0-46.933 38.4-85.333 85.333-85.333h-170.667v-85.333h1024v85.333h-170.667zM170.667 608h682.667v-426.667h-682.667v426.667z" glyph-name="devices-desktop" unicode=""/><glyph d="M896 736h-768c-46.933 0-85.333-38.4-85.333-85.333v-512c0-46.933 38.4-85.333 85.333-85.333h213.333v-85.333h341.333v85.333h213.333c46.933 0 84.907 38.4 84.907 85.333l0.427 512c0 46.933-38.4 85.333-85.333 85.333zM896 138.667h-768v512h768v-512z" glyph-name="devices-large" unicode=""/><glyph d="M33.010 291.478c0 7.196-1.799 14.393 1.799 21.589 1.799 3.598 0 12.594-1.799 17.991-10.795 26.987-8.996 52.174-1.799 79.16 5.397 17.991 7.196 35.982 10.795 53.973 1.799 0 3.598 0 3.598 0-1.799-10.795-3.598-19.79-5.397-30.585 1.799 0 1.799 0 3.598-1.799 5.397 14.393 10.795 28.786 16.192 43.178 12.594 32.384 25.187 62.969 35.982 95.352 14.393 35.982 35.982 66.567 61.169 93.553 43.178 46.777 93.553 84.558 152.924 107.946 14.393 5.397 26.987 14.393 43.178 17.991 17.991 3.598 35.982 10.795 55.772 7.196 7.196-1.799 16.192 0 23.388-1.799-16.192-7.196-30.585-12.594-46.777-19.79-7.196-1.799-14.393-3.598-21.589-5.397-3.598-1.799-10.795-1.799-12.594-5.397-5.397-8.996-12.594-8.996-21.589-5.397-1.799 0-3.598 0-5.397-1.799 1.799-1.799 1.799-5.397 1.799-5.397-10.795-7.196-23.388-12.594-34.183-19.79-5.397-1.799-8.996-5.397-14.393-5.397-16.192 1.799-30.585-5.397-43.178-16.192-21.589-17.991-41.379-39.58-62.969-57.571-41.379-39.58-64.768-88.156-86.357-140.33-16.192-39.58-25.187-82.759-23.388-127.736 1.799-23.388 0-48.576 3.598-71.964 5.397-28.786 12.594-59.37 23.388-86.357 8.996-17.991 26.987-32.384 41.379-48.576 5.397-5.397 10.795-10.795 16.192-17.991-10.795 35.982-23.388 70.165-34.183 104.348 1.799 1.799 5.397 1.799 8.996 3.598 3.598-14.393 5.397-30.585 12.594-44.978 3.598-8.996 12.594-16.192 19.79-25.187 1.799 0 3.598 1.799 3.598 1.799-7.196 14.393-14.393 28.786-21.589 43.178-3.598 7.196-5.397 10.795 3.598 10.795-7.196 21.589-14.393 41.379-21.589 62.969 0 0-1.799 0-1.799 0 0-12.594 0-23.388 0-35.982 0 0-1.799 0-1.799 0 0 14.393 0 26.987-1.799 41.379-1.799 21.589 0 43.178-5.397 64.768-7.196 30.585-3.598 59.37 5.397 88.156 3.598 14.393 7.196 30.585 12.594 44.978s10.795 30.585 19.79 44.978c23.388 37.781 48.576 75.562 82.759 106.147 8.996 8.996 19.79 14.393 30.585 21.589s21.589 16.192 32.384 23.388c10.795 7.196 25.187 10.795 35.982 16.192 3.598 1.799 7.196 1.799 8.996 3.598 7.196 8.996 17.991 8.996 28.786 8.996 3.598-1.799 8.996-3.598 12.594-3.598 5.397 0 8.996 1.799 14.393 1.799 0-1.799 1.799-1.799 1.799-3.598-7.196-3.598-12.594-8.996-19.79-12.594-17.991-8.996-37.781-14.393-55.772-25.187s-37.781-21.589-48.576-37.781c-12.594-19.79-35.982-30.585-43.178-52.174 0-1.799-1.799-3.598-3.598-3.598-19.79-14.393-30.585-35.982-41.379-55.772-10.795-17.991-17.991-37.781-28.786-55.772-3.598-7.196-8.996-12.594-12.594-19.79s-7.196-16.192-8.996-25.187c-3.598-14.393-3.598-30.585-7.196-48.576-1.799 5.397-1.799 7.196-3.598 8.996-1.799 0-1.799 0-3.598 0 1.799-25.187 3.598-50.375 5.397-73.763 1.799 0 3.598 0 3.598 0 0 1.799 1.799 3.598 1.799 5.397 7.196-19.79 14.393-39.58 21.589-59.37 1.799 0 1.799 0 3.598 0-1.799 10.795-1.799 23.388-3.598 34.183 1.799 0 1.799 0 3.598 0 8.996-12.594 16.192-25.187 25.187-37.781 1.799 0 1.799 1.799 3.598 1.799-1.799 8.996-3.598 16.192-5.397 25.187 34.183-109.745 93.553-197.901 203.299-244.678 0-1.799-1.799-7.196-3.598-12.594-17.991 8.996-35.982 17.991-53.973 25.187-1.799 0-3.598-1.799-5.397-1.799s-5.397 0-5.397 0c5.397-5.397 10.795-12.594 16.192-17.991 0 0-1.799-1.799-1.799-1.799-12.594 7.196-26.987 14.393-39.58 21.589-1.799-1.799-1.799-3.598-3.598-5.397 3.598-3.598 7.196-5.397 8.996-8.996 30.585-21.589 62.969-35.982 98.951-46.777 43.178-14.393 88.156-14.393 133.134-17.991 34.183-1.799 64.768 14.393 97.152 21.589s61.169 21.589 89.955 37.781c35.982 21.589 68.366 50.375 93.553 86.357 17.991 25.187 37.781 52.174 43.178 84.558 1.799 10.795 8.996 19.79 12.594 30.585s5.397 21.589 3.598 30.585c0 5.397-10.795 8.996-17.991 14.393 0-10.795 0-17.991 0-23.388-23.388-17.991-26.987-46.777-35.982-75.562-5.397 19.79 1.799 32.384 7.196 44.978s5.397 26.987 8.996 41.379c1.799 8.996 3.598 19.79 5.397 28.786-1.799 0-3.598 0-3.598 1.799-7.196-17.991-12.594-35.982-19.79-53.973 0 0-1.799 0-1.799 0 3.598 17.991 5.397 37.781 8.996 55.772 3.598 21.589 1.799 41.379-7.196 61.169-1.799-1.799-3.598-3.598-5.397-5.397-3.598 17.991-5.397 34.183-8.996 50.375-1.799 7.196-3.598 12.594-3.598 19.79 0 5.397 0 10.795 1.799 16.192 0 1.799 1.799 5.397 1.799 7.196-3.598 12.594-7.196 23.388-8.996 35.982-7.196 26.987-21.589 46.777-39.58 66.567-3.598 3.598-3.598 14.393-5.397 21.589-1.799 3.598-3.598 7.196-7.196 8.996-28.786 17.991-48.576 46.777-79.16 62.969 3.598 1.799 5.397 1.799 5.397 3.598-5.397 5.397-12.594 10.795-19.79 17.991 3.598 1.799 5.397 1.799 8.996 3.598-12.594 7.196-23.388 12.594-34.183 17.991 16.192 16.192 26.987-10.795 43.178-1.799-17.991 19.79-25.187 48.576-53.973 57.571 1.799 1.799 5.397 3.598 8.996 5.397-3.598 1.799-7.196 5.397-10.795 7.196-10.795 3.598-21.589 5.397-30.585 7.196-8.996 16.192-17.991 30.585-28.786 46.777 17.991 0 37.781 3.598 55.772 1.799 19.79-1.799 41.379-7.196 61.169-14.393 8.996-3.598 17.991-10.795 26.987-16.192 10.795-5.397 21.589-8.996 32.384-12.594 7.196-3.598 10.795-7.196 7.196-16.192-1.799-3.598 3.598-10.795 3.598-12.594 14.393 1.799 23.388 3.598 34.183 5.397 1.799-1.799 1.799-3.598 3.598-5.397-5.397-8.996-10.795-16.192-16.192-25.187-3.598-7.196-3.598-10.795 3.598-14.393 3.598 5.397 5.397 10.795 8.996 17.991 1.799 0 1.799-1.799 3.598-1.799 0-3.598 0-7.196 1.799-10.795 7.196 3.598 14.393 8.996 19.79 12.594 0 1.799 1.799 1.799 1.799 3.598 5.397-5.397 8.996-10.795 16.192-17.991-7.196-3.598-12.594-7.196-19.79-12.594 5.397-3.598 12.594-7.196 17.991-10.795 1.799 5.397 1.799 10.795 3.598 16.192 8.996-7.196 14.393-12.594 21.589-17.991 0 0 0 0 1.799 1.799-1.799 3.598-3.598 7.196-5.397 10.795 0 1.799 1.799 1.799 1.799 3.598 5.397-1.799 12.594-3.598 17.991-7.196 12.594-10.795 25.187-23.388 35.982-35.982 7.196-7.196 16.192-12.594 3.598-23.388-1.799-1.799 0-5.397 0-10.795 7.196 7.196 14.393 12.594 21.589 19.79 3.598-5.397 7.196-10.795 10.795-16.192 7.196-8.996 12.594-19.79 21.589-28.786 7.196-7.196 3.598-12.594 0-19.79-3.598-5.397-3.598-10.795-5.397-16.192 1.799 0 1.799 0 3.598-1.799 5.397 5.397 12.594 8.996 16.192 16.192 1.799 3.598 0 10.795-1.799 16.192-3.598 8.996-10.795 16.192-16.192 28.786 21.589-12.594 25.187-34.183 34.183-50.375 5.397-10.795 14.393-19.79 16.192-28.786 1.799-10.795 10.795-17.991 12.594-26.987 10.795-37.781 23.388-73.763 21.589-113.343-1.799-21.589 7.196-41.379 3.598-59.37-1.799-14.393-1.799-26.987-1.799-41.379-1.799-43.178-16.192-80.96-34.183-118.741-1.799-3.598-1.799-7.196-1.799-12.594-3.598-10.795-8.996-23.388-14.393-34.183-5.397-12.594-8.996-25.187-16.192-37.781-1.799-5.397-8.996-7.196-12.594-12.594-1.799-1.799-3.598-3.598-5.397-5.397-17.991-23.388-34.183-46.777-52.174-68.366-10.795-12.594-26.987-23.388-41.379-35.982-14.393-10.795-28.786-23.388-43.178-34.183-17.991-14.393-37.781-26.987-57.571-34.183-14.393-5.397-28.786-14.393-43.178-19.79-34.183-14.393-68.366-26.987-104.348-30.585-10.795-1.799-19.79-3.598-30.585-3.598-17.991-1.799-35.982-1.799-53.973-1.799-26.987 0-53.973 0-80.96 3.598-34.183 5.397-68.366 16.192-100.75 25.187-12.594 3.598-25.187 8.996-37.781 16.192-16.192 8.996-32.384 17.991-48.576 26.987-48.576 26.987-88.156 62.969-125.937 104.348-10.795 12.594-17.991 26.987-26.987 41.379s-21.589 26.987-28.786 43.178c-10.795 19.79-17.991 41.379-25.187 62.969-8.996 23.388-16.192 46.777-23.388 70.165-3.598 8.996-3.598 19.79-3.598 30.585-1.799 7.196-1.799 16.192-1.799 23.388 0 14.393 0 28.786-1.799 43.178 0 7.196-3.598 14.393-3.598 21.589 0 3.598 1.799 8.996 1.799 12.594 0 1.799 3.598 5.397 1.799 7.196-3.598 14.393 1.799 28.786 5.397 41.379 5.397 14.393 8.996 28.786 16.192 41.379 0-8.996 0-16.192 0-25.187-1.799-23.388-7.196-44.978-7.196-68.366 0-19.79 1.799-41.379 3.598-61.169 0-7.196 0-14.393 0-19.79 3.598-3.598 7.196-10.795 10.795-17.991 0-3.598-1.799-7.196-1.799-10.795 0-25.187 12.594-46.777 25.187-68.366 0 0 1.799 0 5.397 1.799-10.795 26.987-19.79 52.174-28.786 77.361zM702.276 16.216c0-1.799 0-1.799 0-3.598 5.397 0 12.594-3.598 16.192-1.799 16.192 8.996 30.585 19.79 46.777 30.585-3.598 5.397-7.196 8.996-8.996 12.594-17.991-10.795-35.982-23.388-53.973-37.781zM153.55 280.684c-1.799-1.799-3.598-1.799-5.397-3.598 8.996-19.79 17.991-37.781 26.987-57.571 1.799 0 3.598 1.799 5.397 1.799-8.996 21.589-17.991 39.58-26.987 59.37zM743.655-44.954c0 1.799-1.799 3.598-1.799 3.598-17.991-8.996-34.183-16.192-52.174-25.187 0-1.799 1.799-3.598 1.799-3.598 17.991 8.996 34.183 16.192 52.174 25.187zM855.199 685.481c-1.799 0-3.598 0-5.397 0-1.799-7.196-3.598-16.192-5.397-26.987 8.996 5.397 14.393 8.996 19.79 12.594-5.397 5.397-7.196 8.996-8.996 14.393zM45.604 394.027c1.799 0 3.598 0 5.397 0 0 10.795 1.799 21.589 1.799 34.183-1.799 0-3.598 0-3.598 0 0-10.795-1.799-23.388-3.598-34.183zM633.91 813.218c-1.799-5.397-1.799-7.196-1.799-10.795s0-7.196 0-10.795c1.799 0 1.799 0 3.598 0 3.598 7.196 5.397 12.594 8.996 19.79-3.598 0-7.196 1.799-10.795 1.799zM590.731 91.778c-21.589-10.795-43.178-14.393-66.567-17.991-21.589-1.799-43.178 0-66.567 1.799-7.196 0-14.393-1.799-23.388 0-1.799 0-5.397 5.397-7.196 7.196-23.388 8.996-46.777 17.991-70.165 25.187-7.196 1.799-14.393 3.598-21.589 3.598-1.799-1.799-1.799-1.799-3.598-3.598 7.196-3.598 12.594-5.397 19.79-8.996-1.799-1.799-3.598-3.598-5.397-5.397-30.585 8.996-48.576 35.982-70.165 59.37 0 0 0 0 0 0 1.799 0 3.598 0 7.196 0-8.996 10.795-17.991 21.589-26.987 30.585-5.397 5.397-14.393 7.196-16.192 14.393-7.196 16.192-10.795 32.384-16.192 50.375-19.79 3.598-1.799 19.79-5.397 28.786 1.799-1.799 3.598-3.598 7.196-5.397-1.799 8.996-1.799 16.192-3.598 25.187 0 0 1.799 0 1.799 0 1.799-7.196 5.397-14.393 7.196-21.589 12.594-35.982 39.58-62.969 59.37-93.553 14.393-19.79 37.781-34.183 59.37-48.576 35.982-26.987 75.562-39.58 120.54-44.978 37.781-3.598 73.763-5.397 109.745 7.196 5.397 0 8.996-1.799 10.795-3.598zM587.133 43.202c-5.397-1.799-8.996-3.598-14.393-5.397-28.786-3.598-59.37-8.996-88.156-8.996-17.991 0-35.982 1.799-52.174 7.196-8.996 3.598-17.991 7.196-26.987 7.196-5.397 0-8.996 8.996-14.393 14.393 8.996 0 10.795-7.196 12.594-7.196 7.196-3.598 16.192-3.598 25.187-5.397 7.196 0 14.393 1.799 21.589 0 43.178-7.196 86.357-8.996 129.535 0 3.598 0 5.397 0 8.996 0-1.799 1.799-1.799 0-1.799-1.799zM380.237 79.184c37.781-7.196 77.361-14.393 115.143-23.388-41.379-3.598-79.16 8.996-115.143 23.388zM731.061 559.544c-16.192 16.192-32.384 28.786-46.777 43.178 12.594 5.397 44.978-23.388 46.777-43.178zM731.061 590.129c-19.79 14.393-37.781 30.585-57.571 44.978 0 1.799 1.799 1.799 1.799 3.598 19.79-14.393 39.58-30.585 57.571-44.978 0 0-1.799-1.799-1.799-3.598zM896.579 678.285c-10.795 8.996-23.388 19.79-37.781 28.786 19.79-3.598 30.585-16.192 37.781-28.786zM378.437 744.852c-3.598 1.799-8.996 3.598-12.594 3.598 12.594 3.598 25.187 8.996 39.58 12.594 0-1.799 0-1.799 1.799-3.598-10.795-3.598-19.79-7.196-28.786-12.594zM865.994 730.459c-12.594 10.795-23.388 21.589-35.982 32.384 0 1.799 1.799 1.799 1.799 3.598 12.594-10.795 23.388-21.589 35.982-32.384 0 0-1.799-1.799-1.799-3.598z" glyph-name="crio-enzo" unicode=""/><glyph d="M489.954 418.784c-6.222 4.898-13.698 7.348-22.434 7.348h-26.22v-56.802h26.218c8.736 0 16.212 2.442 22.434 7.352 6.22 4.89 9.34 11.974 9.34 21.248 0 8.996-3.12 15.954-9.338 20.854zM722.126 426.526c-19.86 0-37.138-7.35-51.832-22.044-14.7-14.692-22.048-33.428-22.048-56.202 0-23.042 7.35-41.908 22.048-56.604 14.694-14.698 31.972-22.044 51.832-22.044 19.866 0 37.202 7.348 52.042 22.044 14.824 14.696 22.238 33.562 22.238 56.604 0 22.774-7.414 41.51-22.238 56.202-14.84 14.694-32.176 22.044-52.042 22.044zM904.972 649.554l-348.73 201.34c-30.266 17.474-79.792 17.474-110.058 0l-348.732-201.34c-30.264-17.474-55.028-60.366-55.028-95.314v-402.678c0-34.95 24.764-77.842 55.028-95.314l348.732-201.34c30.266-17.474 79.792-17.474 110.058 0l348.73 201.34c30.264 17.472 55.028 60.366 55.028 95.314v402.68c0 34.948-24.764 77.84-55.028 95.312zM330.084 342.122c-15.884-14.17-35.222-21.25-58-21.25h-33.756v-99.704h-59.19v253.422h92.948c22.778 0 42.114-7.016 58-21.050 15.886-14.042 23.828-32.574 23.828-55.61s-7.944-41.646-23.83-55.808zM531.464 221.168l-68.32 99.704h-21.844v-99.704h-59.19v253.422h94.538c22.506 0 41.77-7.016 57.796-21.050 16.020-14.042 24.032-32.574 24.032-55.61 0-14.298-3.712-27.148-11.122-38.532-7.42-11.39-16.688-19.728-27.808-25.026l80.638-113.204h-68.72zM818.054 252.148c-27.144-24.62-59.118-36.942-95.928-36.942-36.542 0-68.386 12.322-95.524 36.942-27.154 24.63-40.72 56.672-40.72 96.13 0 38.924 13.566 70.706 40.72 95.332 27.136 24.624 58.98 36.938 95.524 36.938 23.57 0 45.682-5.294 66.338-15.888 20.654-10.592 37.534-26.152 50.644-46.67 13.11-20.524 19.66-43.764 19.66-69.71 0.002-39.46-13.572-71.5-40.714-96.132zM285.794 418.784c-6.222 4.898-13.708 7.348-22.446 7.348h-25.020v-56.802h25.020c8.738 0 16.224 2.442 22.446 7.352 6.214 4.89 9.334 11.974 9.334 21.248 0 8.996-3.12 15.954-9.334 20.854z" glyph-name="bg-pro" unicode=""/><glyph d="M832 352h64.59c34.547 0 63.41 28.654 63.41 64 0 35.593-28.39 64-63.41 64h-257.18c-34.547 0-63.41-28.654-63.41-64 0-35.593 28.39-64 63.41-64h64.59v-256.59c0-34.547 28.654-63.41 64-63.41 35.593 0 64 28.39 64 63.41v256.59zM384 480h128.19c34.816 0 63.81 28.654 63.81 64 0 35.593-28.569 64-63.81 64h-384.38c-34.816 0-63.81-28.654-63.81-64 0-35.593 28.569-64 63.81-64h128.19v-384.19c0-34.816 28.654-63.81 64-63.81 35.593 0 64 28.569 64 63.81v384.19z" glyph-name="font-text-transform" unicode=""/><glyph d="M127.62 864h768.76c70.371 0 127.62-57.137 127.62-127.62v-768.76c0-70.371-57.137-127.62-127.62-127.62h-768.76c-70.371 0-127.62 57.137-127.62 127.62v768.76c0 70.371 57.137 127.62 127.62 127.62zM319.717 800c-35.19 0-63.717-28.797-63.717-64.438v-767.124c0-35.588 28.47-64.438 63.717-64.438h576.566c35.19 0 63.717 28.797 63.717 64.438v767.124c0 35.588-28.47 64.438-63.717 64.438h-576.566zM96.3 608c-17.839 0-32.3-14.844-32.3-32 0-17.673 13.698-32 32.3-32h63.4c17.839 0 32.3 14.844 32.3 32 0 17.673-13.698 32-32.3 32h-63.4zM96.3 352c-17.839 0-32.3-14.844-32.3-32 0-17.673 13.698-32 32.3-32h63.4c17.839 0 32.3 14.844 32.3 32 0 17.673-13.698 32-32.3 32h-63.4zM96.3 480c-17.839 0-32.3-14.844-32.3-32 0-17.673 13.698-32 32.3-32h63.4c17.839 0 32.3 14.844 32.3 32 0 17.673-13.698 32-32.3 32h-63.4zM128 672c35.346 0 64 28.654 64 64s-28.654 64-64 64c-35.346 0-64-28.654-64-64s28.654-64 64-64z" glyph-name="header-sidebar" unicode=""/><glyph d="M127.62 864h768.76c70.371 0 127.62-57.137 127.62-127.62v-768.76c0-70.371-57.137-127.62-127.62-127.62h-768.76c-70.371 0-127.62 57.137-127.62 127.62v768.76c0 70.371 57.137 127.62 127.62 127.62zM128.438 800c-35.588 0-64.438-28.797-64.438-64.438v-767.124c0-35.588 28.797-64.438 64.438-64.438h767.124c35.588 0 64.438 28.797 64.438 64.438v767.124c0 35.588-28.797 64.438-64.438 64.438h-767.124zM255.705 160h512.589c34.543 0 63.705-28.654 63.705-64 0-35.593-28.522-64-63.705-64h-512.589c-34.543 0-63.705 28.654-63.705 64 0 35.593 28.522 64 63.705 64z" glyph-name="footer-settings" unicode=""/><glyph d="M127.62 864h768.76c70.371 0 127.62-57.137 127.62-127.62v-768.76c0-70.371-57.137-127.62-127.62-127.62h-768.76c-70.371 0-127.62 57.137-127.62 127.62v768.76c0 70.371 57.137 127.62 127.62 127.62zM128.438 800c-35.588 0-64.438-28.797-64.438-64.438v-767.124c0-35.588 28.797-64.438 64.438-64.438h767.124c35.588 0 64.438 28.797 64.438 64.438v767.124c0 35.588-28.797 64.438-64.438 64.438h-767.124zM255.705 672h512.589c34.543 0 63.705-28.654 63.705-64 0-35.593-28.522-64-63.705-64h-512.589c-34.543 0-63.705 28.654-63.705 64 0 35.593 28.522 64 63.705 64z" glyph-name="header-settings" unicode=""/></font>
</defs>
</svg>
